<?xml version="1.0" encoding="utf-8"?>
<!-- Generator: Adobe Illustrator 19.0.0, SVG Export Plug-In . SVG Version: 6.00 Build 0)  -->
<svg version="1.1" id="Layer_1" xmlns="http://www.w3.org/2000/svg" xmlns:xlink="http://www.w3.org/1999/xlink" x="0px" y="0px"
	 viewBox="0 0 30.9 35" style="enable-background:new 0 0 30.9 35;" xml:space="preserve">
<style type="text/css">
	.st0{fill:#404040;}
</style>
<g id="XMLID_28_">
	<g id="XMLID_34_">
		<path id="XMLID_36_" class="st0" d="M30.8,29.2l0.1-1l-0.8-0.3c0-0.4,0-0.8-0.1-1.1l0.8-0.4l-0.3-1l-0.9,0.1
			c-0.1-0.4-0.3-0.7-0.5-1l0.6-0.7l-0.7-0.8l-0.8,0.4c-0.3-0.3-0.5-0.5-0.8-0.7l0.3-0.9l-0.9-0.5l-0.6,0.7c-0.4-0.2-0.8-0.3-1.2-0.4
			L25,20.6l-1-0.1l-0.3,0.9c-0.4,0-0.8,0-1.1,0.1l-0.4-0.8l-1,0.3l0.1,0.9c-0.3,0.1-0.7,0.3-1,0.5l-0.7-0.6l-0.8,0.7l0.4,0.8
			c-0.3,0.3-0.5,0.6-0.7,0.9l-0.9-0.3l-0.5,0.9l0.7,0.6c-0.2,0.4-0.3,0.8-0.4,1.2l-0.9,0.1l-0.1,1l0.9,0.3c0,0.4,0.1,0.8,0.1,1.1
			l-0.8,0.4l0.3,1l0.9-0.1c0.2,0.3,0.3,0.7,0.5,1L17.8,32l0.7,0.8l0.8-0.4c0.3,0.3,0.6,0.5,0.9,0.7l-0.3,0.9l0.9,0.5l0.6-0.7
			c0.3,0.1,0.7,0.2,1.1,0.3l0.1,0.9l1,0.1l0.3-0.9c0.4,0,0.8-0.1,1.1-0.1l0.4,0.8l1-0.3l-0.1-0.9c0.3-0.2,0.7-0.3,1-0.5l0.7,0.6
			l0.8-0.7l-0.4-0.8c0.3-0.3,0.5-0.6,0.7-0.9l0.9,0.3l0.5-0.9L29.6,30c0.1-0.2,0.2-0.5,0.2-0.7L30.8,29.2z M23.4,30.7
			c-1.6-0.2-2.8-1.6-2.7-3.3c0.2-1.6,1.6-2.8,3.3-2.7c1.6,0.2,2.8,1.6,2.7,3.3S25,30.9,23.4,30.7z"/>
		<circle id="XMLID_35_" class="st0" cx="23.7" cy="27.7" r="1.7"/>
	</g>
	<g id="XMLID_29_">
		<path id="XMLID_31_" class="st0" d="M24.7,13.6v-1.7l-1.5-0.3c0-0.6-0.1-1.3-0.3-1.9l1.3-0.9l-0.7-1.6l-1.5,0.3
			c-0.3-0.6-0.6-1.1-1-1.6L22,4.5l-1.2-1.2l-1.3,0.8C19,3.7,18.5,3.3,18,3l0.3-1.6l-1.6-0.7L15.8,2c-0.7-0.2-1.4-0.4-2.2-0.5L13.4,0
			h-1.7l-0.3,1.5C10.7,1.6,10,1.7,9.4,1.8L8.6,0.6L6.9,1.2l0.3,1.5C6.7,3,6.1,3.4,5.6,3.8L4.3,2.9L3.1,4.1l0.8,1.3
			C3.5,5.9,3.2,6.4,2.9,7L1.3,6.7L0.7,8.3l1.3,0.8c-0.2,0.7-0.4,1.4-0.4,2.2L0,11.6v1.7l1.5,0.3c0.1,0.6,0.2,1.3,0.4,1.9l-1.3,0.8
			L1.3,18l1.5-0.3c0.3,0.6,0.7,1.1,1.1,1.6l-0.8,1.3l1.2,1.2l1.3-0.9c0.5,0.4,1,0.7,1.6,1l-0.3,1.5l1.6,0.7l0.9-1.3
			c0.6,0.2,1.2,0.3,1.9,0.3l0.3,1.5h1.7l0.3-1.5c0.6-0.1,1.3-0.2,1.9-0.4l0.8,1.3l1.6-0.7l-0.3-1.5c0.6-0.3,1.1-0.7,1.6-1.1l1.3,0.8
			l1.2-1.2L20.9,19c0.4-0.5,0.7-1,1-1.6l1.5,0.3l0.7-1.6l-1.3-0.9c0.1-0.4,0.2-0.9,0.3-1.3L24.7,13.6z M12.3,17.4
			c-2.8,0-5.1-2.3-5.1-5.1s2.3-5.1,5.1-5.1s5.1,2.3,5.1,5.1S15.1,17.4,12.3,17.4z"/>
		<circle id="XMLID_30_" class="st0" cx="12.3" cy="12.3" r="2.9"/>
	</g>
</g>
</svg>
