<?xml version="1.0" encoding="utf-8"?>
<!-- Generator: Adobe Illustrator 19.0.0, SVG Export Plug-In . SVG Version: 6.00 Build 0)  -->
<svg version="1.1" id="Layer_1" xmlns="http://www.w3.org/2000/svg" xmlns:xlink="http://www.w3.org/1999/xlink" x="0px" y="0px"
	 width="27.4px" height="23px" viewBox="0 0 27.4 23" style="enable-background:new 0 0 27.4 23;" xml:space="preserve">
<style type="text/css">
	.st0{fill:#AAAAAA;}
</style>
<g id="XMLID_2_">
	<path id="XMLID_6_" class="st0" d="M26.5,0H0.9C0.4,0,0,0.4,0,0.9v21.1C0,22.6,0.4,23,0.9,23h25.6c0.5,0,0.9-0.4,0.9-0.9V0.9
		C27.4,0.4,27,0,26.5,0z M18.5,1.6c0-0.1,0.1-0.3,0.3-0.3h2.4c0.1,0,0.3,0.1,0.3,0.3v1.8c0,0.1-0.1,0.3-0.3,0.3h-2.4
		c-0.1,0-0.3-0.1-0.3-0.3V1.6z M14.3,1.6c0-0.1,0.1-0.3,0.3-0.3H17c0.1,0,0.3,0.1,0.3,0.3v1.8c0,0.1-0.1,0.3-0.3,0.3h-2.4
		c-0.1,0-0.3-0.1-0.3-0.3V1.6z M10.2,1.6c0-0.1,0.1-0.3,0.3-0.3h2.4c0.1,0,0.3,0.1,0.3,0.3v1.8c0,0.1-0.1,0.3-0.3,0.3h-2.4
		c-0.1,0-0.3-0.1-0.3-0.3V1.6z M6,1.6c0-0.1,0.1-0.3,0.3-0.3h2.4c0.1,0,0.3,0.1,0.3,0.3v1.8c0,0.1-0.1,0.3-0.3,0.3H6.3
		C6.2,3.7,6,3.6,6,3.4V1.6z M1.9,1.6c0-0.1,0.1-0.3,0.3-0.3h2.4c0.1,0,0.3,0.1,0.3,0.3v1.8c0,0.1-0.1,0.3-0.3,0.3H2.1
		C2,3.7,1.9,3.6,1.9,3.4V1.6z M4.8,21.4c0,0.1-0.1,0.3-0.3,0.3H2.1c-0.1,0-0.3-0.1-0.3-0.3v-1.8c0-0.1,0.1-0.3,0.3-0.3h2.4
		c0.1,0,0.3,0.1,0.3,0.3V21.4z M8.9,21.4c0,0.1-0.1,0.3-0.3,0.3H6.3c-0.1,0-0.3-0.1-0.3-0.3v-1.8c0-0.1,0.1-0.3,0.3-0.3h2.4
		c0.1,0,0.3,0.1,0.3,0.3V21.4z M13.1,21.4c0,0.1-0.1,0.3-0.3,0.3h-2.4c-0.1,0-0.3-0.1-0.3-0.3v-1.8c0-0.1,0.1-0.3,0.3-0.3h2.4
		c0.1,0,0.3,0.1,0.3,0.3V21.4z M17.2,21.4c0,0.1-0.1,0.3-0.3,0.3h-2.4c-0.1,0-0.3-0.1-0.3-0.3v-1.8c0-0.1,0.1-0.3,0.3-0.3H17
		c0.1,0,0.3,0.1,0.3,0.3V21.4z M21.4,21.4c0,0.1-0.1,0.3-0.3,0.3h-2.4c-0.1,0-0.3-0.1-0.3-0.3v-1.8c0-0.1,0.1-0.3,0.3-0.3h2.4
		c0.1,0,0.3,0.1,0.3,0.3V21.4z M25.5,21.4c0,0.1-0.1,0.3-0.3,0.3h-2.4c-0.1,0-0.3-0.1-0.3-0.3v-1.8c0-0.1,0.1-0.3,0.3-0.3h2.4
		c0.1,0,0.3,0.1,0.3,0.3V21.4z M25.5,18H1.9V5h23.7V18z M25.5,3.4c0,0.1-0.1,0.3-0.3,0.3h-2.4c-0.1,0-0.3-0.1-0.3-0.3V1.6
		c0-0.1,0.1-0.3,0.3-0.3h2.4c0.1,0,0.3,0.1,0.3,0.3V3.4z"/>
	<path id="XMLID_3_" class="st0" d="M13.7,6.8C11.1,6.8,9,8.9,9,11.5s2.1,4.7,4.7,4.7s4.7-2.1,4.7-4.7S16.3,6.8,13.7,6.8z
		 M16.6,11.8l-4.1,2.4c-0.2,0.1-0.4,0-0.4-0.3V9.1c0-0.3,0.2-0.4,0.4-0.3l4.1,2.4C16.8,11.4,16.8,11.6,16.6,11.8z"/>
</g>
</svg>
