<?xml version="1.0" encoding="utf-8"?>
<!-- Generator: Adobe Illustrator 19.0.0, SVG Export Plug-In . SVG Version: 6.00 Build 0)  -->
<svg version="1.1" id="Layer_1" xmlns="http://www.w3.org/2000/svg" xmlns:xlink="http://www.w3.org/1999/xlink" x="0px" y="0px"
	 width="52.5px" height="63.1px" viewBox="0 0 52.5 63.1" style="enable-background:new 0 0 52.5 63.1;" xml:space="preserve">
<style type="text/css">
	.st0{opacity:0.75;fill:#E3A42D;stroke:#616161;stroke-width:0.5;stroke-miterlimit:10;}
	.st1{fill:#F3F3F3;stroke:#616161;stroke-width:0.5;stroke-miterlimit:10;}
	.st2{fill:#E3A42D;stroke:#616161;stroke-width:0.5;stroke-miterlimit:10;}
</style>
<g id="XMLID_42_">
	<polygon id="XMLID_46_" class="st0" points="0.3,15.3 0.3,45.3 26.2,60.3 52.2,45.3 52.2,15.3 26.2,0.3 	"/>
	<polygon id="XMLID_45_" class="st1" points="4.4,18 4.4,43 26,55.5 47.7,43 47.7,18 26,5.5 	"/>
	<g id="XMLID_41_">
		<path id="XMLID_44_" class="st2" d="M22.8,27.4h2c0.6,0,1.1,0,1.6-0.1c0.5-0.1,1-0.2,1.5-0.5c0.4-0.2,0.8-0.5,1.1-1
			c0.3-0.4,0.4-1,0.4-1.6c0-0.9-0.3-1.6-1-2.1c-0.7-0.6-1.5-0.8-2.5-0.8c-0.9,0-1.7,0.3-2.3,0.8c-0.6,0.5-1,1.1-1.2,1.9l-6.6-1.4
			c0.3-1.2,0.8-2.3,1.4-3.1s1.4-1.6,2.3-2.1c0.9-0.5,1.9-0.9,2.9-1.2c1.1-0.3,2.2-0.4,3.4-0.4c1.3,0,2.5,0.2,3.6,0.5
			c1.2,0.3,2.2,0.8,3.1,1.4c0.9,0.7,1.6,1.5,2.1,2.5c0.5,1,0.8,2.2,0.8,3.5c0,1.6-0.4,2.9-1.2,4c-0.8,1.1-2,1.8-3.6,2.2V30
			c0.9,0.1,1.6,0.4,2.3,0.8c0.7,0.4,1.2,0.9,1.7,1.5c0.5,0.6,0.8,1.3,1,2c0.2,0.7,0.4,1.5,0.4,2.4c0,1.4-0.3,2.7-0.8,3.7
			c-0.5,1.1-1.3,2-2.2,2.7s-2,1.2-3.2,1.6c-1.2,0.3-2.6,0.5-3.9,0.5c-2.5,0-4.7-0.6-6.5-1.8c-1.8-1.2-3-3-3.6-5.6l6.3-1.5
			c0.2,1,0.6,1.8,1.3,2.4c0.7,0.6,1.6,0.9,2.9,0.9c1.3,0,2.3-0.3,2.9-1c0.6-0.7,0.9-1.6,0.9-2.6c0-0.8-0.2-1.4-0.5-1.9
			c-0.3-0.4-0.8-0.8-1.3-1c-0.5-0.2-1.1-0.3-1.8-0.4c-0.7,0-1.3-0.1-2-0.1h-1.4V27.4z"/>
	</g>
</g>
</svg>
