<?xml version="1.0" encoding="utf-8"?>
<!-- Generator: Adobe Illustrator 19.0.0, SVG Export Plug-In . SVG Version: 6.00 Build 0)  -->
<svg version="1.1" xmlns="http://www.w3.org/2000/svg" xmlns:xlink="http://www.w3.org/1999/xlink" x="0px" y="0px" width="25px"
	 height="25px" viewBox="0 0 25 25" style="enable-background:new 0 0 25 25;" xml:space="preserve">
<style type="text/css">
	.st0{display:none;}
	.st1{display:inline;stroke:#000000;stroke-miterlimit:10;}
	.st2{fill:#424244;}
	.st3{fill:#999A9B;}
	.st4{fill:#C6C6C7;}
	.st5{fill:#6E6E70;}
	.st6{fill:#4D4D4F;}
	.st7{fill:#A4A5A6;}
	.st8{fill:#D1D2D2;}
	.st9{fill:#79797B;}
	.st10{fill:#58585A;}
	.st11{fill:#B0B0B2;}
	.st12{fill:#DBDCDD;}
	.st13{fill:#838385;}
	.st14{fill:#636365;}
	.st15{fill:#BABBBC;}
	.st16{fill:#E7E7E7;}
	.st17{fill:#8F8F90;}
</style>
<g id="Layer_1" class="st0">
</g>
<g id="Layer_2" class="st0">
	<rect id="XMLID_1_" y="-0.4" class="st1" width="25.4" height="25.4"/>
</g>
<g id="Layer_3">
	<g id="XMLID_3_">
		<g id="XMLID_49_">
			<g id="XMLID_57_">
				<path id="XMLID_61_" class="st2" d="M12.5,5.9c0,0.3,0.2,0.5,0.5,0.5l0,0c0.3,0,0.5-0.2,0.5-0.5V1.6c0-0.3-0.2-0.5-0.5-0.5l0,0
					c-0.3,0-0.5,0.2-0.5,0.5V5.9z"/>
				<path id="XMLID_58_" class="st3" d="M12.5,22.5c0,0.3,0.2,0.5,0.5,0.5l0,0c0.3,0,0.5-0.2,0.5-0.5v-4.2c0-0.3-0.2-0.5-0.5-0.5
					l0,0c-0.3,0-0.5,0.2-0.5,0.5V22.5z"/>
			</g>
			<g id="XMLID_50_">
				<path id="XMLID_54_" class="st4" d="M6.7,12.6c0.3,0,0.5-0.2,0.5-0.5l0,0c0-0.3-0.2-0.5-0.5-0.5H2.5c-0.3,0-0.5,0.2-0.5,0.5l0,0
					c0,0.3,0.2,0.5,0.5,0.5H6.7z"/>
				<path id="XMLID_51_" class="st5" d="M23.4,12.6c0.3,0,0.5-0.2,0.5-0.5l0,0c0-0.3-0.2-0.5-0.5-0.5h-4.2c-0.3,0-0.5,0.2-0.5,0.5
					l0,0c0,0.3,0.2,0.5,0.5,0.5H23.4z"/>
			</g>
		</g>
		<g id="XMLID_34_">
			<g id="XMLID_42_">
				<path id="XMLID_46_" class="st6" d="M14.9,6.1c-0.1,0.3,0,0.5,0.3,0.6l0,0c0.3,0.1,0.5,0,0.6-0.3l1.6-3.9c0.1-0.3,0-0.5-0.3-0.6
					l0,0c-0.3-0.1-0.5,0-0.6,0.3L14.9,6.1z"/>
				<path id="XMLID_43_" class="st7" d="M8.5,21.5c-0.1,0.3,0,0.5,0.3,0.6l0,0c0.3,0.1,0.5,0,0.6-0.3L11,18c0.1-0.3,0-0.5-0.3-0.6
					l0,0c-0.3-0.1-0.5,0-0.6,0.3L8.5,21.5z"/>
			</g>
			<g id="XMLID_35_">
				<path id="XMLID_39_" class="st8" d="M7,10.1c0.3,0.1,0.5,0,0.6-0.3l0,0c0.1-0.3,0-0.5-0.3-0.6L3.5,7.6C3.3,7.5,3,7.6,2.9,7.9
					l0,0c-0.1,0.3,0,0.5,0.3,0.6L7,10.1z"/>
				<path id="XMLID_36_" class="st9" d="M22.4,16.5c0.3,0.1,0.5,0,0.6-0.3l0,0c0.1-0.3,0-0.5-0.3-0.6L18.9,14
					c-0.3-0.1-0.5,0-0.6,0.3l0,0c-0.1,0.3,0,0.5,0.3,0.6L22.4,16.5z"/>
			</g>
		</g>
		<g id="XMLID_19_">
			<g id="XMLID_27_">
				<path id="XMLID_31_" class="st10" d="M17,7.3c-0.2,0.2-0.2,0.5,0,0.7l0,0c0.2,0.2,0.5,0.2,0.7,0l3-3c0.2-0.2,0.2-0.5,0-0.7l0,0
					c-0.2-0.2-0.5-0.2-0.7,0L17,7.3z"/>
				<path id="XMLID_28_" class="st11" d="M5.2,19.1c-0.2,0.2-0.2,0.5,0,0.7l0,0c0.2,0.2,0.5,0.2,0.7,0l3-3c0.2-0.2,0.2-0.5,0-0.7
					l0,0c-0.2-0.2-0.5-0.2-0.7,0L5.2,19.1z"/>
			</g>
			<g id="XMLID_20_">
				<path id="XMLID_24_" class="st12" d="M8.2,8c0.2,0.2,0.5,0.2,0.7,0l0,0c0.2-0.2,0.2-0.5,0-0.7l-3-3c-0.2-0.2-0.5-0.2-0.7,0l0,0
					C5,4.5,5,4.9,5.2,5L8.2,8z"/>
				<path id="XMLID_21_" class="st13" d="M20,19.8c0.2,0.2,0.5,0.2,0.7,0l0,0c0.2-0.2,0.2-0.5,0-0.7l-3-3c-0.2-0.2-0.5-0.2-0.7,0
					l0,0c-0.2,0.2-0.2,0.5,0,0.7L20,19.8z"/>
			</g>
		</g>
		<g id="XMLID_4_">
			<g id="XMLID_12_">
				<path id="XMLID_16_" class="st14" d="M18.5,9.2c-0.3,0.1-0.4,0.4-0.3,0.6l0,0c0.1,0.3,0.4,0.4,0.6,0.3l3.9-1.6
					C23,8.4,23.2,8.1,23,7.9l0,0c-0.1-0.3-0.4-0.4-0.6-0.3L18.5,9.2z"/>
				<path id="XMLID_13_" class="st15" d="M3.1,15.6c-0.3,0.1-0.4,0.4-0.3,0.6l0,0c0.1,0.3,0.4,0.4,0.6,0.3l3.9-1.6
					c0.3-0.1,0.4-0.4,0.3-0.6l0,0C7.6,14,7.3,13.9,7,14L3.1,15.6z"/>
			</g>
			<g id="XMLID_5_">
				<path id="XMLID_9_" class="st16" d="M10.1,6.5c0.1,0.3,0.4,0.4,0.6,0.3l0,0C11,6.7,11.1,6.4,11,6.1L9.4,2.2C9.3,2,9,1.9,8.8,2
					l0,0C8.5,2.1,8.4,2.4,8.5,2.6L10.1,6.5z"/>
				<path id="XMLID_6_" class="st17" d="M16.5,21.9c0.1,0.3,0.4,0.4,0.6,0.3l0,0c0.3-0.1,0.4-0.4,0.3-0.6l-1.6-3.9
					c-0.1-0.3-0.4-0.4-0.6-0.3l0,0c-0.3,0.1-0.4,0.4-0.3,0.6L16.5,21.9z"/>
			</g>
		</g>
	</g>
</g>
</svg>
