<?xml version="1.0" encoding="utf-8"?>
<!-- Generator: Adobe Illustrator 19.0.0, SVG Export Plug-In . SVG Version: 6.00 Build 0)  -->
<svg version="1.1" id="Layer_1" xmlns="http://www.w3.org/2000/svg" xmlns:xlink="http://www.w3.org/1999/xlink" x="0px" y="0px"
	 width="31.4px" height="32.2px" viewBox="0 0 31.4 32.2" style="enable-background:new 0 0 31.4 32.2;" xml:space="preserve">
<style type="text/css">
	.st0{fill:#31333E;}
</style>
<g>
	<path class="st0" d="M29.5,8.9c-0.2-0.9-0.6-1.8-1.1-2.6l0.9-1.8L27,2.1L25.1,3c-0.8-0.5-1.7-0.9-2.6-1.1L21.8,0h-3.3l-0.7,1.9
		C16.9,2.1,16,2.5,15.2,3l-1.8-0.9l-2.3,2.3l0.9,1.8c-0.5,0.8-0.9,1.7-1.1,2.6L8.9,9.6v3.3l1.9,0.7c0.2,0.9,0.6,1.8,1.1,2.6L11.1,18
		l2.3,2.3l1.8-0.9c0.8,0.5,1.7,0.9,2.6,1.1l0.7,1.9h3.3l0.7-1.9c0.9-0.2,1.8-0.6,2.6-1.1l1.8,0.9l2.3-2.3l-0.9-1.8
		c0.5-0.8,0.9-1.7,1.1-2.6l1.9-0.7V9.6L29.5,8.9z M20.2,18.6c-4.1,0-7.4-3.3-7.4-7.4s3.3-7.4,7.4-7.4s7.4,3.3,7.4,7.4
		S24.2,18.6,20.2,18.6z"/>
	<path class="st0" d="M23.1,12l-4.2,2.4c-0.4,0.3-1-0.1-1-0.6V8.9c0-0.5,0.6-0.8,1-0.6l4.2,2.4C23.5,11.1,23.5,11.7,23.1,12z"/>
	<path class="st0" d="M13.3,25.3c0-0.6,0-1.2-0.2-1.8l0.9-1l-1-1.9l-1.3,0.2c-0.4-0.5-0.9-0.9-1.4-1.2l-0.1-1.3l-2-0.6l-0.8,1
		c-0.6,0-1.2,0-1.8,0.2l-1-0.9l-1.9,1l0.2,1.3c-0.5,0.4-0.9,0.9-1.2,1.4l-1.3,0.1l-0.6,2l1,0.8c0,0.6,0,1.2,0.2,1.8l-0.9,1l1,1.9
		l1.3-0.2C3,29.6,3.5,29.9,4,30.3l0.1,1.3l2,0.6l0.8-1c0.6,0,1.2,0,1.8-0.2l1,0.9l1.9-1l-0.2-1.3c0.5-0.4,0.9-0.9,1.2-1.4l1.3-0.1
		l0.6-2L13.3,25.3z M7.2,28.6c-2,0-3.6-1.6-3.6-3.6s1.6-3.6,3.6-3.6s3.6,1.6,3.6,3.6S9.2,28.6,7.2,28.6z"/>
</g>
</svg>
