<?xml version="1.0" encoding="utf-8"?>
<!-- Generator: Adobe Illustrator 24.0.0, SVG Export Plug-In . SVG Version: 6.00 Build 0)  -->
<svg version="1.1" id="Layer_1" xmlns="http://www.w3.org/2000/svg" xmlns:xlink="http://www.w3.org/1999/xlink" x="0px" y="0px"
	 viewBox="0 0 200 75" style="enable-background:new 0 0 200 75;" xml:space="preserve">
<style type="text/css">
	.st0{fill:#4A7CFF;}
	.st1{fill:#FFFFFF;}
</style>
<title>Asset 9</title>
<path class="st0" d="M0,61.6C0,69,4.8,75,10.8,75h178.3c6,0,10.8-6,10.8-13.4V13.4C200,6,195.1,0,189.2,0H10.8C4.8,0,0,6,0,13.4
	V61.6z"/>
<path class="st1" d="M15.8,29.9h2v14.6h-2L15.8,29.9z"/>
<path class="st1" d="M21.5,29.9h2.6l8,12l0,0v-12h2v14.6h-2.5l-8.1-12l0,0v12h-2L21.5,29.9z"/>
<path class="st1" d="M43.6,29.9h5.1c0.8,0,1.6,0.1,2.3,0.4c0.5,0.2,1,0.6,1.4,1c0.3,0.4,0.6,0.8,0.7,1.3c0.1,0.5,0.2,0.9,0.2,1.4
	c0,0.5-0.1,1-0.2,1.4c-0.1,0.5-0.4,0.9-0.7,1.3c-0.4,0.4-0.9,0.8-1.4,1c-0.7,0.3-1.5,0.4-2.3,0.4h-3.1v6.4h-2L43.6,29.9z M45.6,36.3
	h2.6c0.4,0,0.8,0,1.2-0.1c0.3-0.1,0.7-0.2,1-0.3c0.3-0.2,0.5-0.4,0.7-0.7c0.3-0.8,0.3-1.6,0-2.4c-0.2-0.3-0.4-0.5-0.7-0.7
	c-0.3-0.2-0.6-0.3-1-0.3c-0.4-0.1-0.8-0.1-1.2-0.1h-2.6L45.6,36.3z"/>
<path class="st1" d="M55.8,29.9h5.1c0.8,0,1.6,0.1,2.3,0.4c0.5,0.2,1,0.6,1.4,1c0.3,0.4,0.6,0.8,0.7,1.3c0.1,0.5,0.2,0.9,0.2,1.4
	c0,0.5-0.1,0.9-0.3,1.3c-0.2,0.4-0.4,0.8-0.7,1.2c-0.3,0.4-0.7,0.7-1.1,0.9c-0.5,0.2-1,0.4-1.5,0.4l4.1,6.7h-2.5L60,38h-2.2v6.4h-2
	L55.8,29.9z M57.8,36.3h2.6c0.4,0,0.8,0,1.1-0.1c0.3-0.1,0.7-0.2,1-0.3c0.3-0.2,0.5-0.4,0.7-0.7c0.4-0.8,0.4-1.6,0-2.4
	c-0.2-0.3-0.4-0.5-0.7-0.7c-0.3-0.2-0.6-0.3-1-0.3c-0.4-0.1-0.8-0.1-1.1-0.1h-2.6L57.8,36.3z"/>
<path class="st1" d="M75.1,44.8c-1.1,0-2.1-0.2-3.1-0.6c-0.9-0.4-1.7-0.9-2.4-1.6c-0.7-0.7-1.2-1.5-1.6-2.4c-0.7-1.9-0.7-4.1,0-6
	c0.4-0.9,0.9-1.7,1.6-2.4c0.7-0.7,1.5-1.3,2.4-1.6c1-0.4,2-0.6,3.1-0.6c1.1,0,2.1,0.2,3.1,0.6c0.9,0.4,1.7,0.9,2.4,1.6
	c0.7,0.7,1.2,1.5,1.6,2.4c0.7,1.9,0.7,4.1,0,6c-0.4,0.9-0.9,1.7-1.6,2.4c-0.7,0.7-1.5,1.2-2.4,1.6C77.2,44.6,76.1,44.8,75.1,44.8z
	 M75.1,43c1.5,0,3-0.6,4-1.7c0.5-0.5,0.9-1.2,1.1-1.8c0.5-1.5,0.5-3.1,0-4.5c-0.2-0.7-0.6-1.3-1.1-1.8c-1.6-1.7-4.1-2.2-6.3-1.3
	c-1.3,0.6-2.3,1.7-2.8,3.1c-0.5,1.5-0.5,3.1,0,4.5c0.2,0.7,0.6,1.3,1.1,1.8c0.5,0.5,1.1,0.9,1.7,1.2C73.5,42.8,74.3,43,75.1,43
	L75.1,43z"/>
<path class="st1" d="M97.9,36.3v7.2c-0.4,0.2-0.8,0.4-1.2,0.6c-0.5,0.2-0.9,0.3-1.4,0.4c-0.5,0.1-1,0.2-1.5,0.3
	c-0.5,0-1,0.1-1.4,0.1c-1.1,0-2.3-0.2-3.3-0.6c-1.8-0.8-3.3-2.2-4-4.1c-0.7-1.9-0.7-4.1,0-6c0.4-0.9,0.9-1.7,1.6-2.4
	c0.7-0.7,1.5-1.3,2.4-1.6c1-0.4,2-0.6,3.1-0.6c1.1,0,2.2,0.1,3.3,0.5c0.8,0.3,1.5,0.8,2.1,1.4l-1.4,1.5c-0.5-0.5-1.2-0.9-1.9-1.2
	c-0.7-0.2-1.4-0.3-2.1-0.3c-0.8,0-1.5,0.1-2.3,0.5c-1.3,0.6-2.4,1.7-2.8,3.1c-0.3,0.7-0.4,1.5-0.4,2.3c0,0.8,0.1,1.6,0.4,2.3
	c0.3,0.7,0.7,1.3,1.2,1.8c1.1,1.1,2.5,1.7,4,1.7c0.7,0,1.3-0.1,2-0.2c0.6-0.1,1.1-0.3,1.6-0.6v-4h-3.1v-1.8H97.9z"/>
<path class="st1" d="M101.5,29.9h5.1c0.8,0,1.6,0.1,2.3,0.4c0.5,0.2,1,0.6,1.4,1c0.3,0.4,0.6,0.8,0.7,1.3c0.1,0.5,0.2,0.9,0.2,1.4
	c0,0.5-0.1,0.9-0.3,1.3c-0.2,0.4-0.4,0.8-0.7,1.2c-0.3,0.4-0.7,0.7-1.1,0.9c-0.5,0.2-1,0.4-1.5,0.4l4.1,6.7h-2.5l-3.7-6.5h-2.2v6.4
	h-2L101.5,29.9z M103.5,36.3h2.6c0.4,0,0.8,0,1.2-0.1c0.3-0.1,0.7-0.2,1-0.3c0.3-0.2,0.5-0.4,0.7-0.7c0.4-0.8,0.4-1.6,0-2.4
	c-0.2-0.3-0.4-0.5-0.7-0.7c-0.3-0.2-0.6-0.3-1-0.3c-0.4-0.1-0.8-0.1-1.2-0.1h-2.6L103.5,36.3z"/>
<path class="st1" d="M114.1,29.9h9.4v1.9h-7.4v4.3h6.9v1.8h-6.9v4.7h7.8v1.8h-9.8V29.9z"/>
<path class="st1" d="M127.1,41.4c0.3,0.5,0.8,0.9,1.4,1.2c0.5,0.3,1.1,0.4,1.7,0.4c0.3,0,0.7-0.1,1-0.2c0.3-0.1,0.7-0.3,0.9-0.5
	c0.3-0.2,0.5-0.5,0.7-0.8c0.2-0.3,0.3-0.7,0.3-1c0-0.5-0.2-1-0.5-1.3c-0.4-0.3-0.9-0.6-1.3-0.7c-0.5-0.2-1.1-0.4-1.7-0.6
	c-0.6-0.2-1.2-0.4-1.7-0.8c-1.2-0.8-2-2.1-1.9-3.6c0-0.5,0.1-0.9,0.3-1.4c0.2-0.5,0.5-0.9,0.9-1.3c0.4-0.4,1-0.8,1.5-1
	c0.7-0.3,1.5-0.4,2.3-0.4c0.8,0,1.5,0.1,2.3,0.3c0.8,0.2,1.4,0.7,1.9,1.3l-1.6,1.5c-0.3-0.4-0.6-0.7-1.1-0.9c-0.5-0.2-1-0.4-1.5-0.4
	c-0.5,0-0.9,0.1-1.4,0.2c-0.3,0.1-0.6,0.3-0.9,0.5c-0.2,0.2-0.4,0.5-0.5,0.7c-0.1,0.2-0.1,0.5-0.1,0.7c0,0.5,0.2,1,0.5,1.4
	c0.4,0.3,0.8,0.6,1.3,0.8c0.6,0.2,1.1,0.4,1.7,0.6c0.6,0.2,1.2,0.4,1.7,0.7c0.5,0.3,1,0.7,1.3,1.2c0.4,0.6,0.6,1.3,0.5,2.1
	c0,0.7-0.1,1.3-0.4,1.9c-0.3,0.5-0.6,1-1.1,1.4c-0.5,0.4-1,0.7-1.6,0.9c-0.6,0.2-1.3,0.3-2,0.3c-0.9,0-1.8-0.2-2.7-0.5
	c-0.8-0.3-1.5-0.8-2-1.5L127.1,41.4z"/>
<path class="st1" d="M138.6,41.4c0.3,0.5,0.8,0.9,1.4,1.2c0.5,0.3,1.1,0.4,1.7,0.4c0.3,0,0.7-0.1,1-0.2c0.3-0.1,0.7-0.3,0.9-0.5
	c0.3-0.2,0.5-0.5,0.7-0.8c0.2-0.3,0.3-0.7,0.3-1c0-0.5-0.2-1-0.5-1.3c-0.4-0.3-0.9-0.6-1.3-0.7c-0.5-0.2-1.1-0.4-1.7-0.6
	c-0.6-0.2-1.2-0.4-1.7-0.8c-0.5-0.3-1-0.8-1.3-1.3c-0.4-0.7-0.6-1.5-0.5-2.3c0-0.5,0.1-0.9,0.3-1.4c0.2-0.5,0.5-0.9,0.9-1.3
	c0.4-0.4,1-0.8,1.5-1c0.7-0.3,1.5-0.4,2.3-0.4c0.8,0,1.5,0.1,2.3,0.3c0.8,0.2,1.4,0.7,1.9,1.3l-1.6,1.5c-0.2-0.4-0.6-0.7-1-0.9
	c-0.5-0.2-1-0.4-1.5-0.4c-0.5,0-0.9,0.1-1.4,0.2c-0.3,0.1-0.6,0.3-0.9,0.5c-0.2,0.2-0.4,0.5-0.5,0.7c-0.1,0.2-0.1,0.5-0.1,0.7
	c0,0.5,0.1,1,0.5,1.4c0.4,0.3,0.8,0.6,1.3,0.8c0.6,0.2,1.1,0.4,1.7,0.6c0.6,0.2,1.2,0.4,1.7,0.7c0.5,0.3,1,0.7,1.3,1.2
	c0.4,0.6,0.6,1.3,0.5,2.1c0,0.7-0.1,1.3-0.4,1.9c-0.3,0.5-0.6,1-1.1,1.4c-0.5,0.4-1,0.7-1.6,0.9c-0.6,0.2-1.3,0.3-2,0.3
	c-0.9,0-1.8-0.2-2.6-0.5c-0.8-0.3-1.5-0.8-2-1.5L138.6,41.4z"/>
<path class="st1" d="M171.5,26.5c0,0.4,0.3,0.7,0.7,0.8c0,0,0.1,0,0.1,0l0,0c0.4,0,0.7-0.3,0.8-0.7c0,0,0-0.1,0-0.1v-6.3
	c0-0.4-0.3-0.7-0.7-0.8c0,0-0.1,0-0.1,0l0,0c-0.4,0-0.7,0.3-0.8,0.7c0,0,0,0.1,0,0.1V26.5z"/>
<path class="st1" d="M171.5,51.4c0,0.4,0.3,0.7,0.7,0.8c0,0,0.1,0,0.1,0l0,0c0.4,0,0.7-0.3,0.8-0.7c0,0,0-0.1,0-0.1v-6.3
	c0-0.4-0.3-0.7-0.7-0.8c0,0-0.1,0-0.1,0l0,0c-0.4,0-0.7,0.3-0.8,0.7c0,0,0,0.1,0,0.1V51.4z"/>
<path class="st1" d="M163,36.5c0.4,0,0.7-0.3,0.8-0.6c0,0,0-0.1,0-0.1l0,0c0.1-0.4-0.2-0.7-0.6-0.8c0,0-0.1,0-0.1,0h-6.3
	c-0.4,0-0.7,0.3-0.8,0.7c0,0,0,0.1,0,0.1l0,0c0,0.4,0.3,0.7,0.7,0.8c0,0,0.1,0,0.1,0L163,36.5z"/>
<path class="st1" d="M188,36.5c0.4,0,0.7-0.3,0.8-0.7c0,0,0-0.1,0-0.1l0,0c0-0.4-0.2-0.7-0.6-0.8c0,0-0.1,0-0.1,0h-6.3
	c-0.4,0-0.7,0.3-0.8,0.7c0,0,0,0.1,0,0.1l0,0c0,0.4,0.3,0.7,0.7,0.8c0,0,0.1,0,0.1,0L188,36.5z"/>
<path class="st1" d="M175.1,26.9c-0.2,0.3,0,0.7,0.3,0.8c0.1,0,0.1,0,0.2,0.1l0,0c0.3,0.2,0.7,0,0.8-0.3c0-0.1,0-0.1,0.1-0.2
	l2.5-5.7c0.2-0.3,0-0.7-0.3-0.8c-0.1,0-0.1,0-0.2-0.1l0,0c-0.3-0.2-0.7,0-0.8,0.3c0,0.1,0,0.1-0.1,0.2L175.1,26.9z"/>
<path class="st1" d="M165.7,50.1c-0.2,0.3,0,0.7,0.3,0.9c0.1,0,0.1,0,0.2,0.1l0,0c0.3,0.2,0.7,0,0.8-0.3c0-0.1,0-0.1,0.1-0.2
	l2.4-5.9c0.2-0.3,0-0.7-0.3-0.8c-0.1,0-0.1,0-0.2-0.1l0,0c-0.3-0.2-0.7,0-0.8,0.3c0,0.1,0,0.1-0.1,0.2L165.7,50.1z"/>
<path class="st1" d="M163.5,32.9c0.3,0.2,0.7,0,0.8-0.3c0-0.1,0-0.1,0.1-0.2l0,0c0.2-0.3,0-0.7-0.3-0.9c-0.1,0-0.1,0-0.2-0.1
	l-5.7-2.4c-0.3-0.2-0.7,0-0.8,0.3c0,0.1,0,0.1-0.1,0.2l0,0c-0.2,0.3,0,0.7,0.3,0.8c0.1,0,0.1,0,0.2,0.1L163.5,32.9z"/>
<path class="st1" d="M186.5,42.6c0.3,0.2,0.7,0,0.8-0.3c0-0.1,0-0.1,0.1-0.2l0,0c0.2-0.3,0-0.7-0.3-0.9c-0.1,0-0.1,0-0.2-0.1
	l-5.8-2.4c-0.3-0.2-0.7,0-0.8,0.3c0,0.1,0,0.1-0.1,0.2l0,0c-0.2,0.3,0,0.7,0.3,0.8c0.1,0,0.1,0,0.2,0.1L186.5,42.6z"/>
<path class="st1" d="M178.4,28.7c-0.3,0.3-0.3,0.8,0,1c0,0,0,0,0,0l0,0c0.3,0.3,0.7,0.3,1,0c0,0,0,0,0,0l4.5-4.5
	c0.3-0.3,0.3-0.8,0-1c0,0,0,0,0,0l0,0c-0.3-0.3-0.7-0.3-1,0c0,0,0,0,0,0L178.4,28.7z"/>
<path class="st1" d="M160.8,46.3c-0.3,0.3-0.3,0.7,0,1l0,0c0.3,0.3,0.7,0.3,1,0c0,0,0,0,0,0l4.5-4.5c0.3-0.3,0.3-0.7,0-1l0,0
	c-0.3-0.3-0.7-0.3-1,0c0,0,0,0,0,0L160.8,46.3z"/>
<path class="st1" d="M165.3,29.8c0.3,0.3,0.7,0.3,1,0c0,0,0,0,0,0l0,0c0.3-0.3,0.3-0.8,0-1c0,0,0,0,0,0l-4.5-4.5
	c-0.3-0.3-0.7-0.3-1,0c0,0,0,0,0,0l0,0c-0.3,0.3-0.3,0.8,0,1c0,0,0,0,0,0L165.3,29.8z"/>
<path class="st1" d="M182.8,47.4c0.3,0.3,0.7,0.3,1,0c0,0,0,0,0,0l0,0c0.3-0.3,0.3-0.7,0-1l-4.5-4.5c-0.3-0.3-0.7-0.3-1,0l0,0
	c-0.3,0.3-0.3,0.7,0,1L182.8,47.4z"/>
<path class="st1" d="M180.7,31.6c-0.4,0.1-0.6,0.5-0.5,0.8c0,0,0,0.1,0,0.1l0,0c0.1,0.4,0.4,0.6,0.8,0.5c0,0,0.1,0,0.1,0l5.8-2.4
	c0.4-0.1,0.6-0.5,0.5-0.8c0,0,0-0.1,0-0.1l0,0c-0.1-0.4-0.4-0.6-0.8-0.5c0,0-0.1,0-0.1,0L180.7,31.6z"/>
<path class="st1" d="M157.6,41c-0.4,0.1-0.6,0.5-0.5,0.8c0,0,0,0.1,0,0.1l0,0c0.1,0.3,0.4,0.6,0.8,0.5c0,0,0.1,0,0.1,0l6-2.4
	c0.4-0.1,0.6-0.5,0.5-0.8c0,0,0-0.1,0-0.1l0,0c-0.1-0.4-0.5-0.6-0.8-0.5c0,0-0.1,0-0.1,0L157.6,41z"/>
<path class="st1" d="M168.1,27.5c0.1,0.4,0.4,0.6,0.8,0.5c0,0,0.1,0,0.1,0l0,0c0.4-0.1,0.6-0.5,0.5-0.8c0,0,0-0.1,0-0.1l-2.4-6
	c-0.1-0.4-0.6-0.6-1-0.5c0,0,0,0-0.1,0l0,0c-0.3,0.2-0.5,0.7-0.3,1L168.1,27.5z"/>
<path class="st1" d="M177.7,50.5c0.1,0.4,0.5,0.6,0.8,0.5c0,0,0.1,0,0.1,0l0,0c0.4-0.1,0.6-0.5,0.5-0.8c0,0,0,0,0-0.1l-2.4-5.9
	c-0.1-0.4-0.6-0.6-1-0.5c0,0,0,0,0,0l0,0c-0.4,0.1-0.6,0.5-0.5,0.8c0,0,0,0.1,0,0.1L177.7,50.5z"/>
</svg>
