<?xml version="1.0" encoding="utf-8"?>
<!-- Generator: Adobe Illustrator 24.0.0, SVG Export Plug-In . SVG Version: 6.00 Build 0)  -->
<svg version="1.1" id="Layer_1" xmlns="http://www.w3.org/2000/svg" xmlns:xlink="http://www.w3.org/1999/xlink" x="0px" y="0px"
	 viewBox="0 0 200 75" style="enable-background:new 0 0 200 75;" xml:space="preserve">
<style type="text/css">
	.st0{fill:#DF1F00;}
	.st1{fill:#FFFFFF;}
	.st2{display:none;}
	.st3{display:inline;}
</style>
<title>Asset 10</title>
<path class="st0" d="M0,61.6C0,69,4.8,75,10.8,75h178.3c6,0,10.8-6,10.8-13.4V13.4C200,6,195.1,0,189.2,0H10.8C4.8,0,0,6,0,13.4
	V61.6z"/>
<path class="st1" d="M21.6,34.1c-0.4-0.5-0.9-0.9-1.5-1.2c-0.6-0.3-1.3-0.4-1.9-0.4c-1.5,0-2.9,0.6-3.9,1.7
	c-0.5,0.5-0.9,1.2-1.1,1.8c-0.3,0.7-0.4,1.5-0.4,2.2s0.1,1.4,0.3,2.1c0.2,0.7,0.6,1.2,1.1,1.7c0.5,0.5,1,0.9,1.7,1.2
	c0.7,0.3,1.5,0.4,2.2,0.4s1.5-0.1,2.1-0.5c0.6-0.4,1.1-0.8,1.6-1.4l1.6,1.2c-0.2,0.2-0.3,0.4-0.5,0.6c-0.3,0.3-0.7,0.6-1.1,0.8
	c-0.5,0.3-1.1,0.5-1.6,0.7c-0.7,0.2-1.4,0.3-2.1,0.3c-1.1,0-2.1-0.2-3-0.7c-1.7-0.8-3.1-2.2-3.8-3.9c-0.3-0.8-0.5-1.7-0.5-2.5
	c0-1,0.2-2,0.5-3c0.3-0.9,0.9-1.7,1.5-2.3s1.5-1.2,2.3-1.5c0.9-0.4,2-0.6,3-0.6c0.9,0,1.9,0.1,2.7,0.5c0.9,0.4,1.7,0.9,2.2,1.6
	L21.6,34.1z"/>
<path class="st1" d="M100.3,30.6h2.9v12.7h9.7v1.8h-12.6C100.3,45.2,100.3,30.6,100.3,30.6z"/>
<path class="st1" d="M82.1,30.8h12.1v1.8h-9.6V37h8.9v1.9h-8.9v4.7h10.1v1.8H82.1V30.8z"/>
<path class="st1" d="M32.7,30.2h1.6l5.4,14.6h-2l-1.3-3.6h-6l-1.3,3.6h-2L32.7,30.2z M35.8,39.4l-2.4-6.6l0,0L31,39.5L35.8,39.4
	C35.8,39.5,35.8,39.4,35.8,39.4z"/>
<path class="st1" d="M45.7,30.9h2.6l8,12l0,0v-12h2v14.5h-2.5l-8.1-11.9l0,0v12h-2L45.7,30.9z"/>
<path class="st1" d="M74,34.1c-0.4-0.5-0.9-0.9-1.5-1.2c-0.6-0.3-1.3-0.4-1.9-0.4c-1.5,0-2.9,0.6-3.9,1.7c-0.5,0.5-0.9,1.2-1.1,1.8
	c-0.3,0.7-0.4,1.5-0.4,2.2s0.1,1.4,0.3,2.1c0.2,0.7,0.6,1.2,1.1,1.7c0.5,0.5,1,0.9,1.7,1.2c0.7,0.3,1.5,0.4,2.2,0.4s1.5-0.1,2.1-0.5
	c0.6-0.4,1.1-0.8,1.6-1.4l1.6,1.2c-0.2,0.2-0.3,0.4-0.5,0.6c-0.3,0.3-0.7,0.6-1.1,0.8c-0.5,0.3-1.1,0.5-1.6,0.7
	c-0.7,0.2-1.4,0.3-2.1,0.3c-1.1,0-2.1-0.2-3-0.7c-1.7-0.8-3.1-2.2-3.8-3.9c-0.3-0.8-0.5-1.7-0.5-2.5c0-1,0.2-2,0.5-3
	c0.3-0.9,0.9-1.7,1.5-2.3c0.7-0.7,1.5-1.2,2.3-1.5c0.9-0.4,2-0.6,3-0.6c0.9,0,1.9,0.1,2.7,0.5s1.7,0.9,2.2,1.6L74,34.1z"/>
<g id="Layer_4">
	<g id="XMLID_2_" class="st2">
		<g class="st3">
			<g>
				<path class="st1" d="M166.5,30.5c0,0.5,0.3,0.8,0.7,0.8l0,0c0.4,0,0.7-0.3,0.7-0.8v-6.5c0-0.5-0.3-0.8-0.7-0.8l0,0
					c-0.4,0-0.7,0.3-0.7,0.8V30.5z"/>
				<path class="st1" d="M166.5,56.2c0,0.5,0.3,0.8,0.7,0.8l0,0c0.4,0,0.7-0.3,0.7-0.8v-6.5c0-0.5-0.3-0.8-0.7-0.8l0,0
					c-0.4,0-0.7,0.3-0.7,0.8V56.2z"/>
			</g>
			<g>
				<path class="st1" d="M158.5,40.9c0.4,0,0.7-0.3,0.7-0.8l0,0c0-0.5-0.3-0.8-0.7-0.8h-6c-0.4,0-0.7,0.3-0.7,0.8l0,0
					c0,0.5,0.3,0.8,0.7,0.8H158.5z"/>
				<path class="st1" d="M182.1,40.9c0.4,0,0.7-0.3,0.7-0.8l0,0c0-0.5-0.3-0.8-0.7-0.8h-5.9c-0.4,0-0.7,0.3-0.7,0.8l0,0
					c0,0.5,0.3,0.8,0.7,0.8H182.1z"/>
			</g>
		</g>
		<g class="st3">
			<g>
				<path class="st1" d="M170,30.9c-0.1,0.5,0,0.8,0.4,0.9l0,0c0.4,0.2,0.7,0,0.9-0.5l2.4-5.9c0.1-0.5,0-0.8-0.4-0.9l0,0
					c-0.4-0.2-0.7,0-0.9,0.5L170,30.9z"/>
				<path class="st1" d="M161,54.8c-0.1,0.5,0,0.8,0.4,0.9l0,0c0.4,0.2,0.7,0,0.9-0.5l2.2-6c0.1-0.5,0-0.8-0.4-0.9l0,0
					c-0.4-0.2-0.7,0-0.9,0.5L161,54.8z"/>
			</g>
			<g>
				<path class="st1" d="M158.9,37.1c0.4,0.2,0.7,0,0.9-0.5l0,0c0.1-0.5,0-0.8-0.4-0.9l-5.4-2.5c-0.4-0.2-0.7,0-0.9,0.5l0,0
					c-0.1,0.5,0,0.8,0.4,0.9L158.9,37.1z"/>
				<path class="st1" d="M180.7,47.1c0.4,0.2,0.7,0,0.9-0.5l0,0c0.1-0.5,0-0.8-0.4-0.9l-5.5-2.5c-0.4-0.2-0.7,0-0.9,0.5l0,0
					c-0.1,0.5,0,0.8,0.4,0.9L180.7,47.1z"/>
			</g>
		</g>
		<g class="st3">
			<g>
				<path class="st1" d="M173.1,32.8c-0.3,0.3-0.3,0.8,0,1.1l0,0c0.3,0.3,0.7,0.3,1,0l4.3-4.6c0.3-0.3,0.3-0.8,0-1.1l0,0
					c-0.3-0.3-0.7-0.3-1,0L173.1,32.8z"/>
				<path class="st1" d="M156.3,51c-0.3,0.3-0.3,0.8,0,1.1l0,0c0.3,0.3,0.7,0.3,1,0l4.3-4.6c0.3-0.3,0.3-0.8,0-1.1l0,0
					c-0.3-0.3-0.7-0.3-1,0L156.3,51z"/>
			</g>
			<g>
				<path class="st1" d="M160.6,33.9c0.3,0.3,0.7,0.3,1,0l0,0c0.3-0.3,0.3-0.8,0-1.1l-4.3-4.6c-0.3-0.3-0.7-0.3-1,0l0,0
					c-0.3,0.3-0.3,0.8,0,1.1L160.6,33.9z"/>
				<path class="st1" d="M177.2,52c0.3,0.3,0.7,0.3,1,0l0,0c0.3-0.3,0.3-0.8,0-1.1l-4.3-4.6c-0.3-0.3-0.7-0.3-1,0l0,0
					c-0.3,0.3-0.3,0.8,0,1.1L177.2,52z"/>
			</g>
		</g>
		<g class="st3">
			<g>
				<path class="st1" d="M175.2,35.8c-0.4,0.2-0.6,0.6-0.4,0.9l0,0c0.1,0.5,0.6,0.6,0.9,0.5l5.5-2.5c0.4-0.2,0.6-0.6,0.4-0.9l0,0
					c-0.1-0.5-0.6-0.6-0.9-0.5L175.2,35.8z"/>
				<path class="st1" d="M153.4,45.5c-0.4,0.2-0.6,0.6-0.4,0.9l0,0c0.1,0.5,0.6,0.6,0.9,0.5l5.6-2.5c0.4-0.2,0.6-0.6,0.4-0.9l0,0
					c-0.1-0.5-0.6-0.6-0.9-0.5L153.4,45.5z"/>
			</g>
			<g>
				<path class="st1" d="M163.3,31.6c0.1,0.5,0.6,0.6,0.9,0.5l0,0c0.4-0.2,0.6-0.6,0.4-0.9l-2.2-6.2c-0.1-0.5-0.6-0.6-1-0.5l0,0
					c-0.3,0.2-0.4,0.6-0.3,1.1L163.3,31.6z"/>
				<path class="st1" d="M172.4,55.3c0.1,0.5,0.6,0.6,0.9,0.5l0,0c0.4-0.2,0.6-0.6,0.4-0.9l-2.2-6c-0.1-0.5-0.6-0.6-1-0.5l0,0
					c-0.4,0.2-0.6,0.6-0.4,0.9L172.4,55.3z"/>
			</g>
		</g>
	</g>
	<g id="XMLID_8_">
		<g id="XMLID_11_">
			<polygon id="XMLID_14_" class="st1" points="151.2,52.4 179.1,21.9 182.3,25.4 154.4,55.9 			"/>
		</g>
		<polygon id="XMLID_10_" class="st1" points="179.4,55.7 151.5,25.3 154.7,21.8 182.5,52.2 		"/>
	</g>
</g>
</svg>
