<?xml version="1.0" encoding="utf-8"?>
<!-- Generator: Adobe Illustrator 19.0.0, SVG Export Plug-In . SVG Version: 6.00 Build 0)  -->
<svg version="1.1" id="Layer_1" xmlns="http://www.w3.org/2000/svg" xmlns:xlink="http://www.w3.org/1999/xlink" x="0px" y="0px"
	 width="40px" height="40px" viewBox="0 0 40 40" style="enable-background:new 0 0 40 40;" xml:space="preserve">
<style type="text/css">
	.st0{fill:#616161;}
	.st1{fill:#FFFFFF;}
</style>
<g id="XMLID_2_">
	<path id="XMLID_4_" class="st0" d="M28,40H12C5.4,40,0,34.6,0,28V12C0,5.4,5.4,0,12,0h16c6.6,0,12,5.4,12,12v16
		C40,34.6,34.6,40,28,40z"/>
	<path id="XMLID_3_" class="st1" d="M27.8,7.7c-4.7,5.8-8.4,12.3-11.5,19.1c-1.3-1.7-2.5-3.4-3.8-5.2c-1.2-1.6-6.1,0.2-4.7,2.1
		c2.2,3,4.3,5.9,6.5,8.9c1,1.3,4.2,0.4,4.8-0.9c3.5-8,7.4-16,13-22.8C34,6.4,29.1,6.2,27.8,7.7z"/>
</g>
</svg>
