<?xml version="1.0" encoding="utf-8"?>
<!-- Generator: Adobe Illustrator 19.0.0, SVG Export Plug-In . SVG Version: 6.00 Build 0)  -->
<svg version="1.1" id="Layer_1" xmlns="http://www.w3.org/2000/svg" xmlns:xlink="http://www.w3.org/1999/xlink" x="0px" y="0px"
	 width="20px" height="20px" viewBox="0 0 20 20" style="enable-background:new 0 0 20 20;" xml:space="preserve">
<style type="text/css">
	.st0{fill:#2E303A;}
	.st1{fill:#F3F3F3;}
</style>
<g id="Profile_Picture">
	<g>
		<path id="XMLID_20_" class="st0" d="M15,20H5c-2.7,0-5-2.2-5-5L0,5c0-2.7,2.2-5,5-5l10,0c2.7,0,5,2.2,5,5v10
			C20,17.8,17.8,20,15,20z"/>
	</g>
	<g>
		<g>
			<path id="XMLID_18_" class="st1" d="M15.1,17.1H4.5c-0.8,0-1.4-0.6-1.4-1.4v-2c0-0.8,0.6-1.4,1.4-1.4h10.6c0.8,0,1.4,0.6,1.4,1.4
				v2C16.5,16.5,15.9,17.1,15.1,17.1z"/>
		</g>
		<g>
			<path id="XMLID_15_" class="st1" d="M9.8,13.8c-2.3,0-4.1-2.3-4.1-5.1c0-2.8,1.8-5.1,4.1-5.1c2.3,0,4.1,2.3,4.1,5.1
				C13.9,11.5,12.1,13.8,9.8,13.8z"/>
			<path id="XMLID_12_" class="st0" d="M9.8,4c2.1,0,3.7,2.1,3.7,4.7s-1.7,4.7-3.7,4.7s-3.7-2.1-3.7-4.7S7.8,4,9.8,4 M9.8,3.2
				c-2.5,0-4.5,2.4-4.5,5.5c0,3,2,5.5,4.5,5.5s4.5-2.4,4.5-5.5C14.3,5.7,12.3,3.2,9.8,3.2L9.8,3.2z"/>
		</g>
	</g>
</g>
</svg>
