<?xml version="1.0" encoding="utf-8"?>
<!-- Generator: Adobe Illustrator 19.0.0, SVG Export Plug-In . SVG Version: 6.00 Build 0)  -->
<svg version="1.1" id="Layer_1" xmlns="http://www.w3.org/2000/svg" xmlns:xlink="http://www.w3.org/1999/xlink" x="0px" y="0px"
	 width="25px" height="25px" viewBox="-293 384 25 25" style="enable-background:new -293 384 25 25;" xml:space="preserve">
<style type="text/css">
	.st0{display:none;}
	.st1{display:inline;stroke:#000000;stroke-miterlimit:10;}
	.st2{display:inline;}
	.st3{fill:#424244;}
	.st4{fill:#999A9B;}
	.st5{fill:#C6C6C7;}
	.st6{fill:#6E6E70;}
	.st7{fill:#4D4D4F;}
	.st8{fill:#A4A5A6;}
	.st9{fill:#D1D2D2;}
	.st10{fill:#79797B;}
	.st11{fill:#58585A;}
	.st12{fill:#B0B0B2;}
	.st13{fill:#DBDCDD;}
	.st14{fill:#838385;}
	.st15{fill:#636365;}
	.st16{fill:#BABBBC;}
	.st17{fill:#E7E7E7;}
	.st18{fill:#8F8F90;}
	.st19{fill:#53C9ED;}
	.st20{fill:#616161;}
	.st21{display:inline;fill:#616161;}
	.st22{display:inline;fill:none;}
	.st23{display:none;fill:#616161;}
	.st24{display:none;fill:#A8D15F;}
	.st25{fill:#EE8D2F;}
</style>
<g id="Layer_1_1_" class="st0">
</g>
<g id="Layer_2" class="st0">
	<rect id="XMLID_1_" x="-293" y="383.6" class="st1" width="25.4" height="25.4"/>
</g>
<g id="Layer_3" class="st0">
	<g id="XMLID_3_" class="st2">
		<g id="XMLID_49_">
			<g id="XMLID_57_">
				<path id="XMLID_61_" class="st3" d="M-281.5,390.9c0,0.3,0.2,0.5,0.5,0.5l0,0c0.3,0,0.5-0.2,0.5-0.5v-4.3c0-0.3-0.2-0.5-0.5-0.5
					l0,0c-0.3,0-0.5,0.2-0.5,0.5V390.9z"/>
				<path id="XMLID_58_" class="st4" d="M-281.5,407.5c0,0.3,0.2,0.5,0.5,0.5l0,0c0.3,0,0.5-0.2,0.5-0.5v-4.2c0-0.3-0.2-0.5-0.5-0.5
					l0,0c-0.3,0-0.5,0.2-0.5,0.5V407.5z"/>
			</g>
			<g id="XMLID_50_">
				<path id="XMLID_54_" class="st5" d="M-287.3,397.6c0.3,0,0.5-0.2,0.5-0.5l0,0c0-0.3-0.2-0.5-0.5-0.5h-4.2
					c-0.3,0-0.5,0.2-0.5,0.5l0,0c0,0.3,0.2,0.5,0.5,0.5H-287.3z"/>
				<path id="XMLID_51_" class="st6" d="M-270.6,397.6c0.3,0,0.5-0.2,0.5-0.5l0,0c0-0.3-0.2-0.5-0.5-0.5h-4.2
					c-0.3,0-0.5,0.2-0.5,0.5l0,0c0,0.3,0.2,0.5,0.5,0.5H-270.6z"/>
			</g>
		</g>
		<g id="XMLID_34_">
			<g id="XMLID_42_">
				<path id="XMLID_46_" class="st7" d="M-279.1,391.1c-0.1,0.3,0,0.5,0.3,0.6l0,0c0.3,0.1,0.5,0,0.6-0.3l1.6-3.9
					c0.1-0.3,0-0.5-0.3-0.6l0,0c-0.3-0.1-0.5,0-0.6,0.3L-279.1,391.1z"/>
				<path id="XMLID_43_" class="st8" d="M-285.5,406.5c-0.1,0.3,0,0.5,0.3,0.6l0,0c0.3,0.1,0.5,0,0.6-0.3l1.6-3.8
					c0.1-0.3,0-0.5-0.3-0.6l0,0c-0.3-0.1-0.5,0-0.6,0.3L-285.5,406.5z"/>
			</g>
			<g id="XMLID_35_">
				<path id="XMLID_39_" class="st9" d="M-287,395.1c0.3,0.1,0.5,0,0.6-0.3l0,0c0.1-0.3,0-0.5-0.3-0.6l-3.8-1.6
					c-0.2-0.1-0.5,0-0.6,0.3l0,0c-0.1,0.3,0,0.5,0.3,0.6L-287,395.1z"/>
				<path id="XMLID_36_" class="st10" d="M-271.6,401.5c0.3,0.1,0.5,0,0.6-0.3l0,0c0.1-0.3,0-0.5-0.3-0.6l-3.8-1.6
					c-0.3-0.1-0.5,0-0.6,0.3l0,0c-0.1,0.3,0,0.5,0.3,0.6L-271.6,401.5z"/>
			</g>
		</g>
		<g id="XMLID_19_">
			<g id="XMLID_27_">
				<path id="XMLID_31_" class="st11" d="M-277,392.3c-0.2,0.2-0.2,0.5,0,0.7l0,0c0.2,0.2,0.5,0.2,0.7,0l3-3c0.2-0.2,0.2-0.5,0-0.7
					l0,0c-0.2-0.2-0.5-0.2-0.7,0L-277,392.3z"/>
				<path id="XMLID_28_" class="st12" d="M-288.8,404.1c-0.2,0.2-0.2,0.5,0,0.7l0,0c0.2,0.2,0.5,0.2,0.7,0l3-3
					c0.2-0.2,0.2-0.5,0-0.7l0,0c-0.2-0.2-0.5-0.2-0.7,0L-288.8,404.1z"/>
			</g>
			<g id="XMLID_20_">
				<path id="XMLID_24_" class="st13" d="M-285.8,393c0.2,0.2,0.5,0.2,0.7,0l0,0c0.2-0.2,0.2-0.5,0-0.7l-3-3c-0.2-0.2-0.5-0.2-0.7,0
					l0,0c-0.2,0.2-0.2,0.6,0,0.7L-285.8,393z"/>
				<path id="XMLID_21_" class="st14" d="M-274,404.8c0.2,0.2,0.5,0.2,0.7,0l0,0c0.2-0.2,0.2-0.5,0-0.7l-3-3c-0.2-0.2-0.5-0.2-0.7,0
					l0,0c-0.2,0.2-0.2,0.5,0,0.7L-274,404.8z"/>
			</g>
		</g>
		<g id="XMLID_4_">
			<g id="XMLID_12_">
				<path id="XMLID_16_" class="st15" d="M-275.5,394.2c-0.3,0.1-0.4,0.4-0.3,0.6l0,0c0.1,0.3,0.4,0.4,0.6,0.3l3.9-1.6
					c0.3-0.1,0.5-0.4,0.3-0.6l0,0c-0.1-0.3-0.4-0.4-0.6-0.3L-275.5,394.2z"/>
				<path id="XMLID_13_" class="st16" d="M-290.9,400.6c-0.3,0.1-0.4,0.4-0.3,0.6l0,0c0.1,0.3,0.4,0.4,0.6,0.3l3.9-1.6
					c0.3-0.1,0.4-0.4,0.3-0.6l0,0c0-0.3-0.3-0.4-0.6-0.3L-290.9,400.6z"/>
			</g>
			<g id="XMLID_5_">
				<path id="XMLID_9_" class="st17" d="M-283.9,391.5c0.1,0.3,0.4,0.4,0.6,0.3l0,0c0.3-0.1,0.4-0.4,0.3-0.7l-1.6-3.9
					c-0.1-0.2-0.4-0.3-0.6-0.2l0,0c-0.3,0.1-0.4,0.4-0.3,0.6L-283.9,391.5z"/>
				<path id="XMLID_6_" class="st18" d="M-277.5,406.9c0.1,0.3,0.4,0.4,0.6,0.3l0,0c0.3-0.1,0.4-0.4,0.3-0.6l-1.6-3.9
					c-0.1-0.3-0.4-0.4-0.6-0.3l0,0c-0.3,0.1-0.4,0.4-0.3,0.6L-277.5,406.9z"/>
			</g>
		</g>
	</g>
</g>
<g id="Layer_4">
	<g id="XMLID_2_" class="st0">
		<g class="st2">
			<g>
				<path class="st19" d="M-281,390.5c0,0.3,0.2,0.5,0.5,0.5l0,0c0.3,0,0.5-0.2,0.5-0.5v-4.2c0-0.3-0.2-0.5-0.5-0.5l0,0
					c-0.3,0-0.5,0.2-0.5,0.5V390.5z"/>
				<path class="st19" d="M-281,407.1c0,0.3,0.2,0.5,0.5,0.5l0,0c0.3,0,0.5-0.2,0.5-0.5v-4.2c0-0.3-0.2-0.5-0.5-0.5l0,0
					c-0.3,0-0.5,0.2-0.5,0.5V407.1z"/>
			</g>
			<g>
				<path class="st19" d="M-286.7,397.2c0.3,0,0.5-0.2,0.5-0.5l0,0c0-0.3-0.2-0.5-0.5-0.5h-4.2c-0.3,0-0.5,0.2-0.5,0.5l0,0
					c0,0.3,0.2,0.5,0.5,0.5H-286.7z"/>
				<path class="st19" d="M-270,397.2c0.3,0,0.5-0.2,0.5-0.5l0,0c0-0.3-0.2-0.5-0.5-0.5h-4.2c-0.3,0-0.5,0.2-0.5,0.5l0,0
					c0,0.3,0.2,0.5,0.5,0.5H-270z"/>
			</g>
		</g>
		<g class="st2">
			<g>
				<path class="st19" d="M-278.6,390.8c-0.1,0.3,0,0.5,0.3,0.6l0,0c0.3,0.1,0.5,0,0.6-0.3l1.7-3.8c0.1-0.3,0-0.5-0.3-0.6l0,0
					c-0.3-0.1-0.5,0-0.6,0.3L-278.6,390.8z"/>
				<path class="st19" d="M-284.9,406.2c-0.1,0.3,0,0.5,0.3,0.6l0,0c0.3,0.1,0.5,0,0.6-0.3l1.6-3.9c0.1-0.3,0-0.5-0.3-0.6l0,0
					c-0.3-0.1-0.5,0-0.6,0.3L-284.9,406.2z"/>
			</g>
			<g>
				<path class="st19" d="M-286.4,394.8c0.3,0.1,0.5,0,0.6-0.3l0,0c0.1-0.3,0-0.5-0.3-0.6l-3.8-1.6c-0.3-0.1-0.5,0-0.6,0.3l0,0
					c-0.1,0.3,0,0.5,0.3,0.6L-286.4,394.8z"/>
				<path class="st19" d="M-271,401.2c0.3,0.1,0.5,0,0.6-0.3l0,0c0.1-0.3,0-0.5-0.3-0.6l-3.9-1.6c-0.3-0.1-0.5,0-0.6,0.3l0,0
					c-0.1,0.3,0,0.5,0.3,0.6L-271,401.2z"/>
			</g>
		</g>
		<g class="st2">
			<g>
				<path class="st19" d="M-276.4,392c-0.2,0.2-0.2,0.5,0,0.7l0,0c0.2,0.2,0.5,0.2,0.7,0l3-3c0.2-0.2,0.2-0.5,0-0.7l0,0
					c-0.2-0.2-0.5-0.2-0.7,0L-276.4,392z"/>
				<path class="st19" d="M-288.2,403.7c-0.2,0.2-0.2,0.5,0,0.7l0,0c0.2,0.2,0.5,0.2,0.7,0l3-3c0.2-0.2,0.2-0.5,0-0.7l0,0
					c-0.2-0.2-0.5-0.2-0.7,0L-288.2,403.7z"/>
			</g>
			<g>
				<path class="st19" d="M-285.2,392.7c0.2,0.2,0.5,0.2,0.7,0l0,0c0.2-0.2,0.2-0.5,0-0.7l-3-3c-0.2-0.2-0.5-0.2-0.7,0l0,0
					c-0.2,0.2-0.2,0.5,0,0.7L-285.2,392.7z"/>
				<path class="st19" d="M-273.5,404.4c0.2,0.2,0.5,0.2,0.7,0l0,0c0.2-0.2,0.2-0.5,0-0.7l-3-3c-0.2-0.2-0.5-0.2-0.7,0l0,0
					c-0.2,0.2-0.2,0.5,0,0.7L-273.5,404.4z"/>
			</g>
		</g>
		<g class="st2">
			<g>
				<path class="st19" d="M-274.9,393.9c-0.3,0.1-0.4,0.4-0.3,0.6l0,0c0.1,0.3,0.4,0.4,0.6,0.3l3.9-1.6c0.3-0.1,0.4-0.4,0.3-0.6l0,0
					c-0.1-0.3-0.4-0.4-0.6-0.3L-274.9,393.9z"/>
				<path class="st19" d="M-290.3,400.2c-0.3,0.1-0.4,0.4-0.3,0.6l0,0c0.1,0.3,0.4,0.4,0.6,0.3l4-1.6c0.3-0.1,0.4-0.4,0.3-0.6l0,0
					c-0.1-0.3-0.4-0.4-0.6-0.3L-290.3,400.2z"/>
			</g>
			<g>
				<path class="st19" d="M-283.3,391.2c0.1,0.3,0.4,0.4,0.6,0.3l0,0c0.3-0.1,0.4-0.4,0.3-0.6l-1.6-4c-0.1-0.3-0.4-0.4-0.7-0.3l0,0
					c-0.2,0.1-0.3,0.4-0.2,0.7L-283.3,391.2z"/>
				<path class="st19" d="M-276.9,406.5c0.1,0.3,0.4,0.4,0.6,0.3l0,0c0.3-0.1,0.4-0.4,0.3-0.6l-1.6-3.9c-0.1-0.3-0.4-0.4-0.7-0.3
					l0,0c-0.3,0.1-0.4,0.4-0.3,0.6L-276.9,406.5z"/>
			</g>
		</g>
	</g>
	<g id="XMLID_8_" class="st0">
		<g id="XMLID_11_" class="st2">
			
				<rect id="XMLID_14_" x="-294.8" y="394.3" transform="matrix(-0.7071 0.7071 -0.7071 -0.7071 -199.4984 874.5101)" class="st20" width="27.8" height="3.2"/>
		</g>
		
			<rect id="XMLID_10_" x="-294.5" y="394.2" transform="matrix(0.7071 0.7071 -0.7071 0.7071 197.7013 314.3828)" class="st21" width="27.8" height="3.2"/>
	</g>
	<g id="XMLID_7_" class="st0">
		<circle class="st22" cx="-281" cy="396.7" r="10"/>
		
			<rect x="-291" y="395.6" transform="matrix(0.7071 -0.7071 0.7071 0.7071 -362.8313 -82.4786)" class="st21" width="20.1" height="2.2"/>
		<path class="st21" d="M-273.2,404.4c4.2-4.2,4.2-11.2,0-15.4c-4.2-4.2-11.2-4.3-15.5,0c-4.3,4.2-4.3,11.2,0,15.4
			C-284.4,408.7-277.5,408.7-273.2,404.4z M-287.4,390.2c3.6-3.6,9.4-3.6,12.9,0c3.6,3.6,3.6,9.4,0,12.9c-3.6,3.6-9.4,3.6-12.9,0
			S-291,393.8-287.4,390.2z"/>
	</g>
	<path id="XMLID_15_" class="st23" d="M-274.7,386.6c-3.9,4.8-6.9,10.1-9.5,15.7c-1-1.4-2.1-2.8-3.1-4.3c-1-1.3-5.1,0.2-3.9,1.8
		c1.8,2.4,3.6,4.9,5.4,7.3c0.8,1.1,3.5,0.4,4-0.7c2.8-6.7,6-13.2,10.6-18.9C-269.6,385.5-273.6,385.3-274.7,386.6z"/>
	<path id="XMLID_101_" class="st24" d="M-274.7,386.8c-3.9,4.8-6.9,10.1-9.5,15.7c-1-1.4-2.1-2.8-3.1-4.3c-1-1.3-5.1,0.2-3.9,1.8
		c1.8,2.4,3.6,4.9,5.4,7.3c0.8,1.1,3.5,0.4,4-0.7c2.8-6.7,6-13.2,10.6-18.9C-269.6,385.7-273.6,385.5-274.7,386.8z"/>
	<g id="XMLID_104_">
		<path id="XMLID_107_" class="st25" d="M-269,406.9h-23c-0.4,0-0.7-0.2-0.9-0.5c-0.2-0.3-0.2-0.7,0-1l11.5-19.9
			c0.2-0.3,0.5-0.5,0.9-0.5s0.7,0.2,0.9,0.5l11.5,19.8c0.2,0.3,0.2,0.7,0,1C-268.3,406.7-268.7,406.9-269,406.9z M-290.2,404.8h19.4
			l-9.7-16.7L-290.2,404.8z"/>
		<circle id="XMLID_106_" class="st25" cx="-280.5" cy="402.7" r="0.8"/>
		<path id="XMLID_105_" class="st25" d="M-279.5,392.7c0-0.5-0.4-0.9-1-0.9c-0.5,0-1,0.4-1,0.9l0,0l0,0l0.4,7.6
			c0,0.3,0.3,0.6,0.6,0.6s0.6-0.3,0.6-0.6L-279.5,392.7C-279.5,392.8-279.5,392.8-279.5,392.7C-279.5,392.8-279.5,392.7-279.5,392.7
			z"/>
	</g>
</g>
</svg>
