<?xml version="1.0" encoding="utf-8"?>
<!-- Generator: Adobe Illustrator 24.0.0, SVG Export Plug-In . SVG Version: 6.00 Build 0)  -->
<svg version="1.1" id="Layer_1" xmlns="http://www.w3.org/2000/svg" xmlns:xlink="http://www.w3.org/1999/xlink" x="0px" y="0px"
	 viewBox="0 0 200 75" style="enable-background:new 0 0 200 75;" xml:space="preserve">
<style type="text/css">
	.st0{fill:#20283E;}
	.st1{fill:#FFFFFF;}
	.st2{fill:none;stroke:#FFFFFF;stroke-linecap:round;stroke-linejoin:round;}
</style>
<title>Asset 7</title>
<path class="st0" d="M0,61.6C0,69,4.8,75,10.8,75h178.3c6,0,10.8-6,10.8-13.4V13.4C200,6,195.1,0,189.2,0H10.8C4.8,0,0,6,0,13.4
	V61.6z"/>
<path class="st1" d="M13.4,30.3h6.6c1,0,2,0.1,3,0.4c0.7,0.2,1.3,0.6,1.8,1c0.4,0.4,0.7,0.8,0.9,1.3c0.2,0.5,0.3,0.9,0.3,1.4
	c0,0.5-0.1,0.9-0.3,1.4c-0.2,0.5-0.5,0.9-0.9,1.3c-0.5,0.4-1.1,0.7-1.8,1c-1,0.3-2,0.4-3,0.4H16v6.4h-2.6V30.3z M16,36.7h3.4
	c0.5,0,1,0,1.5-0.1c0.5-0.1,0.9-0.2,1.3-0.3c0.4-0.2,0.7-0.4,0.9-0.7c0.5-0.8,0.5-1.6,0-2.4c-0.2-0.3-0.5-0.5-0.9-0.7
	c-0.4-0.2-0.8-0.3-1.3-0.4c-0.5-0.1-1-0.1-1.5-0.1H16V36.7z"/>
<path class="st1" d="M29.9,30.3h12.2v1.9h-9.6v4.3h9v1.9h-9V43h10.1v1.9H29.9L29.9,30.3z"/>
<path class="st1" d="M47,30.3h2.6l8,12h0v-12h2v14.6h-2.5l-8.1-12h0v12h-2V30.3z"/>
<path class="st1" d="M66,30.3h5c0.9,0,1.8,0.1,2.7,0.3c0.7,0.2,1.4,0.5,2,1c0.5,0.4,1,0.8,1.4,1.3c0.4,0.5,0.7,1,0.9,1.6
	c0.2,0.5,0.4,1.1,0.5,1.6c0.1,0.5,0.1,1,0.1,1.5c0,0.9-0.2,1.8-0.5,2.7c-0.3,0.9-0.9,1.7-1.5,2.3c-0.7,0.7-1.6,1.3-2.5,1.6
	c-1.1,0.4-2.2,0.6-3.4,0.6H66L66,30.3z M67.9,43h2.5c0.8,0,1.6-0.1,2.4-0.3c0.7-0.2,1.4-0.5,1.9-1c0.6-0.4,1-1,1.3-1.7
	c0.3-0.7,0.5-1.6,0.5-2.4c0-0.6-0.1-1.1-0.2-1.6c-0.2-0.6-0.4-1.3-0.8-1.8c-0.5-0.6-1-1.1-1.7-1.4c-0.9-0.4-1.9-0.6-2.9-0.6h-2.9V43
	z"/>
<path class="st1" d="M85.5,30.3h2.8v14.6h-2.8V30.3z"/>
<path class="st1" d="M95.4,30.3H98l8,12h0v-12h2v14.6h-2.5l-8.1-12h0v12h-2V30.3z"/>
<path class="st1" d="M124.6,36.7v6.8c-0.4,0.2-0.7,0.4-1.1,0.5c-0.4,0.2-0.9,0.3-1.3,0.4c-0.5,0.1-0.9,0.2-1.4,0.2
	c-0.4,0.1-0.9,0.1-1.3,0.1c-1.1,0-2.1-0.2-3.1-0.6c-0.9-0.4-1.7-0.9-2.3-1.6c-0.6-0.7-1.1-1.5-1.4-2.3c-0.3-0.9-0.5-1.8-0.5-2.8
	c0-1,0.2-2,0.5-2.9c0.3-0.9,0.8-1.6,1.5-2.3c0.6-0.7,1.4-1.2,2.3-1.5c0.9-0.4,1.9-0.6,2.9-0.6c1.1,0,2.1,0.1,3.1,0.5
	c0.8,0.3,1.5,0.7,2,1.3l-1.3,1.4c-0.5-0.5-1.1-0.9-1.8-1.2c-0.6-0.2-1.3-0.3-2-0.3c-0.7,0-1.5,0.1-2.1,0.4c-1.3,0.6-2.2,1.6-2.7,2.9
	c-0.2,0.7-0.4,1.4-0.4,2.1c0,0.7,0.1,1.5,0.4,2.2c0.3,0.7,0.6,1.3,1.1,1.8c0.5,0.5,1.1,0.9,1.7,1.2c0.7,0.3,1.4,0.4,2.1,0.4
	c0.6,0,1.3-0.1,1.9-0.2c0.5-0.1,1-0.3,1.5-0.5v-3.8h-3.1v-1.8H124.6z"/>
<path class="st2" d="M178.4,27.9c4.8,2.1,8.2,6.6,8.2,11.6c0,7.1-6.3,12.9-14.1,12.9s-14.1-5.7-14.1-12.9s6.3-12.9,14.1-12.9
	 M154.2,39.5c0,9.2,8.2,16.5,18.1,16.5c10.1,0,18.1-7.5,18.1-16.5S182.2,23,172.3,23S154.2,30.5,154.2,39.5z M172.5,20.5V23
	 M175.8,18.1h-6.7v2.4h6.7V18.1z M186.6,23l2.7,2.4 M184.5,27.4l3.5-3.1 M172.5,29.1v1.2 M167.3,31.5l-0.6-1 M163.7,35l-1.1-0.7
	 M162.4,39.5H161 M163.7,44.2l-1.1,0.7 M167.3,47.5l-0.8,1 M172.5,48.7V50 M178.2,48.6l-0.8-1 M181.1,44.3l1.1,0.7 M184,39.5h-1.3
	 M182.5,34.3l-1.1,0.7 M178.3,30.5l-0.8,1 M172.5,39.5v-6.8"/>
</svg>
