<?xml version="1.0" encoding="utf-8"?>
<!-- Generator: Adobe Illustrator 24.0.0, SVG Export Plug-In . SVG Version: 6.00 Build 0)  -->
<svg version="1.1" id="Layer_1" xmlns="http://www.w3.org/2000/svg" xmlns:xlink="http://www.w3.org/1999/xlink" x="0px" y="0px"
	 viewBox="0 0 200 75" style="enable-background:new 0 0 200 75;" xml:space="preserve">
<style type="text/css">
	.st0{fill:#A91F00;}
	.st1{fill:none;}
	.st2{fill:#FFFFFF;}
</style>
<title>Asset 10</title>
<path class="st0" d="M0,61.6C0,69,4.8,75,10.8,75h178.3c6,0,10.8-6,10.8-13.4V13.4C200,6,195.1,0,189.2,0H10.8C4.8,0,0,6,0,13.4
	V61.6z"/>
<g id="Layer_4">
	<ellipse class="st1" cx="173.5" cy="35" rx="19.2" ry="19.3"/>
	<polygon class="st2" points="188.7,22.8 161.4,50.2 158.4,47.2 185.7,19.8 	"/>
	<path class="st2" d="M188.5,49.8c8-8.2,8.1-21.4,0-29.6l0,0c-8.3-8.2-21.5-8.2-29.8,0c-8,7.9-8.3,20.9-0.5,29.1
		c0.2,0.2,0.3,0.4,0.5,0.5C167,58.1,180.2,58.1,188.5,49.8z M161.2,22.4c6.9-6.9,17.9-6.9,24.8,0c6.7,6.6,6.9,17.5,0.4,24.4
		c-0.1,0.2-0.3,0.3-0.4,0.4c-6.8,6.9-17.9,6.9-24.8,0c-6.7-6.7-6.8-17.8-0.2-24.6C161.1,22.6,161.2,22.5,161.2,22.4z"/>
</g>
<path class="st2" d="M18.8,29.9h1.5l5.5,14.6h-2l-1.3-3.7h-6.1l-1.2,3.6h-2L18.8,29.9z M21.9,39.1l-2.4-6.7l0,0l-2.4,6.7H21.9z"/>
<path class="st2" d="M28.6,29.9h6.4c0.8,0,1.5,0.1,2.2,0.2c0.7,0.2,1.3,0.4,1.7,0.7c0.5,0.3,0.9,0.7,1.2,1.1
	c0.3,0.5,0.5,1.1,0.4,1.6c0,0.8-0.3,1.4-0.9,2.1c-0.6,0.5-1.4,0.9-2.3,1.1v0.1c0.6,0,1.1,0.2,1.5,0.3c0.5,0.2,0.9,0.5,1.3,0.8
	c0.4,0.3,0.6,0.7,0.8,1.1c0.2,0.5,0.3,0.9,0.3,1.4c0,0.6-0.2,1.2-0.5,1.8c-0.3,0.5-0.8,0.9-1.3,1.3s-1.3,0.6-2,0.8
	c-0.8,0.2-1.6,0.3-2.5,0.2h-6.3C28.6,44.4,28.6,29.9,28.6,29.9z M31.2,35.9h3.4c0.5,0,0.9,0,1.3-0.2c0.4-0.1,0.8-0.2,1.2-0.4
	c0.3-0.2,0.6-0.4,0.8-0.7s0.3-0.7,0.2-1c0.1-1.1-1.1-2.1-2.5-2.1c-0.1,0-0.3,0-0.4,0h-3.9V35.9z M31.2,42.7h3.7c0.4,0,0.9,0,1.3-0.1
	c0.5-0.1,0.9-0.2,1.3-0.4s0.7-0.5,1-0.8c0.3-0.4,0.5-0.8,0.4-1.2c0.1-0.8-0.3-1.4-1.1-1.9c-0.9-0.5-1.8-0.7-2.9-0.6h-3.6V42.7z"/>
<path class="st2" d="M51.1,44.4c-0.9,0-1.7-0.1-2.6-0.6c-0.8-0.4-1.4-0.9-2-1.5c-0.6-0.7-1-1.5-1.3-2.3c-0.6-1.8-0.6-3.9,0-5.7
	c0.3-0.9,0.7-1.7,1.3-2.3c0.6-0.7,1.2-1.2,2-1.5c1.7-0.7,3.5-0.7,5.1,0c0.8,0.4,1.4,0.9,2,1.5c0.6,0.7,1,1.5,1.3,2.3
	c0.6,1.8,0.6,3.9,0,5.7c-0.3,0.9-0.7,1.7-1.3,2.3c-0.6,0.7-1.3,1.2-2,1.5C52.8,44.2,52,44.4,51.1,44.4z M51.1,42.6
	c1.3,0,2.5-0.6,3.3-1.6c0.4-0.5,0.7-1.1,1-1.7c0.4-1.4,0.4-2.9,0-4.3c-0.2-0.7-0.5-1.2-1-1.7c-0.4-0.5-0.9-0.9-1.5-1.2
	c-2.2-1.2-4.9-0.1-6,2.5c-0.1,0.1-0.1,0.3-0.2,0.4c-0.4,1.4-0.4,2.9,0,4.3c0.4,1.3,1.3,2.3,2.4,2.9C49.8,42.5,50.5,42.6,51.1,42.6z"
	/>
<path class="st2" d="M61.3,29.9h6.3c0.9,0,1.9,0.1,2.8,0.4c0.7,0.2,1.2,0.5,1.8,1c0.5,0.4,0.7,0.8,0.9,1.3s0.3,0.9,0.3,1.4
	c0,0.9-0.4,1.8-1.2,2.5c-0.4,0.4-0.8,0.7-1.4,0.9s-1.2,0.4-1.9,0.5l5,6.6h-3L66.4,38h-2.7v6.4h-2.4V29.9z M63.7,36.3h3.2
	c0.5,0,0.9,0,1.4-0.1s0.8-0.2,1.2-0.4c0.4-0.2,0.7-0.4,0.8-0.7c0.3-0.4,0.4-0.8,0.3-1.2c0-0.4-0.1-0.8-0.3-1.2
	c-0.2-0.3-0.5-0.5-0.8-0.7c-0.4-0.2-0.8-0.3-1.2-0.3c-0.5-0.1-0.9-0.1-1.4-0.1h-3.2V36.3z"/>
<path class="st2" d="M82.9,31.7h-5.2v-1.8h12.6v1.8h-5.2v12.7H83L82.9,31.7L82.9,31.7z"/>
<path class="st2" d="M94.3,29.8h12.1v1.8h-9.5V36h8.9v1.8h-8.9v4.7h10v1.8H94.3V29.8z"/>
<path class="st2" d="M110.2,29.8h5.1c0.9,0,1.8,0.1,2.6,0.4c0.7,0.2,1.4,0.5,2,0.9c0.5,0.4,1,0.8,1.4,1.4c0.4,0.5,0.7,1,0.9,1.5
	s0.4,1.1,0.5,1.6c0.1,0.5,0.2,1,0.2,1.5c0,0.9-0.2,1.8-0.5,2.7s-0.8,1.6-1.5,2.3s-1.6,1.3-2.5,1.7c-1.1,0.5-2.3,0.6-3.4,0.6h-4.7
	V29.8z M112.2,42.5h2.5c0.8,0,1.6-0.1,2.3-0.3c0.7-0.2,1.4-0.5,2-1c0.5-0.5,1-1.1,1.4-1.7c0.3-0.8,0.5-1.5,0.5-2.4
	c0-0.5-0.1-1.1-0.2-1.6c-0.2-0.6-0.5-1.2-0.8-1.8c-0.5-0.6-1.1-1.1-1.7-1.5c-0.9-0.5-1.9-0.6-2.9-0.6h-2.9L112.2,42.5z"/>
</svg>
