<?xml version="1.0" encoding="utf-8"?>
<!-- Generator: Adobe Illustrator 19.0.0, SVG Export Plug-In . SVG Version: 6.00 Build 0)  -->
<svg version="1.1" id="Layer_1" xmlns="http://www.w3.org/2000/svg" xmlns:xlink="http://www.w3.org/1999/xlink" x="0px" y="0px"
	 width="21px" height="23px" viewBox="-295 385 21 23" style="enable-background:new -295 385 21 23;" xml:space="preserve">
<style type="text/css">
	.st0{fill:none;stroke:#258AA0;stroke-linecap:round;stroke-linejoin:round;stroke-miterlimit:10;}
</style>
<path id="XMLID_2_" class="st0" d="M-281.3,391.2c2.5,1.2,4.3,3.8,4.3,6.7c0,4.1-3.3,7.4-7.4,7.4s-7.4-3.3-7.4-7.4s3.3-7.4,7.4-7.4
	 M-294,397.9c0,5.3,4.3,9.5,9.5,9.5c5.3,0,9.5-4.3,9.5-9.5c0-5.2-4.3-9.5-9.5-9.5S-294,392.7-294,397.9z M-284.4,387v1.4
	 M-282.7,385.6h-3.5v1.4h3.5V385.6z M-277,388.4l1.4,1.4 M-278.1,390.9l1.8-1.8 M-284.4,391.9v0.7 M-287.1,393.3l-0.3-0.6
	 M-289,395.3l-0.6-0.4 M-289.7,397.9h-0.7 M-289,400.6l-0.6,0.4 M-287.1,402.5l-0.4,0.6 M-284.4,403.2v0.7 M-281.4,403.1l-0.4-0.6
	 M-279.9,400.6l0.6,0.4 M-278.4,397.9h-0.7 M-279.2,394.9l-0.6,0.4 M-281.4,392.7l-0.4,0.6 M-284.4,397.9V394"/>
</svg>
