<?xml version="1.0" encoding="utf-8"?>
<!-- Generator: Adobe Illustrator 19.0.0, SVG Export Plug-In . SVG Version: 6.00 Build 0)  -->
<svg version="1.1" id="Layer_1" xmlns="http://www.w3.org/2000/svg" xmlns:xlink="http://www.w3.org/1999/xlink" x="0px" y="0px"
	 width="20px" height="10.8px" viewBox="0 0 20 10.8" style="enable-background:new 0 0 20 10.8;" xml:space="preserve">
<style type="text/css">
	.st0{fill:#AAAAAA;}
</style>
<g id="XMLID_2_">
	<path id="XMLID_129_" class="st0" d="M19.7,10.6c-0.3,0.3-0.9,0.3-1.2,0L10,2l-8.5,8.5c-0.3,0.3-0.9,0.3-1.2,0
		c-0.3-0.3-0.3-0.9,0-1.2l9.1-9.1C9.5,0.1,9.8,0,10,0c0.2,0,0.5,0.1,0.7,0.2l9.1,9.1C20.1,9.7,20.1,10.2,19.7,10.6z"/>
	<path id="XMLID_128_" class="st0" d="M10.1,0C10,0,10,0,10.1,0C10,0,10,0,9.9,0C9.7,0,9.5,0.1,9.3,0.2L0.3,9.3
		c-0.3,0.3-0.3,0.9,0,1.2c0.2,0.2,0.4,0.3,0.6,0.3s0.4-0.1,0.6-0.3L10,2l8.5,8.5c0.2,0.2,0.4,0.3,0.6,0.3s0.4-0.1,0.6-0.3
		c0.3-0.3,0.3-0.9,0-1.2l-9.1-9.1C10.5,0.1,10.3,0,10.1,0L10.1,0z"/>
</g>
</svg>
