<?xml version="1.0" encoding="utf-8"?>
<!-- Generator: Adobe Illustrator 19.0.0, SVG Export Plug-In . SVG Version: 6.00 Build 0)  -->
<svg version="1.1" id="Layer_1" xmlns="http://www.w3.org/2000/svg" xmlns:xlink="http://www.w3.org/1999/xlink" x="0px" y="0px"
	 width="25px" height="25px" viewBox="-293 384 25 25" style="enable-background:new -293 384 25 25;" xml:space="preserve">
<style type="text/css">
	.st0{display:none;}
	.st1{display:inline;stroke:#000000;stroke-miterlimit:10;}
	.st2{fill:#424244;stroke:#A8D15E;stroke-miterlimit:10;}
	.st3{fill:#999A9B;stroke:#A8D15E;stroke-miterlimit:10;}
	.st4{fill:#C6C6C7;stroke:#A8D15E;stroke-miterlimit:10;}
	.st5{fill:#6E6E70;stroke:#A8D15E;stroke-miterlimit:10;}
	.st6{fill:#4D4D4F;stroke:#A8D15E;stroke-miterlimit:10;}
	.st7{fill:#A4A5A6;stroke:#A8D15E;stroke-miterlimit:10;}
	.st8{fill:#D1D2D2;stroke:#A8D15E;stroke-miterlimit:10;}
	.st9{fill:#79797B;stroke:#A8D15E;stroke-miterlimit:10;}
	.st10{fill:#58585A;stroke:#A8D15E;stroke-miterlimit:10;}
	.st11{fill:#B0B0B2;stroke:#A8D15E;stroke-miterlimit:10;}
	.st12{fill:#DBDCDD;stroke:#A8D15E;stroke-miterlimit:10;}
	.st13{fill:#838385;stroke:#A8D15E;stroke-miterlimit:10;}
	.st14{fill:#636365;stroke:#A8D15E;stroke-miterlimit:10;}
	.st15{fill:#BABBBC;stroke:#A8D15E;stroke-miterlimit:10;}
	.st16{fill:#E7E7E7;stroke:#A8D15E;stroke-miterlimit:10;}
	.st17{fill:#8F8F90;stroke:#A8D15E;stroke-miterlimit:10;}
</style>
<g id="Layer_1_1_" class="st0">
</g>
<g id="Layer_2" class="st0">
	<rect id="XMLID_1_" x="-293" y="383.6" class="st1" width="25.4" height="25.4"/>
</g>
<g id="Layer_3">
	<g id="XMLID_3_">
		<g id="XMLID_49_">
			<g id="XMLID_57_">
				<path id="XMLID_61_" class="st2" d="M-280.5,389.9c0,0.3,0.2,0.5,0.5,0.5l0,0c0.3,0,0.5-0.2,0.5-0.5v-4.3c0-0.3-0.2-0.5-0.5-0.5
					l0,0c-0.3,0-0.5,0.2-0.5,0.5V389.9z"/>
				<path id="XMLID_58_" class="st3" d="M-280.5,406.5c0,0.3,0.2,0.5,0.5,0.5l0,0c0.3,0,0.5-0.2,0.5-0.5v-4.2c0-0.3-0.2-0.5-0.5-0.5
					l0,0c-0.3,0-0.5,0.2-0.5,0.5V406.5z"/>
			</g>
			<g id="XMLID_50_">
				<path id="XMLID_54_" class="st4" d="M-286.3,396.6c0.3,0,0.5-0.2,0.5-0.5l0,0c0-0.3-0.2-0.5-0.5-0.5h-4.2
					c-0.3,0-0.5,0.2-0.5,0.5l0,0c0,0.3,0.2,0.5,0.5,0.5H-286.3z"/>
				<path id="XMLID_51_" class="st5" d="M-269.6,396.6c0.3,0,0.5-0.2,0.5-0.5l0,0c0-0.3-0.2-0.5-0.5-0.5h-4.2
					c-0.3,0-0.5,0.2-0.5,0.5l0,0c0,0.3,0.2,0.5,0.5,0.5H-269.6z"/>
			</g>
		</g>
		<g id="XMLID_34_">
			<g id="XMLID_42_">
				<path id="XMLID_46_" class="st6" d="M-278.1,390.1c-0.1,0.3,0,0.5,0.3,0.6l0,0c0.3,0.1,0.5,0,0.6-0.3l1.6-3.9
					c0.1-0.3,0-0.5-0.3-0.6l0,0c-0.3-0.1-0.5,0-0.6,0.3L-278.1,390.1z"/>
				<path id="XMLID_43_" class="st7" d="M-284.5,405.5c-0.1,0.3,0,0.5,0.3,0.6l0,0c0.3,0.1,0.5,0,0.6-0.3l1.6-3.8
					c0.1-0.3,0-0.5-0.3-0.6l0,0c-0.3-0.1-0.5,0-0.6,0.3L-284.5,405.5z"/>
			</g>
			<g id="XMLID_35_">
				<path id="XMLID_39_" class="st8" d="M-286,394.1c0.3,0.1,0.5,0,0.6-0.3l0,0c0.1-0.3,0-0.5-0.3-0.6l-3.8-1.6
					c-0.2-0.1-0.5,0-0.6,0.3l0,0c-0.1,0.3,0,0.5,0.3,0.6L-286,394.1z"/>
				<path id="XMLID_36_" class="st9" d="M-270.6,400.5c0.3,0.1,0.5,0,0.6-0.3l0,0c0.1-0.3,0-0.5-0.3-0.6l-3.8-1.6
					c-0.3-0.1-0.5,0-0.6,0.3l0,0c-0.1,0.3,0,0.5,0.3,0.6L-270.6,400.5z"/>
			</g>
		</g>
		<g id="XMLID_19_">
			<g id="XMLID_27_">
				<path id="XMLID_31_" class="st10" d="M-276,391.3c-0.2,0.2-0.2,0.5,0,0.7l0,0c0.2,0.2,0.5,0.2,0.7,0l3-3c0.2-0.2,0.2-0.5,0-0.7
					l0,0c-0.2-0.2-0.5-0.2-0.7,0L-276,391.3z"/>
				<path id="XMLID_28_" class="st11" d="M-287.8,403.1c-0.2,0.2-0.2,0.5,0,0.7l0,0c0.2,0.2,0.5,0.2,0.7,0l3-3
					c0.2-0.2,0.2-0.5,0-0.7l0,0c-0.2-0.2-0.5-0.2-0.7,0L-287.8,403.1z"/>
			</g>
			<g id="XMLID_20_">
				<path id="XMLID_24_" class="st12" d="M-284.8,392c0.2,0.2,0.5,0.2,0.7,0l0,0c0.2-0.2,0.2-0.5,0-0.7l-3-3c-0.2-0.2-0.5-0.2-0.7,0
					l0,0c-0.2,0.2-0.2,0.6,0,0.7L-284.8,392z"/>
				<path id="XMLID_21_" class="st13" d="M-273,403.8c0.2,0.2,0.5,0.2,0.7,0l0,0c0.2-0.2,0.2-0.5,0-0.7l-3-3c-0.2-0.2-0.5-0.2-0.7,0
					l0,0c-0.2,0.2-0.2,0.5,0,0.7L-273,403.8z"/>
			</g>
		</g>
		<g id="XMLID_4_">
			<g id="XMLID_12_">
				<path id="XMLID_16_" class="st14" d="M-274.5,393.2c-0.3,0.1-0.4,0.4-0.3,0.6l0,0c0.1,0.3,0.4,0.4,0.6,0.3l3.9-1.6
					c0.3-0.1,0.5-0.4,0.3-0.6l0,0c-0.1-0.3-0.4-0.4-0.6-0.3L-274.5,393.2z"/>
				<path id="XMLID_13_" class="st15" d="M-289.9,399.6c-0.3,0.1-0.4,0.4-0.3,0.6l0,0c0.1,0.3,0.4,0.4,0.6,0.3l3.9-1.6
					c0.3-0.1,0.4-0.4,0.3-0.6l0,0c0-0.3-0.3-0.4-0.6-0.3L-289.9,399.6z"/>
			</g>
			<g id="XMLID_5_">
				<path id="XMLID_9_" class="st16" d="M-282.9,390.5c0.1,0.3,0.4,0.4,0.6,0.3l0,0c0.3-0.1,0.4-0.4,0.3-0.7l-1.6-3.9
					c-0.1-0.2-0.4-0.3-0.6-0.2l0,0c-0.3,0.1-0.4,0.4-0.3,0.6L-282.9,390.5z"/>
				<path id="XMLID_6_" class="st17" d="M-276.5,405.9c0.1,0.3,0.4,0.4,0.6,0.3l0,0c0.3-0.1,0.4-0.4,0.3-0.6l-1.6-3.9
					c-0.1-0.3-0.4-0.4-0.6-0.3l0,0c-0.3,0.1-0.4,0.4-0.3,0.6L-276.5,405.9z"/>
			</g>
		</g>
	</g>
</g>
</svg>
