<?xml version="1.0" encoding="utf-8"?>
<!-- Generator: Adobe Illustrator 19.0.0, SVG Export Plug-In . SVG Version: 6.00 Build 0)  -->
<svg version="1.1" id="Layer_1" xmlns="http://www.w3.org/2000/svg" xmlns:xlink="http://www.w3.org/1999/xlink" x="0px" y="0px"
	 width="25px" height="25px" viewBox="-293 384 25 25" style="enable-background:new -293 384 25 25;" xml:space="preserve">
<style type="text/css">
	.st0{display:none;}
	.st1{display:inline;stroke:#000000;stroke-miterlimit:10;}
	.st2{display:inline;}
	.st3{fill:#424244;}
	.st4{fill:#999A9B;}
	.st5{fill:#C6C6C7;}
	.st6{fill:#6E6E70;}
	.st7{fill:#4D4D4F;}
	.st8{fill:#A4A5A6;}
	.st9{fill:#D1D2D2;}
	.st10{fill:#79797B;}
	.st11{fill:#58585A;}
	.st12{fill:#B0B0B2;}
	.st13{fill:#DBDCDD;}
	.st14{fill:#838385;}
	.st15{fill:#636365;}
	.st16{fill:#BABBBC;}
	.st17{fill:#E7E7E7;}
	.st18{fill:#8F8F90;}
	.st19{fill:#53C9ED;}
	.st20{fill:#616161;}
</style>
<g id="Layer_1_1_" class="st0">
</g>
<g id="Layer_2" class="st0">
	<rect id="XMLID_1_" x="-293" y="383.6" class="st1" width="25.4" height="25.4"/>
</g>
<g id="Layer_3" class="st0">
	<g id="XMLID_3_" class="st2">
		<g id="XMLID_49_">
			<g id="XMLID_57_">
				<path id="XMLID_61_" class="st3" d="M-281.5,390.9c0,0.3,0.2,0.5,0.5,0.5l0,0c0.3,0,0.5-0.2,0.5-0.5v-4.3c0-0.3-0.2-0.5-0.5-0.5
					l0,0c-0.3,0-0.5,0.2-0.5,0.5V390.9z"/>
				<path id="XMLID_58_" class="st4" d="M-281.5,407.5c0,0.3,0.2,0.5,0.5,0.5l0,0c0.3,0,0.5-0.2,0.5-0.5v-4.2c0-0.3-0.2-0.5-0.5-0.5
					l0,0c-0.3,0-0.5,0.2-0.5,0.5V407.5z"/>
			</g>
			<g id="XMLID_50_">
				<path id="XMLID_54_" class="st5" d="M-287.3,397.6c0.3,0,0.5-0.2,0.5-0.5l0,0c0-0.3-0.2-0.5-0.5-0.5h-4.2
					c-0.3,0-0.5,0.2-0.5,0.5l0,0c0,0.3,0.2,0.5,0.5,0.5H-287.3z"/>
				<path id="XMLID_51_" class="st6" d="M-270.6,397.6c0.3,0,0.5-0.2,0.5-0.5l0,0c0-0.3-0.2-0.5-0.5-0.5h-4.2
					c-0.3,0-0.5,0.2-0.5,0.5l0,0c0,0.3,0.2,0.5,0.5,0.5H-270.6z"/>
			</g>
		</g>
		<g id="XMLID_34_">
			<g id="XMLID_42_">
				<path id="XMLID_46_" class="st7" d="M-279.1,391.1c-0.1,0.3,0,0.5,0.3,0.6l0,0c0.3,0.1,0.5,0,0.6-0.3l1.6-3.9
					c0.1-0.3,0-0.5-0.3-0.6l0,0c-0.3-0.1-0.5,0-0.6,0.3L-279.1,391.1z"/>
				<path id="XMLID_43_" class="st8" d="M-285.5,406.5c-0.1,0.3,0,0.5,0.3,0.6l0,0c0.3,0.1,0.5,0,0.6-0.3l1.6-3.8
					c0.1-0.3,0-0.5-0.3-0.6l0,0c-0.3-0.1-0.5,0-0.6,0.3L-285.5,406.5z"/>
			</g>
			<g id="XMLID_35_">
				<path id="XMLID_39_" class="st9" d="M-287,395.1c0.3,0.1,0.5,0,0.6-0.3l0,0c0.1-0.3,0-0.5-0.3-0.6l-3.8-1.6
					c-0.2-0.1-0.5,0-0.6,0.3l0,0c-0.1,0.3,0,0.5,0.3,0.6L-287,395.1z"/>
				<path id="XMLID_36_" class="st10" d="M-271.6,401.5c0.3,0.1,0.5,0,0.6-0.3l0,0c0.1-0.3,0-0.5-0.3-0.6l-3.8-1.6
					c-0.3-0.1-0.5,0-0.6,0.3l0,0c-0.1,0.3,0,0.5,0.3,0.6L-271.6,401.5z"/>
			</g>
		</g>
		<g id="XMLID_19_">
			<g id="XMLID_27_">
				<path id="XMLID_31_" class="st11" d="M-277,392.3c-0.2,0.2-0.2,0.5,0,0.7l0,0c0.2,0.2,0.5,0.2,0.7,0l3-3c0.2-0.2,0.2-0.5,0-0.7
					l0,0c-0.2-0.2-0.5-0.2-0.7,0L-277,392.3z"/>
				<path id="XMLID_28_" class="st12" d="M-288.8,404.1c-0.2,0.2-0.2,0.5,0,0.7l0,0c0.2,0.2,0.5,0.2,0.7,0l3-3
					c0.2-0.2,0.2-0.5,0-0.7l0,0c-0.2-0.2-0.5-0.2-0.7,0L-288.8,404.1z"/>
			</g>
			<g id="XMLID_20_">
				<path id="XMLID_24_" class="st13" d="M-285.8,393c0.2,0.2,0.5,0.2,0.7,0l0,0c0.2-0.2,0.2-0.5,0-0.7l-3-3c-0.2-0.2-0.5-0.2-0.7,0
					l0,0c-0.2,0.2-0.2,0.6,0,0.7L-285.8,393z"/>
				<path id="XMLID_21_" class="st14" d="M-274,404.8c0.2,0.2,0.5,0.2,0.7,0l0,0c0.2-0.2,0.2-0.5,0-0.7l-3-3c-0.2-0.2-0.5-0.2-0.7,0
					l0,0c-0.2,0.2-0.2,0.5,0,0.7L-274,404.8z"/>
			</g>
		</g>
		<g id="XMLID_4_">
			<g id="XMLID_12_">
				<path id="XMLID_16_" class="st15" d="M-275.5,394.2c-0.3,0.1-0.4,0.4-0.3,0.6l0,0c0.1,0.3,0.4,0.4,0.6,0.3l3.9-1.6
					c0.3-0.1,0.5-0.4,0.3-0.6l0,0c-0.1-0.3-0.4-0.4-0.6-0.3L-275.5,394.2z"/>
				<path id="XMLID_13_" class="st16" d="M-290.9,400.6c-0.3,0.1-0.4,0.4-0.3,0.6l0,0c0.1,0.3,0.4,0.4,0.6,0.3l3.9-1.6
					c0.3-0.1,0.4-0.4,0.3-0.6l0,0c0-0.3-0.3-0.4-0.6-0.3L-290.9,400.6z"/>
			</g>
			<g id="XMLID_5_">
				<path id="XMLID_9_" class="st17" d="M-283.9,391.5c0.1,0.3,0.4,0.4,0.6,0.3l0,0c0.3-0.1,0.4-0.4,0.3-0.7l-1.6-3.9
					c-0.1-0.2-0.4-0.3-0.6-0.2l0,0c-0.3,0.1-0.4,0.4-0.3,0.6L-283.9,391.5z"/>
				<path id="XMLID_6_" class="st18" d="M-277.5,406.9c0.1,0.3,0.4,0.4,0.6,0.3l0,0c0.3-0.1,0.4-0.4,0.3-0.6l-1.6-3.9
					c-0.1-0.3-0.4-0.4-0.6-0.3l0,0c-0.3,0.1-0.4,0.4-0.3,0.6L-277.5,406.9z"/>
			</g>
		</g>
	</g>
</g>
<g id="Layer_4">
	<g id="XMLID_2_" class="st0">
		<g class="st2">
			<g>
				<path class="st19" d="M-281,390.5c0,0.3,0.2,0.5,0.5,0.5l0,0c0.3,0,0.5-0.2,0.5-0.5v-4.2c0-0.3-0.2-0.5-0.5-0.5l0,0
					c-0.3,0-0.5,0.2-0.5,0.5V390.5z"/>
				<path class="st19" d="M-281,407.1c0,0.3,0.2,0.5,0.5,0.5l0,0c0.3,0,0.5-0.2,0.5-0.5v-4.2c0-0.3-0.2-0.5-0.5-0.5l0,0
					c-0.3,0-0.5,0.2-0.5,0.5V407.1z"/>
			</g>
			<g>
				<path class="st19" d="M-286.7,397.2c0.3,0,0.5-0.2,0.5-0.5l0,0c0-0.3-0.2-0.5-0.5-0.5h-4.2c-0.3,0-0.5,0.2-0.5,0.5l0,0
					c0,0.3,0.2,0.5,0.5,0.5H-286.7z"/>
				<path class="st19" d="M-270,397.2c0.3,0,0.5-0.2,0.5-0.5l0,0c0-0.3-0.2-0.5-0.5-0.5h-4.2c-0.3,0-0.5,0.2-0.5,0.5l0,0
					c0,0.3,0.2,0.5,0.5,0.5H-270z"/>
			</g>
		</g>
		<g class="st2">
			<g>
				<path class="st19" d="M-278.6,390.8c-0.1,0.3,0,0.5,0.3,0.6l0,0c0.3,0.1,0.5,0,0.6-0.3l1.7-3.8c0.1-0.3,0-0.5-0.3-0.6l0,0
					c-0.3-0.1-0.5,0-0.6,0.3L-278.6,390.8z"/>
				<path class="st19" d="M-284.9,406.2c-0.1,0.3,0,0.5,0.3,0.6l0,0c0.3,0.1,0.5,0,0.6-0.3l1.6-3.9c0.1-0.3,0-0.5-0.3-0.6l0,0
					c-0.3-0.1-0.5,0-0.6,0.3L-284.9,406.2z"/>
			</g>
			<g>
				<path class="st19" d="M-286.4,394.8c0.3,0.1,0.5,0,0.6-0.3l0,0c0.1-0.3,0-0.5-0.3-0.6l-3.8-1.6c-0.3-0.1-0.5,0-0.6,0.3l0,0
					c-0.1,0.3,0,0.5,0.3,0.6L-286.4,394.8z"/>
				<path class="st19" d="M-271,401.2c0.3,0.1,0.5,0,0.6-0.3l0,0c0.1-0.3,0-0.5-0.3-0.6l-3.9-1.6c-0.3-0.1-0.5,0-0.6,0.3l0,0
					c-0.1,0.3,0,0.5,0.3,0.6L-271,401.2z"/>
			</g>
		</g>
		<g class="st2">
			<g>
				<path class="st19" d="M-276.4,392c-0.2,0.2-0.2,0.5,0,0.7l0,0c0.2,0.2,0.5,0.2,0.7,0l3-3c0.2-0.2,0.2-0.5,0-0.7l0,0
					c-0.2-0.2-0.5-0.2-0.7,0L-276.4,392z"/>
				<path class="st19" d="M-288.2,403.7c-0.2,0.2-0.2,0.5,0,0.7l0,0c0.2,0.2,0.5,0.2,0.7,0l3-3c0.2-0.2,0.2-0.5,0-0.7l0,0
					c-0.2-0.2-0.5-0.2-0.7,0L-288.2,403.7z"/>
			</g>
			<g>
				<path class="st19" d="M-285.2,392.7c0.2,0.2,0.5,0.2,0.7,0l0,0c0.2-0.2,0.2-0.5,0-0.7l-3-3c-0.2-0.2-0.5-0.2-0.7,0l0,0
					c-0.2,0.2-0.2,0.5,0,0.7L-285.2,392.7z"/>
				<path class="st19" d="M-273.5,404.4c0.2,0.2,0.5,0.2,0.7,0l0,0c0.2-0.2,0.2-0.5,0-0.7l-3-3c-0.2-0.2-0.5-0.2-0.7,0l0,0
					c-0.2,0.2-0.2,0.5,0,0.7L-273.5,404.4z"/>
			</g>
		</g>
		<g class="st2">
			<g>
				<path class="st19" d="M-274.9,393.9c-0.3,0.1-0.4,0.4-0.3,0.6l0,0c0.1,0.3,0.4,0.4,0.6,0.3l3.9-1.6c0.3-0.1,0.4-0.4,0.3-0.6l0,0
					c-0.1-0.3-0.4-0.4-0.6-0.3L-274.9,393.9z"/>
				<path class="st19" d="M-290.3,400.2c-0.3,0.1-0.4,0.4-0.3,0.6l0,0c0.1,0.3,0.4,0.4,0.6,0.3l4-1.6c0.3-0.1,0.4-0.4,0.3-0.6l0,0
					c-0.1-0.3-0.4-0.4-0.6-0.3L-290.3,400.2z"/>
			</g>
			<g>
				<path class="st19" d="M-283.3,391.2c0.1,0.3,0.4,0.4,0.6,0.3l0,0c0.3-0.1,0.4-0.4,0.3-0.6l-1.6-4c-0.1-0.3-0.4-0.4-0.7-0.3l0,0
					c-0.2,0.1-0.3,0.4-0.2,0.7L-283.3,391.2z"/>
				<path class="st19" d="M-276.9,406.5c0.1,0.3,0.4,0.4,0.6,0.3l0,0c0.3-0.1,0.4-0.4,0.3-0.6l-1.6-3.9c-0.1-0.3-0.4-0.4-0.7-0.3
					l0,0c-0.3,0.1-0.4,0.4-0.3,0.6L-276.9,406.5z"/>
			</g>
		</g>
	</g>
	<path class="st20" d="M-273.1,395.2h-1v-2.8c0-3.7-3-6.6-6.6-6.6c-3.7,0-6.6,3-6.6,6.6v2.8h-1c-0.4,0-0.7,0.4-0.7,0.8v10.9
		c0,0.4,0.3,0.8,0.8,0.8h15.2c0.4,0,0.8-0.3,0.8-0.8V396C-272.3,395.6-272.6,395.2-273.1,395.2z M-279.4,404.7h-2.5l0.4-3.7
		c-0.6-0.3-0.9-0.9-0.9-1.6c0-1,0.8-1.8,1.8-1.8s1.8,0.8,1.8,1.8c0,0.7-0.4,1.3-0.9,1.6L-279.4,404.7z M-276.5,395.2h-8.3v-2.8
		c0-2.3,1.9-4.2,4.2-4.2c2.3,0,4.2,1.9,4.2,4.2v2.8H-276.5z"/>
</g>
</svg>
