<?xml version="1.0" encoding="utf-8"?>
<!-- Generator: Adobe Illustrator 24.0.0, SVG Export Plug-In . SVG Version: 6.00 Build 0)  -->
<svg version="1.1" id="Layer_1" xmlns="http://www.w3.org/2000/svg" xmlns:xlink="http://www.w3.org/1999/xlink" x="0px" y="0px"
	 viewBox="0 0 201 76" style="enable-background:new 0 0 201 76;" xml:space="preserve">
<style type="text/css">
	.st0{fill:#FFFFFF;stroke:#000000;stroke-miterlimit:10;}
	.st1{stroke:#000000;stroke-miterlimit:10;}
</style>
<title>Asset 8</title>
<path class="st0" d="M11.3,75.2c-5.8,0-10.6-5.9-10.6-13.1V13.9c0-7.2,4.7-13.1,10.6-13.1h178.3c5.8,0,10.6,5.9,10.6,13.1v48.2
	c0,7.2-4.7,13.1-10.6,13.1H11.3z"/>
<path class="st0" d="M189.7,1.2c5.7,0,10.3,5.7,10.3,12.7v48.2c0,7-4.6,12.7-10.3,12.7H11.3C5.7,74.8,1,69.1,1,62.1V13.9
	c0-7,4.6-12.7,10.3-12.7L189.7,1.2 M189.7,0.5H11.3c-6,0-10.8,6-10.8,13.4v48.2c0,7.4,4.8,13.4,10.8,13.4h178.3
	c6,0,10.8-6,10.8-13.4V13.9C200.5,6.5,195.6,0.5,189.7,0.5z"/>
<path class="st1" d="M9.3,31.4h2.6l8,12l0,0v-12h2V46h-2.5l-8.1-12l0,0v12h-2L9.3,31.4z"/>
<path class="st1" d="M32.4,46.3c-1,0-2.1-0.2-3.1-0.6c-0.9-0.4-1.7-0.9-2.4-1.6c-0.7-0.7-1.2-1.5-1.6-2.4c-0.7-1.9-0.7-4.1,0-6
	c0.4-0.9,0.9-1.7,1.6-2.4c0.7-0.7,1.5-1.3,2.4-1.6c2-0.8,4.2-0.8,6.1,0c0.9,0.4,1.7,0.9,2.4,1.6c0.7,0.7,1.2,1.5,1.6,2.4
	c0.8,1.9,0.8,4.1,0,6c-0.4,0.9-0.9,1.7-1.6,2.4c-0.7,0.7-1.5,1.2-2.4,1.6C34.5,46.1,33.4,46.3,32.4,46.3z M32.4,44.5
	c0.8,0,1.6-0.2,2.3-0.5c1.3-0.6,2.4-1.7,2.8-3.1c0.5-1.5,0.5-3.1,0-4.5c-0.2-0.7-0.6-1.3-1.1-1.8c-0.5-0.5-1.1-0.9-1.7-1.3
	c-1.4-0.6-3.1-0.6-4.5,0c-1.3,0.6-2.4,1.7-2.8,3.1c-0.5,1.5-0.5,3.1,0,4.5c0.2,0.7,0.6,1.3,1.1,1.8c0.5,0.5,1.1,0.9,1.7,1.2
	C30.8,44.3,31.6,44.5,32.4,44.5z"/>
<path class="st1" d="M45.8,33.2h-4.7v-1.9h11.4v1.8h-4.7V46h-2L45.8,33.2z"/>
<path class="st1" d="M60.8,42.9c0.3,0.5,0.8,0.9,1.4,1.2c0.5,0.3,1.1,0.4,1.7,0.4c0.3,0,0.7-0.1,1-0.2c0.3-0.1,0.6-0.3,0.9-0.5
	c0.3-0.2,0.5-0.5,0.7-0.8c0.2-0.3,0.3-0.7,0.3-1c0-0.5-0.2-1-0.5-1.3c-0.4-0.3-0.8-0.6-1.3-0.8c-0.5-0.2-1.1-0.4-1.7-0.6
	c-0.6-0.2-1.2-0.4-1.7-0.8c-0.5-0.3-1-0.8-1.3-1.3c-0.4-0.7-0.6-1.5-0.5-2.3c0-0.5,0.1-0.9,0.3-1.4c0.2-0.5,0.5-0.9,0.9-1.3
	c0.4-0.4,1-0.8,1.5-1c0.7-0.3,1.5-0.4,2.3-0.4c0.8,0,1.5,0.1,2.3,0.3c0.8,0.2,1.4,0.7,1.9,1.3l-1.6,1.5c-0.2-0.4-0.6-0.7-1-0.9
	c-0.5-0.2-1-0.4-1.5-0.3c-0.5,0-0.9,0.1-1.4,0.2c-0.3,0.1-0.6,0.3-0.9,0.5c-0.2,0.2-0.4,0.5-0.5,0.7c-0.1,0.2-0.1,0.5-0.1,0.7
	c0,0.5,0.2,1,0.5,1.4c0.4,0.3,0.8,0.6,1.3,0.8c0.6,0.2,1.1,0.4,1.7,0.6c0.6,0.2,1.2,0.4,1.7,0.7c0.5,0.3,1,0.7,1.3,1.2
	c0.4,0.6,0.6,1.3,0.5,2.1c0,0.7-0.1,1.3-0.4,1.9c-0.3,0.5-0.6,1-1.1,1.4c-0.5,0.4-1,0.7-1.6,0.9c-0.6,0.2-1.3,0.3-2,0.3
	c-0.9,0-1.8-0.2-2.7-0.5c-0.8-0.3-1.5-0.8-2-1.5L60.8,42.9z"/>
<path class="st1" d="M74.8,33.2h-4.7v-1.9h11.4v1.8h-4.7V46h-2L74.8,33.2z"/>
<path class="st1" d="M86.3,31.4h1.8L94.3,46H92l-1.5-3.6h-7L82.1,46h-2.3L86.3,31.4z M89.8,40.6l-2.7-6.7l0,0l-2.8,6.7H89.8z"/>
<path class="st1" d="M96.2,31.4h5.1c0.8,0,1.6,0.1,2.3,0.4c0.5,0.2,1,0.6,1.4,1c0.3,0.4,0.6,0.8,0.7,1.3c0.1,0.5,0.2,0.9,0.2,1.4
	c0,0.5-0.1,0.9-0.2,1.3c-0.2,0.4-0.4,0.8-0.7,1.2c-0.3,0.4-0.7,0.7-1.1,0.9c-0.5,0.2-1,0.4-1.5,0.4l4.2,6.7h-2.5l-3.7-6.4h-2.2V46
	h-2L96.2,31.4z M98.2,37.8h2.6c0.4,0,0.8,0,1.1-0.1c0.3-0.1,0.7-0.2,1-0.3c0.3-0.2,0.5-0.4,0.7-0.7c0.3-0.8,0.3-1.6,0-2.4
	c-0.2-0.3-0.4-0.5-0.7-0.7c-0.3-0.2-0.6-0.3-1-0.3c-0.4-0.1-0.8-0.1-1.1-0.1h-2.6V37.8z"/>
<path class="st1" d="M111.4,33.2h-4.7v-1.9h11.4v1.8h-4.7V46h-2L111.4,33.2z"/>
<path class="st1" d="M120.2,31.4h9.4v1.8h-7.4v4.3h6.9v1.8h-6.9v4.7h7.8V46h-9.8L120.2,31.4z"/>
<path class="st1" d="M132.4,31.4h5.1c0.9,0,1.8,0.1,2.7,0.4c0.7,0.2,1.4,0.5,2,0.9c0.5,0.4,1,0.8,1.4,1.3c0.4,0.5,0.7,1,0.9,1.6
	c0.2,0.5,0.4,1.1,0.5,1.6c0.1,0.5,0.1,1,0.1,1.5c0,0.9-0.2,1.8-0.5,2.7c-0.3,0.9-0.9,1.7-1.5,2.3c-0.7,0.7-1.6,1.3-2.5,1.6
	c-1.1,0.4-2.3,0.6-3.4,0.6h-4.8L132.4,31.4z M134.4,44.1h2.5c0.8,0,1.6-0.1,2.4-0.3c0.7-0.2,1.4-0.5,2-1c0.6-0.5,1-1,1.3-1.7
	c0.3-0.7,0.5-1.6,0.5-2.4c0-0.6-0.1-1.1-0.2-1.6c-0.3-1.4-1.3-2.6-2.6-3.2c-0.9-0.4-1.9-0.6-2.9-0.6h-3L134.4,44.1z"/>
<circle class="st0" cx="177.1" cy="38.5" r="18.9"/>
<path class="st0" d="M191.5,41.5h-29.2c-0.4,0-0.8-0.4-0.8-0.8V36c0-0.4,0.4-0.8,0.8-0.8h29.2c0.4,0,0.8,0.4,0.8,0.8v4.6
	C192.3,41.1,192,41.4,191.5,41.5z"/>
</svg>
