<?xml version="1.0" encoding="utf-8"?>
<!-- Generator: Adobe Illustrator 19.0.0, SVG Export Plug-In . SVG Version: 6.00 Build 0)  -->
<svg version="1.1" id="Layer_1" xmlns="http://www.w3.org/2000/svg" xmlns:xlink="http://www.w3.org/1999/xlink" x="0px" y="0px"
	 width="15.7px" height="19.5px" viewBox="0 0 15.7 19.5" style="enable-background:new 0 0 15.7 19.5;" xml:space="preserve">
<style type="text/css">
	.st0{fill:#31333E;}
</style>
<path class="st0" d="M14.8,1.5l-1.4-1c-0.9-0.7-2-0.6-2.5,0.1l-0.4,0.6c0.7,0.5,1.5,1.1,2.3,1.6C13.5,3.4,14.3,4,15,4.6L15.4,4
	C16,3.3,15.7,2.2,14.8,1.5z M9.9,1.8L0.3,14.7c0,0,0,0,0,0l-0.2,0.2C0,15,0,15.1,0,15.2l0.1,3.7c0,0.2,0.1,0.3,0.3,0.5
	c0.1,0.1,0.3,0.1,0.4,0.1c0,0,0.1,0,0.1,0l3.6-1c0.1,0,0.2-0.1,0.2-0.1l9.8-13.1c-0.7-0.6-1.5-1.2-2.3-1.8
	C11.4,2.9,10.6,2.3,9.9,1.8z"/>
</svg>
