<?xml version="1.0" encoding="utf-8"?>
<!-- Generator: Adobe Illustrator 19.0.0, SVG Export Plug-In . SVG Version: 6.00 Build 0)  -->
<svg version="1.1" id="Layer_1" xmlns="http://www.w3.org/2000/svg" xmlns:xlink="http://www.w3.org/1999/xlink" x="0px" y="0px"
	 width="16.2px" height="30px" viewBox="0 0 16.2 30" style="enable-background:new 0 0 16.2 30;" xml:space="preserve">
<style type="text/css">
	.st0{fill:#9E1D20;}
</style>
<g id="XMLID_42_">
	<path id="XMLID_56_" class="st0" d="M14.9,29.8c-0.3,0-0.5-0.1-0.7-0.3L0.6,15.8c-0.2-0.2-0.3-0.5-0.3-0.8c0-0.3,0.1-0.6,0.3-0.8
		L14.2,0.6c0.2-0.2,0.5-0.3,0.7-0.3s0.5,0.1,0.7,0.3S16,1,16,1.3S15.8,1.8,15.6,2l-13,13l13,13c0.4,0.4,0.4,1.1,0,1.5
		C15.5,29.6,15.2,29.8,14.9,29.8z"/>
	<path id="XMLID_53_" class="st0" d="M14.9,0.5c0.2,0,0.4,0.1,0.6,0.2c0.2,0.2,0.2,0.4,0.2,0.6c0,0.2-0.1,0.4-0.2,0.6L2.7,14.6
		L2.3,15l0.4,0.4l12.8,12.8c0.2,0.2,0.2,0.4,0.2,0.6c0,0.2-0.1,0.4-0.2,0.6c-0.2,0.2-0.4,0.2-0.6,0.2s-0.4-0.1-0.6-0.2L0.7,15.7
		c-0.2-0.2-0.2-0.4-0.2-0.6l0,0l0,0c0-0.2,0.1-0.5,0.2-0.6L14.3,0.7C14.5,0.6,14.7,0.5,14.9,0.5 M14.9,0c-0.3,0-0.7,0.1-0.9,0.4
		L0.4,14C0.1,14.3,0,14.6,0,15c0,0.4,0.1,0.7,0.4,1L14,29.6c0.3,0.3,0.6,0.4,0.9,0.4c0.3,0,0.7-0.1,0.9-0.4c0.5-0.5,0.5-1.3,0-1.8
		L3,15L15.8,2.2c0.5-0.5,0.5-1.3,0-1.8C15.6,0.1,15.2,0,14.9,0L14.9,0z"/>
</g>
</svg>
