<?xml version="1.0" encoding="utf-8"?>
<!-- Generator: Adobe Illustrator 19.0.0, SVG Export Plug-In . SVG Version: 6.00 Build 0)  -->
<svg version="1.1" id="Layer_1" xmlns="http://www.w3.org/2000/svg" xmlns:xlink="http://www.w3.org/1999/xlink" x="0px" y="0px"
	 width="40px" height="40px" viewBox="0 0 40 40" style="enable-background:new 0 0 40 40;" xml:space="preserve">
<style type="text/css">
	.st0{fill:#9E1D20;}
	.st1{fill:#FFFFFF;}
</style>
<g id="XMLID_2_">
	<path id="XMLID_6_" class="st0" d="M28,40H12C5.4,40,0,34.6,0,28V12C0,5.4,5.4,0,12,0h16c6.6,0,12,5.4,12,12v16
		C40,34.6,34.6,40,28,40z"/>
	<g id="XMLID_3_">
		<circle id="XMLID_5_" class="st1" cx="19.6" cy="20" r="15"/>
		<path id="XMLID_4_" class="st0" d="M30.7,22.5H8.5c-0.4,0-0.7-0.3-0.7-0.7v-3.6c0-0.4,0.3-0.7,0.7-0.7h22.2c0.4,0,0.7,0.3,0.7,0.7
			v3.6C31.4,22.2,31.1,22.5,30.7,22.5z"/>
	</g>
</g>
</svg>
