<?xml version="1.0" encoding="utf-8"?>
<!-- Generator: Adobe Illustrator 19.0.0, SVG Export Plug-In . SVG Version: 6.00 Build 0)  -->
<svg version="1.1" id="Layer_1" xmlns="http://www.w3.org/2000/svg" xmlns:xlink="http://www.w3.org/1999/xlink" x="0px" y="0px"
	 width="53.2px" height="59px" viewBox="0 0 53.2 59" style="enable-background:new 0 0 53.2 59;" xml:space="preserve">
<style type="text/css">
	.st0{opacity:0.8;}
	.st1{fill:#2E303A;}
</style>
<g class="st0">
	<g>
		<g>
			<path class="st1" d="M52.2,31.9L52.2,31.9c-1.4,1.4-3.5,1.4-4.8,0.1L21.3,5.7c-1.3-1.3-1.3-3.4,0-4.7L21.4,1
				c1.3-1.3,3.4-1.3,4.7,0l26.2,26.2C53.5,28.5,53.5,30.6,52.2,31.9z"/>
			<path class="st1" d="M21,57.1l0.8,0.8c1.3,1.3,3.4,1.3,4.8,0l25.4-25.8c1.3-1.3,1.3-3.5,0-4.8l-0.8-0.8c-1.3-1.3-3.4-1.3-4.8,0
				L21,52.3C19.7,53.6,19.7,55.8,21,57.1z"/>
		</g>
	</g>
	<g>
		<g>
			<g>
				<path class="st1" d="M32.2,31.9L32.2,31.9c-1.4,1.4-3.5,1.4-4.8,0.1L1.3,5.7C0,4.4,0,2.3,1.3,1.1L1.4,1C2.6-0.3,4.7-0.3,6,1
					l26.2,26.2C33.5,28.5,33.5,30.6,32.2,31.9z"/>
				<path class="st1" d="M1,57.1L1.8,58c1.3,1.3,3.4,1.3,4.8,0l25.4-25.8c1.3-1.3,1.3-3.5,0-4.8l-0.8-0.8c-1.3-1.3-3.4-1.3-4.8,0
					L1,52.3C-0.3,53.6-0.3,55.8,1,57.1z"/>
			</g>
		</g>
	</g>
</g>
</svg>
