<?xml version="1.0" encoding="utf-8"?>
<!-- Generator: Adobe Illustrator 19.0.0, SVG Export Plug-In . SVG Version: 6.00 Build 0)  -->
<svg version="1.1" id="Layer_1" xmlns="http://www.w3.org/2000/svg" xmlns:xlink="http://www.w3.org/1999/xlink" x="0px" y="0px"
	 width="16.2px" height="30px" viewBox="0 0 16.2 30" style="enable-background:new 0 0 16.2 30;" xml:space="preserve">
<style type="text/css">
	.st0{fill:#616161;}
</style>
<g id="XMLID_42_">
	<path id="XMLID_16_" class="st0" d="M1.3,29.8c-0.3,0-0.5-0.1-0.7-0.3c-0.4-0.4-0.4-1.1,0-1.5l13-13L0.6,2C0.4,1.8,0.3,1.6,0.3,1.3
		s0.1-0.5,0.3-0.7S1,0.2,1.3,0.2S1.8,0.4,2,0.6l13.6,13.6c0.2,0.2,0.3,0.5,0.3,0.8c0,0.3-0.1,0.6-0.3,0.8L2,29.4
		C1.8,29.6,1.6,29.8,1.3,29.8z"/>
	<path id="XMLID_13_" class="st0" d="M1.3,0.5c0.2,0,0.4,0.1,0.6,0.2l13.6,13.6c0.2,0.2,0.2,0.4,0.2,0.6l0,0l0,0
		c0,0.2-0.1,0.5-0.2,0.6L1.9,29.3c-0.2,0.2-0.4,0.2-0.6,0.2c-0.2,0-0.4-0.1-0.6-0.2c-0.2-0.2-0.2-0.4-0.2-0.6c0-0.2,0.1-0.4,0.2-0.6
		l12.8-12.8l0.4-0.4l-0.4-0.4L0.7,1.9C0.6,1.7,0.5,1.5,0.5,1.3c0-0.2,0.1-0.4,0.2-0.6C0.9,0.6,1.1,0.5,1.3,0.5 M1.3,0
		C1,0,0.6,0.1,0.4,0.4c-0.5,0.5-0.5,1.3,0,1.8L13.2,15L0.4,27.8c-0.5,0.5-0.5,1.3,0,1.8C0.6,29.9,1,30,1.3,30c0.3,0,0.7-0.1,0.9-0.4
		L15.8,16c0.3-0.3,0.4-0.6,0.4-1c0-0.4-0.1-0.7-0.4-1L2.2,0.4C2,0.1,1.6,0,1.3,0L1.3,0z"/>
</g>
</svg>
