<?xml version="1.0" encoding="utf-8"?>
<!-- Generator: Adobe Illustrator 19.0.0, SVG Export Plug-In . SVG Version: 6.00 Build 0)  -->
<svg version="1.1" id="Layer_1" xmlns="http://www.w3.org/2000/svg" xmlns:xlink="http://www.w3.org/1999/xlink" x="0px" y="0px"
	 width="21px" height="23px" viewBox="0 0 21 23" style="enable-background:new 0 0 21 23;" xml:space="preserve">
<style type="text/css">
	.st0{fill:none;stroke:#616161;stroke-linecap:round;stroke-linejoin:round;stroke-miterlimit:10;}
</style>
<path id="XMLID_2_" class="st0" d="M13.7,6.2C16.2,7.4,18,10,18,12.9c0,4.1-3.3,7.4-7.4,7.4S3.2,17,3.2,12.9s3.3-7.4,7.4-7.4
	 M1,12.9c0,5.3,4.3,9.5,9.5,9.5c5.3,0,9.5-4.3,9.5-9.5s-4.3-9.5-9.5-9.5C5.3,3.4,1,7.7,1,12.9z M10.6,2v1.4 M12.3,0.6H8.8V2h3.5V0.6
	z M18,3.4l1.4,1.4 M16.9,5.9l1.8-1.8 M10.6,6.9v0.7 M7.9,8.3L7.6,7.7 M6,10.3L5.4,9.9 M5.3,12.9H4.6 M6,15.6l-0.6,0.4 M7.9,17.5
	l-0.4,0.6 M10.6,18.2v0.7 M13.6,18.1l-0.4-0.6 M15.1,15.6l0.6,0.4 M16.6,12.9h-0.7 M15.8,9.9l-0.6,0.4 M13.6,7.7l-0.4,0.6
	 M10.6,12.9V9"/>
</svg>
