<?xml version="1.0" encoding="utf-8"?>
<!-- Generator: Adobe Illustrator 19.0.0, SVG Export Plug-In . SVG Version: 6.00 Build 0)  -->
<svg version="1.1" id="Layer_1" xmlns="http://www.w3.org/2000/svg" xmlns:xlink="http://www.w3.org/1999/xlink" x="0px" y="0px"
	 width="39.7px" height="25px" viewBox="0 0 39.7 25" style="enable-background:new 0 0 39.7 25;" xml:space="preserve">
<style type="text/css">
	.st0{fill:#616161;}
</style>
<g id="XMLID_95_">
	<path id="XMLID_108_" class="st0" d="M24.6,4.6l-6.5,6.9c-0.6,0.6-0.7,1.6-0.1,2.2l1,1.1c0.6,0.6,1.6,0.7,2.2,0.1l7.3-6.2
		c0.6-0.6,0.5-1.9-0.1-2.6l-1-1.1C26.9,4.4,25.2,4,24.6,4.6z"/>
	<path id="XMLID_107_" class="st0" d="M15.8,14.1c-0.1,0.1-0.2,0.1-0.3,0.2l-7.4,8.4c-0.5,0.5-0.4,1.2,0.2,1.5l0.2,0.1
		c0.6,0.3,1.2-0.1,1.6-0.6l7.6-6.7L15.8,14.1z"/>
	<g id="XMLID_104_">
		<path id="XMLID_106_" class="st0" d="M28.4,18.5l0.6,0.6c-0.1-0.3-0.3-0.5-0.6-0.7l-6.5-7.1c-0.6-0.6-1.6-0.6-2.2,0.1l-1,1
			c-0.6,0.6-0.6,1.6,0.1,2.2l5.8,4.9l1.8-0.8C27.3,18.4,28,17.7,28.4,18.5z"/>
		<path id="XMLID_105_" class="st0" d="M29,19.2C29,19.2,29,19.2,29,19.2L29,19.2l-0.6-0.7c-0.3-0.8-1.1-0.1-1.9,0.2l-1.8,0.8
			l-6.9,3.2c-0.8,0.3-1.5,0.7-1.2,1.5l0,0.1c0.3,0.8,1.2,0.6,2,0.3l9.4-3.5c0.4-0.2,0.7-0.4,0.9-0.6C29.1,20.2,29.2,19.7,29,19.2z"
			/>
	</g>
	<path id="XMLID_103_" class="st0" d="M26.7,6.7l-4.9-3.2c-0.5-0.3-0.6-1-0.3-1.5l0,0c0.3-0.5,1-0.6,1.5-0.3l4.9,3.2
		c0.5,0.3,0.6,1,0.3,1.5l0,0C27.9,6.9,27.2,7.1,26.7,6.7z"/>
	<path id="XMLID_102_" class="st0" d="M32.1,10.3l-5.4-3.5c-0.5-0.3-0.6-1-0.3-1.5l0,0c0.3-0.5,1-0.6,1.5-0.3l5.4,3.5
		c0.5,0.3,0.6,1,0.3,1.5v0C33.3,10.5,32.6,10.6,32.1,10.3z"/>
	<path id="XMLID_101_" class="st0" d="M38.6,10.5h-5.8c-0.6,0-1.1-0.5-1.1-1.1v0c0-0.6,0.5-1.1,1.1-1.1h5.8c0.6,0,1.1,0.5,1.1,1.1v0
		C39.7,10,39.2,10.5,38.6,10.5z"/>
	<path id="XMLID_100_" class="st0" d="M22.7,3.7l-5.6,1.6c-0.6,0.2-1.2-0.2-1.3-0.7l0,0c-0.2-0.6,0.2-1.2,0.7-1.3l5.6-1.6
		c0.6-0.2,1.2,0.2,1.3,0.7v0C23.6,2.9,23.3,3.5,22.7,3.7z"/>
	<circle id="XMLID_99_" class="st0" cx="30.6" cy="2.5" r="2.5"/>
	<path id="XMLID_98_" class="st0" d="M8.1,9h9c0.4,0,0.7-0.3,0.7-0.7v0c0-0.4-0.3-0.7-0.7-0.7h-9C7.8,7.7,7.5,8,7.5,8.3v0
		C7.5,8.7,7.8,9,8.1,9z"/>
	<path id="XMLID_97_" class="st0" d="M4.5,13.5h9c0.4,0,0.7-0.3,0.7-0.7v0c0-0.4-0.3-0.7-0.7-0.7h-9c-0.4,0-0.7,0.3-0.7,0.7v0
		C3.8,13.2,4.1,13.5,4.5,13.5z"/>
	<path id="XMLID_96_" class="st0" d="M0.7,18.2h9c0.4,0,0.7-0.3,0.7-0.7v0c0-0.4-0.3-0.7-0.7-0.7h-9c-0.4,0-0.7,0.3-0.7,0.7v0
		C0,17.9,0.3,18.2,0.7,18.2z"/>
</g>
</svg>
