<?xml version="1.0" encoding="utf-8"?>
<!-- Generator: Adobe Illustrator 19.0.0, SVG Export Plug-In . SVG Version: 6.00 Build 0)  -->
<svg version="1.1" id="Layer_1" xmlns="http://www.w3.org/2000/svg" xmlns:xlink="http://www.w3.org/1999/xlink" x="0px" y="0px"
	 width="22px" height="25.4px" viewBox="0 0 22 25.4" style="enable-background:new 0 0 22 25.4;" xml:space="preserve">
<style type="text/css">
	.st0{fill:none;}
	.st1{fill:#ff0000;}
</style>
<g>
	<path class="st0" d="M11.2,5.6h-0.5c-0.6,0-1.1,0.5-1.1,1.1v15.9c0,0.6,0.5,1.1,1.1,1.1h0.5c0.6,0,1.1-0.5,1.1-1.1V6.6
		C12.3,6,11.8,5.6,11.2,5.6z"/>
	<path class="st0" d="M5.5,6.5c-0.1-0.6-0.6-1-1.2-1l-0.5,0c-0.6,0.1-1,0.6-1,1.1l1.4,15.8c0.1,0.6,0.6,1,1.2,1l0.5,0
		c0.6-0.1,1-0.6,1-1.1L5.5,6.5z"/>
	<path class="st0" d="M18.1,5.6l-0.5,0c-0.6-0.1-1.1,0.4-1.2,1L15,22.3c-0.1,0.6,0.4,1.1,1,1.1l0.5,0c0.6,0.1,1.1-0.4,1.2-1
		l1.4-15.8C19.1,6.2,18.7,5.7,18.1,5.6z"/>
	<path class="st1" d="M19.1,3.8L3.3,3.7c-0.6,0-2.5-0.1-2.5,0.4l1.4,20.2c0,0.6,0.5,1.1,1.1,1.1H19c0.6,0,1.1-0.5,1.1-1.1l1-20
		C21.1,3.7,19.7,3.8,19.1,3.8z M5.9,23.5l-0.5,0c-0.6,0.1-1.1-0.4-1.2-1L2.8,6.8c-0.1-0.6,0.4-1.1,1-1.1l0.5,0
		c0.6-0.1,1.1,0.4,1.2,1l1.4,15.8C6.9,22.9,6.5,23.4,5.9,23.5z M12.3,22.5c0,0.6-0.5,1.1-1.1,1.1h-0.5c-0.6,0-1.1-0.5-1.1-1.1V6.6
		c0-0.6,0.5-1.1,1.1-1.1h0.5c0.6,0,1.1,0.5,1.1,1.1V22.5z M19.1,6.8l-1.4,15.8c-0.1,0.6-0.6,1-1.2,1l-0.5,0c-0.6-0.1-1-0.6-1-1.1
		l1.4-15.8c0.1-0.6,0.6-1,1.2-1l0.5,0C18.7,5.7,19.1,6.2,19.1,6.8z"/>
	<path class="st1" d="M21.1,0.7h-7.8C13.3,0.3,13,0,12.6,0H9.2C8.8,0,8.5,0.3,8.5,0.7H0.8C0.4,0.7,0,1.2,0,1.8v1h22v-1
		C22,1.2,21.6,0.7,21.1,0.7z"/>
</g>
</svg>
