<?xml version="1.0" encoding="utf-8"?>
<!-- Generator: Adobe Illustrator 19.0.0, SVG Export Plug-In . SVG Version: 6.00 Build 0)  -->
<svg version="1.1" id="Layer_1" xmlns="http://www.w3.org/2000/svg" xmlns:xlink="http://www.w3.org/1999/xlink" x="0px" y="0px"
	 width="53.2px" height="59px" viewBox="0 0 53.2 59" style="enable-background:new 0 0 53.2 59;" xml:space="preserve">
<style type="text/css">
	.st0{opacity:0.8;}
	.st1{fill:#2E303A;}
</style>
<g class="st0">
	<g>
		<g>
			<path class="st1" d="M1,31.9L1,31.9c1.4,1.4,3.5,1.4,4.8,0.1L31.9,5.7c1.3-1.3,1.3-3.4,0-4.7L31.9,1c-1.3-1.3-3.4-1.3-4.7,0
				L1,27.2C-0.3,28.5-0.3,30.6,1,31.9z"/>
			<path class="st1" d="M32.2,57.1L31.4,58c-1.3,1.3-3.4,1.3-4.8,0L1.3,32.1c-1.3-1.3-1.3-3.5,0-4.8l0.8-0.8c1.3-1.3,3.4-1.3,4.8,0
				l25.4,25.8C33.5,53.6,33.5,55.8,32.2,57.1z"/>
		</g>
	</g>
	<g>
		<g>
			<g>
				<path class="st1" d="M21,31.9L21,31.9c1.4,1.4,3.5,1.4,4.8,0.1L51.9,5.7c1.3-1.3,1.3-3.4,0-4.7L51.9,1c-1.3-1.3-3.4-1.3-4.7,0
					L21,27.2C19.7,28.5,19.7,30.6,21,31.9z"/>
				<path class="st1" d="M52.2,57.1L51.4,58c-1.3,1.3-3.4,1.3-4.8,0L21.3,32.1c-1.3-1.3-1.3-3.5,0-4.8l0.8-0.8
					c1.3-1.3,3.4-1.3,4.8,0l25.4,25.8C53.5,53.6,53.5,55.8,52.2,57.1z"/>
			</g>
		</g>
	</g>
</g>
</svg>
