<?xml version="1.0" encoding="utf-8"?>
<!-- Generator: Adobe Illustrator 19.0.0, SVG Export Plug-In . SVG Version: 6.00 Build 0)  -->
<svg version="1.1" xmlns="http://www.w3.org/2000/svg" xmlns:xlink="http://www.w3.org/1999/xlink" x="0px" y="0px" width="40px"
	 height="40px" viewBox="0 0 40 40" style="enable-background:new 0 0 40 40;" xml:space="preserve">
<style type="text/css">
	.st0{display:none;}
	.st1{display:inline;stroke:#000000;stroke-miterlimit:10;}
	.st2{display:inline;}
	.st3{fill:#424244;}
	.st4{fill:#999A9B;}
	.st5{fill:#C6C6C7;}
	.st6{fill:#6E6E70;}
	.st7{fill:#4D4D4F;}
	.st8{fill:#A4A5A6;}
	.st9{fill:#D1D2D2;}
	.st10{fill:#79797B;}
	.st11{fill:#58585A;}
	.st12{fill:#B0B0B2;}
	.st13{fill:#DBDCDD;}
	.st14{fill:#838385;}
	.st15{fill:#636365;}
	.st16{fill:#BABBBC;}
	.st17{fill:#E7E7E7;}
	.st18{fill:#8F8F90;}
	.st19{fill:#53C9ED;}
	.st20{fill:#616161;}
	.st21{display:inline;fill:#616161;}
	.st22{display:inline;fill:none;}
	.st23{display:none;fill:#616161;}
	.st24{display:none;fill:#A8D15F;}
	.st25{fill:#FFFFFF;}
	.st26{display:inline;fill:#53C9ED;}
	.st27{display:inline;fill-rule:evenodd;clip-rule:evenodd;fill:#AAAAAA;}
	.st28{display:none;fill:#AAAAAA;}
	.st29{fill:#288AA0;}
	.st30{fill:none;stroke:#FFFFFF;stroke-miterlimit:10;}
</style>
<g id="Layer_1" class="st0">
</g>
<g id="Layer_2" class="st0">
	<rect id="XMLID_1_" x="6.8" y="7.2" class="st1" width="25.4" height="25.4"/>
</g>
<g id="Layer_3" class="st0">
	<g id="XMLID_3_" class="st2">
		<g id="XMLID_49_">
			<g id="XMLID_57_">
				<path id="XMLID_61_" class="st3" d="M18.3,14.5c0,0.3,0.2,0.5,0.5,0.5l0,0c0.3,0,0.5-0.2,0.5-0.5v-4.2c0-0.3-0.2-0.5-0.5-0.5
					l0,0c-0.3,0-0.5,0.2-0.5,0.5V14.5z"/>
				<path id="XMLID_58_" class="st4" d="M18.3,31.1c0,0.3,0.2,0.5,0.5,0.5l0,0c0.3,0,0.5-0.2,0.5-0.5v-4.2c0-0.3-0.2-0.5-0.5-0.5
					l0,0c-0.3,0-0.5,0.2-0.5,0.5V31.1z"/>
			</g>
			<g id="XMLID_50_">
				<path id="XMLID_54_" class="st5" d="M12.5,21.2c0.3,0,0.5-0.2,0.5-0.5l0,0c0-0.3-0.2-0.5-0.5-0.5H8.3c-0.3,0-0.5,0.2-0.5,0.5
					l0,0c0,0.3,0.2,0.5,0.5,0.5H12.5z"/>
				<path id="XMLID_51_" class="st6" d="M29.2,21.2c0.3,0,0.5-0.2,0.5-0.5l0,0c0-0.3-0.2-0.5-0.5-0.5H25c-0.3,0-0.5,0.2-0.5,0.5l0,0
					c0,0.3,0.2,0.5,0.5,0.5H29.2z"/>
			</g>
		</g>
		<g id="XMLID_34_">
			<g id="XMLID_42_">
				<path id="XMLID_46_" class="st7" d="M20.7,14.7c-0.1,0.3,0,0.5,0.3,0.6l0,0c0.3,0.1,0.5,0,0.6-0.3l1.6-3.9
					c0.1-0.3,0-0.5-0.3-0.6l0,0c-0.3-0.1-0.5,0-0.6,0.3L20.7,14.7z"/>
				<path id="XMLID_43_" class="st8" d="M14.3,30.1c-0.1,0.3,0,0.5,0.3,0.6l0,0c0.3,0.1,0.5,0,0.6-0.3l1.6-3.9
					c0.1-0.3,0-0.5-0.3-0.6l0,0c-0.3-0.1-0.5,0-0.6,0.3L14.3,30.1z"/>
			</g>
			<g id="XMLID_35_">
				<path id="XMLID_39_" class="st9" d="M12.8,18.7c0.3,0.1,0.5,0,0.6-0.3l0,0c0.1-0.3,0-0.5-0.3-0.6l-3.9-1.6
					c-0.3-0.1-0.5,0-0.6,0.3l0,0c-0.1,0.3,0,0.5,0.3,0.6L12.8,18.7z"/>
				<path id="XMLID_36_" class="st10" d="M28.2,25.1c0.3,0.1,0.5,0,0.6-0.3l0,0c0.1-0.3,0-0.5-0.3-0.6l-3.9-1.6
					c-0.3-0.1-0.5,0-0.6,0.3l0,0c-0.1,0.3,0,0.5,0.3,0.6L28.2,25.1z"/>
			</g>
		</g>
		<g id="XMLID_19_">
			<g id="XMLID_27_">
				<path id="XMLID_31_" class="st11" d="M22.8,15.9c-0.2,0.2-0.2,0.5,0,0.7l0,0c0.2,0.2,0.5,0.2,0.7,0l3-3c0.2-0.2,0.2-0.5,0-0.7
					l0,0c-0.2-0.2-0.5-0.2-0.7,0L22.8,15.9z"/>
				<path id="XMLID_28_" class="st12" d="M11,27.7c-0.2,0.2-0.2,0.5,0,0.7l0,0c0.2,0.2,0.5,0.2,0.7,0l3-3c0.2-0.2,0.2-0.5,0-0.7l0,0
					c-0.2-0.2-0.5-0.2-0.7,0L11,27.7z"/>
			</g>
			<g id="XMLID_20_">
				<path id="XMLID_24_" class="st13" d="M14,16.6c0.2,0.2,0.5,0.2,0.7,0l0,0c0.2-0.2,0.2-0.5,0-0.7l-3-3c-0.2-0.2-0.5-0.2-0.7,0
					l0,0c-0.2,0.2-0.2,0.5,0,0.7L14,16.6z"/>
				<path id="XMLID_21_" class="st14" d="M25.8,28.4c0.2,0.2,0.5,0.2,0.7,0l0,0c0.2-0.2,0.2-0.5,0-0.7l-3-3c-0.2-0.2-0.5-0.2-0.7,0
					l0,0c-0.2,0.2-0.2,0.5,0,0.7L25.8,28.4z"/>
			</g>
		</g>
		<g id="XMLID_4_">
			<g id="XMLID_12_">
				<path id="XMLID_16_" class="st15" d="M24.3,17.8c-0.3,0.1-0.4,0.4-0.3,0.6l0,0c0.1,0.3,0.4,0.4,0.6,0.3l3.9-1.6
					c0.3-0.1,0.4-0.4,0.3-0.6l0,0c-0.1-0.3-0.4-0.4-0.6-0.3L24.3,17.8z"/>
				<path id="XMLID_13_" class="st16" d="M8.9,24.2c-0.3,0.1-0.4,0.4-0.3,0.6l0,0c0.1,0.3,0.4,0.4,0.6,0.3l3.9-1.6
					c0.3-0.1,0.4-0.4,0.3-0.6l0,0c-0.1-0.3-0.4-0.4-0.6-0.3L8.9,24.2z"/>
			</g>
			<g id="XMLID_5_">
				<path id="XMLID_9_" class="st17" d="M15.9,15.1c0.1,0.3,0.4,0.4,0.6,0.3l0,0c0.3-0.1,0.4-0.4,0.3-0.6l-1.6-3.9
					c-0.1-0.3-0.4-0.4-0.6-0.3l0,0c-0.3,0.1-0.4,0.4-0.3,0.6L15.9,15.1z"/>
				<path id="XMLID_6_" class="st18" d="M22.3,30.5c0.1,0.3,0.4,0.4,0.6,0.3l0,0c0.3-0.1,0.4-0.4,0.3-0.6l-1.6-3.9
					C21.5,26,21.2,25.9,21,26l0,0c-0.3,0.1-0.4,0.4-0.3,0.6L22.3,30.5z"/>
			</g>
		</g>
	</g>
</g>
<g id="Layer_4">
	<g id="XMLID_2_" class="st0">
		<g class="st2">
			<g>
				<path class="st19" d="M18.8,14.1c0,0.3,0.2,0.5,0.5,0.5l0,0c0.3,0,0.5-0.2,0.5-0.5V9.9c0-0.3-0.2-0.5-0.5-0.5l0,0
					c-0.3,0-0.5,0.2-0.5,0.5V14.1z"/>
				<path class="st19" d="M18.8,30.7c0,0.3,0.2,0.5,0.5,0.5l0,0c0.3,0,0.5-0.2,0.5-0.5v-4.2c0-0.3-0.2-0.5-0.5-0.5l0,0
					c-0.3,0-0.5,0.2-0.5,0.5V30.7z"/>
			</g>
			<g>
				<path class="st19" d="M13.1,20.8c0.3,0,0.5-0.2,0.5-0.5l0,0c0-0.3-0.2-0.5-0.5-0.5H8.9c-0.3,0-0.5,0.2-0.5,0.5l0,0
					c0,0.3,0.2,0.5,0.5,0.5H13.1z"/>
				<path class="st19" d="M29.8,20.8c0.3,0,0.5-0.2,0.5-0.5l0,0c0-0.3-0.2-0.5-0.5-0.5h-4.2c-0.3,0-0.5,0.2-0.5,0.5l0,0
					c0,0.3,0.2,0.5,0.5,0.5H29.8z"/>
			</g>
		</g>
		<g class="st2">
			<g>
				<path class="st19" d="M21.3,14.4c-0.1,0.3,0,0.5,0.3,0.6l0,0c0.3,0.1,0.5,0,0.6-0.3l1.6-3.9c0.1-0.3,0-0.5-0.3-0.6l0,0
					c-0.3-0.1-0.5,0-0.6,0.3L21.3,14.4z"/>
				<path class="st19" d="M14.9,29.8c-0.1,0.3,0,0.5,0.3,0.6l0,0c0.3,0.1,0.5,0,0.6-0.3l1.6-3.9c0.1-0.3,0-0.5-0.3-0.6l0,0
					c-0.3-0.1-0.5,0-0.6,0.3L14.9,29.8z"/>
			</g>
			<g>
				<path class="st19" d="M13.4,18.4c0.3,0.1,0.5,0,0.6-0.3l0,0c0.1-0.3,0-0.5-0.3-0.6l-3.9-1.6c-0.3-0.1-0.5,0-0.6,0.3l0,0
					c-0.1,0.3,0,0.5,0.3,0.6L13.4,18.4z"/>
				<path class="st19" d="M28.8,24.8c0.3,0.1,0.5,0,0.6-0.3l0,0c0.1-0.3,0-0.5-0.3-0.6l-3.9-1.6c-0.3-0.1-0.5,0-0.6,0.3l0,0
					c-0.1,0.3,0,0.5,0.3,0.6L28.8,24.8z"/>
			</g>
		</g>
		<g class="st2">
			<g>
				<path class="st19" d="M23.4,15.6c-0.2,0.2-0.2,0.5,0,0.7l0,0c0.2,0.2,0.5,0.2,0.7,0l3-3c0.2-0.2,0.2-0.5,0-0.7l0,0
					c-0.2-0.2-0.5-0.2-0.7,0L23.4,15.6z"/>
				<path class="st19" d="M11.6,27.3c-0.2,0.2-0.2,0.5,0,0.7l0,0c0.2,0.2,0.5,0.2,0.7,0l3-3c0.2-0.2,0.2-0.5,0-0.7l0,0
					c-0.2-0.2-0.5-0.2-0.7,0L11.6,27.3z"/>
			</g>
			<g>
				<path class="st19" d="M14.6,16.3c0.2,0.2,0.5,0.2,0.7,0l0,0c0.2-0.2,0.2-0.5,0-0.7l-3-3c-0.2-0.2-0.5-0.2-0.7,0l0,0
					c-0.2,0.2-0.2,0.5,0,0.7L14.6,16.3z"/>
				<path class="st19" d="M26.4,28c0.2,0.2,0.5,0.2,0.7,0l0,0c0.2-0.2,0.2-0.5,0-0.7l-3-3c-0.2-0.2-0.5-0.2-0.7,0l0,0
					c-0.2,0.2-0.2,0.5,0,0.7L26.4,28z"/>
			</g>
		</g>
		<g class="st2">
			<g>
				<path class="st19" d="M24.9,17.5c-0.3,0.1-0.4,0.4-0.3,0.6l0,0c0.1,0.3,0.4,0.4,0.6,0.3l3.9-1.6c0.3-0.1,0.4-0.4,0.3-0.6l0,0
					c-0.1-0.3-0.4-0.4-0.6-0.3L24.9,17.5z"/>
				<path class="st19" d="M9.5,23.8c-0.3,0.1-0.4,0.4-0.3,0.6l0,0c0.1,0.3,0.4,0.4,0.6,0.3l3.9-1.6c0.3-0.1,0.4-0.4,0.3-0.6l0,0
					c-0.1-0.3-0.4-0.4-0.6-0.3L9.5,23.8z"/>
			</g>
			<g>
				<path class="st19" d="M16.5,14.8c0.1,0.3,0.4,0.4,0.6,0.3l0,0c0.3-0.1,0.4-0.4,0.3-0.6l-1.6-3.9c-0.1-0.3-0.4-0.4-0.6-0.3l0,0
					c-0.3,0.1-0.4,0.4-0.3,0.6L16.5,14.8z"/>
				<path class="st19" d="M22.9,30.1c0.1,0.3,0.4,0.4,0.6,0.3l0,0c0.3-0.1,0.4-0.4,0.3-0.6l-1.6-3.9c-0.1-0.3-0.4-0.4-0.6-0.3l0,0
					c-0.3,0.1-0.4,0.4-0.3,0.6L22.9,30.1z"/>
			</g>
		</g>
	</g>
	<g id="XMLID_8_" class="st0">
		<g id="XMLID_11_" class="st2">
			
				<rect id="XMLID_14_" x="5" y="17.9" transform="matrix(0.7071 -0.7071 0.7071 0.7071 -8.2861 19.0478)" class="st20" width="27.8" height="3.2"/>
		</g>
		
			<rect id="XMLID_10_" x="5.3" y="17.9" transform="matrix(-0.7071 -0.7071 0.7071 -0.7071 18.8891 46.8764)" class="st21" width="27.8" height="3.2"/>
	</g>
	<g id="XMLID_7_" class="st0">
		<circle class="st22" cx="18.8" cy="20.3" r="10"/>
		
			<rect x="8.8" y="19.2" transform="matrix(-0.7071 0.7071 -0.7071 -0.7071 46.5195 21.3536)" class="st21" width="20.1" height="2.2"/>
		<path class="st21" d="M26.6,28c4.3-4.3,4.3-11.2,0-15.5s-11.2-4.3-15.5,0c-4.3,4.3-4.3,11.2,0,15.5C15.4,32.3,22.3,32.3,26.6,28z
			 M12.4,13.8c3.6-3.6,9.4-3.6,12.9,0c3.6,3.6,3.6,9.4,0,12.9c-3.6,3.6-9.4,3.6-12.9,0S8.8,17.4,12.4,13.8z"/>
	</g>
	<path id="XMLID_15_" class="st23" d="M25.1,10.2c-3.9,4.8-6.9,10.1-9.5,15.7c-1-1.4-2.1-2.8-3.1-4.3c-1-1.3-5.1,0.2-3.9,1.8
		c1.8,2.4,3.6,4.9,5.4,7.3c0.8,1.1,3.5,0.4,4-0.7c2.9-6.6,6.1-13.2,10.7-18.8C30.2,9.1,26.2,8.9,25.1,10.2z"/>
	<path id="XMLID_101_" class="st24" d="M25.1,10.4c-3.9,4.8-6.9,10.1-9.5,15.7c-1-1.4-2.1-2.8-3.1-4.3c-1-1.3-5.1,0.2-3.9,1.8
		c1.8,2.4,3.6,4.9,5.4,7.3c0.8,1.1,3.5,0.4,4-0.7C20.8,23.5,24,17,28.6,11.3C30.2,9.3,26.2,9.1,25.1,10.4z"/>
	<g id="XMLID_104_" class="st0">
		<path id="XMLID_107_" class="st21" d="M30.8,30.5H7.8c-0.4,0-0.7-0.2-0.9-0.5c-0.2-0.3-0.2-0.7,0-1L18.4,9.1
			c0.2-0.3,0.5-0.5,0.9-0.5c0.4,0,0.7,0.2,0.9,0.5l11.5,19.8c0.2,0.3,0.2,0.7,0,1C31.5,30.3,31.1,30.5,30.8,30.5z M9.6,28.4H29
			l-9.7-16.7L9.6,28.4z"/>
		<circle id="XMLID_106_" class="st21" cx="19.3" cy="26.3" r="0.8"/>
		<path id="XMLID_105_" class="st21" d="M20.3,16.3c0-0.5-0.4-0.9-1-0.9c-0.5,0-1,0.4-1,0.9c0,0,0,0,0,0c0,0,0,0,0,0l0.4,7.6
			c0,0.3,0.3,0.6,0.6,0.6c0.3,0,0.6-0.3,0.6-0.6L20.3,16.3C20.3,16.4,20.3,16.4,20.3,16.3C20.3,16.4,20.3,16.3,20.3,16.3z"/>
	</g>
	<g id="XMLID_110_" class="st0">
		<g class="st2">
			<circle id="XMLID_121_" class="st20" cx="19" cy="20.5" r="10.9"/>
		</g>
		<g class="st2">
			
				<rect x="11.2" y="19.9" transform="matrix(0.7071 -0.7071 0.7071 0.7071 -8.9315 19.4539)" class="st25" width="15.6" height="1.2"/>
			
				<rect x="11.2" y="19.9" transform="matrix(-0.7071 -0.7071 0.7071 -0.7071 17.9628 48.4568)" class="st25" width="15.6" height="1.2"/>
		</g>
	</g>
	<g id="XMLID_103_" class="st0">
		<path class="st26" d="M29.1,13.5L28.4,13c-0.4-0.3-1.1-0.2-1.4,0.3l-0.3,0.4c0.4,0.2,0.7,0.5,1.1,0.8c0.4,0.3,0.8,0.6,1.1,0.9
			l0.3-0.4C29.6,14.4,29.5,13.8,29.1,13.5z M26.3,14.1l-6.6,8.8c0,0,0,0,0,0l-0.1,0.1c0,0-0.1,0.1-0.1,0.2l-0.3,2.3
			c0,0.1,0,0.2,0.1,0.3c0.1,0,0.1,0.1,0.2,0c0,0,0,0,0.1,0l2.1-1c0,0,0.1-0.1,0.1-0.1l6.7-9c-0.3-0.3-0.7-0.6-1.1-0.9
			C27.1,14.6,26.7,14.4,26.3,14.1z"/>
		<path class="st26" d="M25.8,13.7C25.8,13.7,25.8,13.7,25.8,13.7l0-2.7c0-1-0.8-1.8-1.8-1.8H10.2c-1,0-1.8,0.8-1.8,1.8v17.7
			c0,1,0.8,1.8,1.8,1.8H24c1,0,1.8-0.8,1.8-1.8v-8.1l-1.5,2v6.1c0,0.2-0.1,0.3-0.3,0.3H10.2c-0.2,0-0.3-0.1-0.3-0.3V11.1
			c0-0.2,0.1-0.3,0.3-0.3H24c0.2,0,0.3,0.1,0.3,0.3v4.7L25.8,13.7z M12.9,24.8c-0.4,0-0.7,0.3-0.7,0.7c0,0.4,0.3,0.7,0.7,0.7h4.4
			c0.4,0,0.7-0.3,0.7-0.7c0-0.4-0.3-0.7-0.7-0.7H12.9z M20.3,21h-7.5c-0.4,0-0.7,0.3-0.7,0.7c0,0.4,0.3,0.7,0.7,0.7h6.4L20.3,21z
			 M22.1,18c0-0.4-0.3-0.7-0.7-0.7h-8.5c-0.4,0-0.7,0.3-0.7,0.7s0.3,0.7,0.7,0.7h8.5C21.8,18.7,22.1,18.4,22.1,18z M21.4,13.5h-8.5
			c-0.4,0-0.7,0.3-0.7,0.7c0,0.4,0.3,0.7,0.7,0.7h8.5c0.4,0,0.7-0.3,0.7-0.7C22.1,13.8,21.8,13.5,21.4,13.5z"/>
	</g>
	<g id="XMLID_139_" class="st0">
		<path class="st27" d="M22,14.8c0.3,0,0.5,0.1,0.7,0.3c0,0,0,0,0,0c1.5,1.5,2.2,3.2,2.2,5.3c0,2.1-0.7,3.8-2.2,5.3l0,0
			c0,0-0.1,0.1-0.1,0.1l0,0c-0.2,0.2-0.4,0.3-0.7,0.3c-0.3,0-0.5-0.1-0.7-0.3C21.1,25.5,21,25.3,21,25c0-0.3,0.1-0.5,0.3-0.7
			c0,0,0,0,0.1-0.1c1.1-1.1,1.6-2.4,1.6-4c0-1.5-0.5-2.9-1.6-4c0,0,0,0,0,0C21.1,16.2,21,16,21,15.7c0-0.3,0.1-0.5,0.3-0.7
			C21.5,14.9,21.7,14.8,22,14.8z M18,9L18,9C18,9,18.1,9,18.2,9c0.6,0,0.9,0.3,0.9,0.9V31c0,0.6-0.3,0.9-0.9,0.9c0,0-0.1,0-0.1,0
			c0,0,0,0,0,0c0,0-0.1,0-0.1-0.1l-7.6-6.3H6.3c-0.6,0-0.9-0.3-0.9-0.9v-8.2c0-0.6,0.3-0.9,0.9-0.9h4.1L18,9z M23.8,12.9
			c0.2-0.2,0.4-0.3,0.7-0.3c0.3,0,0.5,0.1,0.7,0.3c2,2.1,3,4.5,3,7.4c0,2.9-1,5.4-3.1,7.5c-0.2,0.2-0.4,0.3-0.7,0.3
			c-0.3,0-0.5-0.1-0.7-0.3c-0.2-0.2-0.3-0.4-0.3-0.7c0-0.3,0.1-0.5,0.3-0.7c1.7-1.7,2.5-3.8,2.5-6.2c0-2.4-0.8-4.4-2.5-6.1
			c-0.2-0.2-0.3-0.4-0.3-0.7C23.5,13.3,23.6,13.1,23.8,12.9L23.8,12.9z M31.8,20.2C31.8,20.3,31.8,20.3,31.8,20.2v0.2
			c0,3.9-1.4,7.3-4,10c-0.2,0.2-0.4,0.3-0.7,0.3c-0.3,0-0.5-0.1-0.7-0.3h0c-0.2-0.2-0.3-0.4-0.3-0.7c0-0.3,0.1-0.5,0.3-0.7v0
			c2.3-2.4,3.5-5.3,3.5-8.7c0-3.3-1.1-6.2-3.4-8.5c-0.2-0.2-0.3-0.4-0.3-0.7c0-0.3,0.1-0.5,0.3-0.7c0.2-0.2,0.4-0.3,0.7-0.3
			c0.3,0,0.5,0.1,0.7,0.3h0C30.4,13.2,31.7,16.4,31.8,20.2z"/>
	</g>
	<polygon id="XMLID_140_" class="st28" points="25.4,20 12.4,11.5 12.4,28.5 	"/>
	<path id="XMLID_219_" class="st28" d="M25.1,14.4l-0.8-0.6c-0.5-0.4-1.2-0.2-1.6,0.3l-0.3,0.5c0.4,0.3,0.9,0.6,1.3,0.9
		c0.5,0.3,0.9,0.7,1.3,1l0.3-0.5C25.6,15.5,25.6,14.8,25.1,14.4z M21.9,15.2l-7.6,10.1c0,0,0,0,0,0l-0.1,0.2c0,0.1-0.1,0.1-0.1,0.2
		l-0.4,2.6c0,0.1,0,0.2,0.1,0.3c0.1,0.1,0.2,0.1,0.2,0.1c0,0,0.1,0,0.1,0l2.4-1.1c0.1,0,0.1-0.1,0.1-0.1l7.7-10.3
		c-0.4-0.3-0.8-0.7-1.3-1C22.7,15.7,22.3,15.4,21.9,15.2z"/>
	<g>
		<path class="st29" d="M28,40H12C5.4,40,0,34.6,0,28V12C0,5.4,5.4,0,12,0h16c6.6,0,12,5.4,12,12v16C40,34.6,34.6,40,28,40z"/>
		<g>
			<path class="st30" d="M20,11.5c-5.8,0-10.5,4.7-10.5,10.5S14.2,32.5,20,32.5S30.5,27.8,30.5,22c0-4.2-2.5-7.8-6-9.5"/>
			<circle class="st30" cx="20" cy="22" r="13.5"/>
			<line class="st30" x1="20" y1="8.5" x2="20" y2="6.5"/>
			<rect x="17.5" y="4.5" class="st30" width="5" height="2"/>
			<line class="st30" x1="30.5" y1="8.5" x2="32.5" y2="10.5"/>
			<line class="st30" x1="29" y1="12" x2="31.5" y2="9.5"/>
			<line class="st30" x1="20" y1="13.5" x2="20" y2="14.5"/>
			<line class="st30" x1="15.7" y1="14.6" x2="16.2" y2="15.5"/>
			<line class="st30" x1="12.6" y1="17.8" x2="13.5" y2="18.3"/>
			<line class="st30" x1="11.5" y1="22" x2="12.5" y2="22"/>
			<line class="st30" x1="12.6" y1="26.3" x2="13.5" y2="25.8"/>
			<line class="st30" x1="15.7" y1="29.4" x2="16.2" y2="28.5"/>
			<line class="st30" x1="20" y1="30.5" x2="20" y2="29.5"/>
			<line class="st30" x1="24.2" y1="29.4" x2="23.7" y2="28.5"/>
			<line class="st30" x1="27.4" y1="26.3" x2="26.5" y2="25.8"/>
			<line class="st30" x1="28.5" y1="22" x2="27.5" y2="22"/>
			<line class="st30" x1="27.4" y1="17.8" x2="26.5" y2="18.3"/>
			<line class="st30" x1="24.2" y1="14.6" x2="23.7" y2="15.5"/>
			<line class="st30" x1="20" y1="16.5" x2="20" y2="22"/>
		</g>
	</g>
</g>
</svg>
