<?xml version="1.0" encoding="utf-8"?>
<!-- Generator: Adobe Illustrator 19.0.0, SVG Export Plug-In . SVG Version: 6.00 Build 0)  -->
<svg version="1.1" id="Layer_1" xmlns="http://www.w3.org/2000/svg" xmlns:xlink="http://www.w3.org/1999/xlink" x="0px" y="0px"
	 width="17.7px" height="22px" viewBox="0 0 17.7 22" style="enable-background:new 0 0 17.7 22;" xml:space="preserve">
<style type="text/css">
	.st0{fill:#2E303A;}
</style>
<path class="st0" d="M16.7,1.7l-1.6-1.2c-1-0.7-2.3-0.7-2.9,0.1l-0.5,0.7c0.8,0.6,1.7,1.2,2.6,1.8c0.9,0.7,1.8,1.4,2.6,2l0.5-0.7
	C18,3.7,17.7,2.5,16.7,1.7z M11.1,2.1L0.3,16.6c0,0,0,0,0,0l-0.2,0.2C0,16.9,0,17,0,17.1l0.1,4.2c0,0.2,0.1,0.4,0.3,0.5
	C0.5,22,0.7,22,0.8,22c0,0,0.1,0,0.1,0L5,20.9c0.1,0,0.2-0.1,0.2-0.2L16.3,5.9c-0.8-0.7-1.7-1.4-2.6-2C12.8,3.3,12,2.6,11.1,2.1z"/>
</svg>
