<?xml version="1.0" encoding="utf-8"?>
<!-- Generator: Adobe Illustrator 19.0.0, SVG Export Plug-In . SVG Version: 6.00 Build 0)  -->
<svg version="1.1" id="Layer_1" xmlns="http://www.w3.org/2000/svg" xmlns:xlink="http://www.w3.org/1999/xlink" x="0px" y="0px"
	 width="40px" height="40px" viewBox="0 0 40 40" style="enable-background:new 0 0 40 40;" xml:space="preserve">
<style type="text/css">
	.st0{fill:#5A863B;}
	.st1{fill:#FFFFFF;}
	.st2{opacity:0.85;fill:#FFFFFF;}
	.st3{opacity:0.45;fill:#FFFFFF;}
	.st4{opacity:0.15;fill:#FFFFFF;}
	.st5{opacity:0.95;fill:#FFFFFF;}
	.st6{opacity:0.55;fill:#FFFFFF;}
	.st7{opacity:0.25;fill:#FFFFFF;}
	.st8{opacity:0.975;fill:#FFFFFF;}
	.st9{opacity:0.65;fill:#FFFFFF;}
	.st10{opacity:0.35;fill:#FFFFFF;}
	.st11{opacity:0.99;fill:#FFFFFF;}
	.st12{opacity:0.75;fill:#FFFFFF;}
</style>
<g id="XMLID_2_">
	<path id="XMLID_90_" class="st0" d="M28,40H12C5.4,40,0,34.6,0,28V12C0,5.4,5.4,0,12,0h16c6.6,0,12,5.4,12,12v16
		C40,34.6,34.6,40,28,40z"/>
	<g id="XMLID_3_">
		<path id="XMLID_87_" class="st1" d="M19.8,11.6c0,0.4-0.3,0.7-0.7,0.7l0,0c-0.4,0-0.7-0.3-0.7-0.7V5.9c0-0.4,0.3-0.7,0.7-0.7l0,0
			c0.4,0,0.7,0.3,0.7,0.7V11.6z"/>
		<path id="XMLID_84_" class="st2" d="M19.8,34.5c0,0.4-0.3,0.7-0.7,0.7l0,0c-0.4,0-0.7-0.3-0.7-0.7v-5.8c0-0.4,0.3-0.7,0.7-0.7l0,0
			c0.4,0,0.7,0.3,0.7,0.7V34.5z"/>
		<path id="XMLID_81_" class="st1" d="M27.7,20.9c-0.4,0-0.7-0.3-0.7-0.7l0,0c0-0.4,0.3-0.7,0.7-0.7h5.8c0.4,0,0.7,0.3,0.7,0.7l0,0
			c0,0.4-0.3,0.7-0.7,0.7H27.7z"/>
		<path id="XMLID_78_" class="st3" d="M4.8,20.9c-0.4,0-0.7-0.3-0.7-0.7l0,0c0-0.4,0.3-0.7,0.7-0.7h5.8c0.4,0,0.7,0.3,0.7,0.7l0,0
			c0,0.4-0.3,0.7-0.7,0.7H4.8z"/>
		<path id="XMLID_75_" class="st4" d="M16.5,12c0.1,0.3,0,0.7-0.4,0.9l0,0c-0.3,0.1-0.7,0-0.9-0.4L13,7.2c-0.1-0.3,0-0.7,0.4-0.9
			l0,0c0.3-0.1,0.7,0,0.9,0.4L16.5,12z"/>
		<path id="XMLID_72_" class="st5" d="M25.3,33.2c0.1,0.3,0,0.7-0.4,0.9l0,0c-0.3,0.1-0.7,0-0.9-0.4l-2.2-5.3
			c-0.1-0.3,0-0.7,0.4-0.9l0,0c0.3-0.1,0.7,0,0.9,0.4L25.3,33.2z"/>
		<path id="XMLID_69_" class="st1" d="M27.3,17.5c-0.3,0.1-0.7,0-0.9-0.4l0,0c-0.1-0.3,0-0.7,0.4-0.9l5.3-2.2c0.3-0.1,0.7,0,0.9,0.4
			l0,0c0.1,0.3,0,0.7-0.4,0.9L27.3,17.5z"/>
		<path id="XMLID_66_" class="st6" d="M6.2,26.3c-0.3,0.1-0.7,0-0.9-0.4l0,0c-0.1-0.3,0-0.7,0.4-0.9l5.3-2.2c0.3-0.1,0.7,0,0.9,0.4
			l0,0c0.1,0.3,0,0.7-0.4,0.9L6.2,26.3z"/>
		<path id="XMLID_63_" class="st7" d="M13.6,13.7c0.3,0.3,0.3,0.7,0,1l0,0c-0.3,0.3-0.7,0.3-1,0l-4.1-4.1c-0.3-0.3-0.3-0.7,0-1l0,0
			c0.3-0.3,0.7-0.3,1,0L13.6,13.7z"/>
		<path id="XMLID_60_" class="st8" d="M29.8,29.8c0.3,0.3,0.3,0.7,0,1l0,0c-0.3,0.3-0.7,0.3-1,0l-4.1-4.1c-0.3-0.3-0.3-0.7,0-1l0,0
			c0.3-0.3,0.7-0.3,1,0L29.8,29.8z"/>
		<path id="XMLID_57_" class="st1" d="M25.7,14.6c-0.3,0.3-0.7,0.3-1,0l0,0c-0.3-0.3-0.3-0.7,0-1l4.1-4.1c0.3-0.3,0.7-0.3,1,0l0,0
			c0.3,0.3,0.3,0.7,0,1L25.7,14.6z"/>
		<path id="XMLID_16_" class="st9" d="M9.5,30.8c-0.3,0.3-0.7,0.3-1,0l0,0c-0.3-0.3-0.3-0.7,0-1l4.1-4.1c0.3-0.3,0.7-0.3,1,0l0,0
			c0.3,0.3,0.3,0.7,0,1L9.5,30.8z"/>
		<path id="XMLID_13_" class="st10" d="M11.5,16.3c0.3,0.1,0.5,0.5,0.4,0.9l0,0c-0.1,0.3-0.5,0.5-0.9,0.4l-5.3-2.2
			c-0.3-0.1-0.5-0.5-0.4-0.9l0,0c0.1-0.3,0.5-0.5,0.9-0.4L11.5,16.3z"/>
		<path id="XMLID_10_" class="st11" d="M32.6,25c0.3,0.1,0.5,0.5,0.4,0.9l0,0c-0.1,0.3-0.5,0.5-0.9,0.4l-5.3-2.2
			c-0.3-0.1-0.5-0.5-0.4-0.9l0,0c0.1-0.3,0.5-0.5,0.9-0.4L32.6,25z"/>
		<path id="XMLID_7_" class="st1" d="M23,12.6c-0.1,0.3-0.5,0.5-0.9,0.4l0,0c-0.3-0.1-0.5-0.5-0.4-0.9L24,6.7
			c0.1-0.3,0.5-0.5,0.9-0.4l0,0c0.3,0.1,0.5,0.5,0.4,0.9L23,12.6z"/>
		<path id="XMLID_4_" class="st12" d="M14.3,33.7c-0.1,0.3-0.5,0.5-0.9,0.4l0,0c-0.3-0.1-0.5-0.5-0.4-0.9l2.2-5.3
			c0.1-0.3,0.5-0.5,0.9-0.4l0,0c0.3,0.1,0.5,0.5,0.4,0.9L14.3,33.7z"/>
	</g>
</g>
</svg>
