<?xml version="1.0" encoding="utf-8"?>
<!-- Generator: Adobe Illustrator 19.0.0, SVG Export Plug-In . SVG Version: 6.00 Build 0)  -->
<svg version="1.1" xmlns="http://www.w3.org/2000/svg" xmlns:xlink="http://www.w3.org/1999/xlink" x="0px" y="0px" width="11.7px"
	 height="15px" viewBox="0 0 11.7 15" style="enable-background:new 0 0 11.7 15;" xml:space="preserve">
<style type="text/css">
	.st0{display:none;}
	.st1{display:inline;stroke:#000000;stroke-miterlimit:10;}
	.st2{display:inline;}
	.st3{fill:#424244;}
	.st4{fill:#999A9B;}
	.st5{fill:#C6C6C7;}
	.st6{fill:#6E6E70;}
	.st7{fill:#4D4D4F;}
	.st8{fill:#A4A5A6;}
	.st9{fill:#D1D2D2;}
	.st10{fill:#79797B;}
	.st11{fill:#58585A;}
	.st12{fill:#B0B0B2;}
	.st13{fill:#DBDCDD;}
	.st14{fill:#838385;}
	.st15{fill:#636365;}
	.st16{fill:#BABBBC;}
	.st17{fill:#E7E7E7;}
	.st18{fill:#8F8F90;}
	.st19{fill:#53C9ED;}
	.st20{fill:#616161;}
	.st21{display:inline;fill:#616161;}
	.st22{display:inline;fill:none;}
	.st23{display:none;fill:#616161;}
	.st24{display:none;fill:#A8D15F;}
	.st25{fill:#FFFFFF;}
	.st26{display:inline;fill:#53C9ED;}
	.st27{display:inline;fill-rule:evenodd;clip-rule:evenodd;fill:#AAAAAA;}
	.st28{display:none;fill:#AAAAAA;}
	.st29{fill:#AAAAAA;}
</style>
<g id="Layer_1" class="st0">
</g>
<g id="Layer_2" class="st0">
	<rect id="XMLID_1_" x="-6.9" y="-6.4" class="st1" width="25.4" height="25.4"/>
</g>
<g id="Layer_3" class="st0">
	<g id="XMLID_3_" class="st2">
		<g id="XMLID_49_">
			<g id="XMLID_57_">
				<path id="XMLID_61_" class="st3" d="M4.5,0.8c0,0.3,0.2,0.5,0.5,0.5l0,0c0.3,0,0.5-0.2,0.5-0.5v-4.2c0-0.3-0.2-0.5-0.5-0.5l0,0
					c-0.3,0-0.5,0.2-0.5,0.5V0.8z"/>
				<path id="XMLID_58_" class="st4" d="M4.5,17.5C4.5,17.8,4.7,18,5,18l0,0c0.3,0,0.5-0.2,0.5-0.5v-4.2c0-0.3-0.2-0.5-0.5-0.5l0,0
					c-0.3,0-0.5,0.2-0.5,0.5V17.5z"/>
			</g>
			<g id="XMLID_50_">
				<path id="XMLID_54_" class="st5" d="M-1.2,7.6c0.3,0,0.5-0.2,0.5-0.5l0,0c0-0.3-0.2-0.5-0.5-0.5h-4.2c-0.3,0-0.5,0.2-0.5,0.5
					l0,0c0,0.3,0.2,0.5,0.5,0.5H-1.2z"/>
				<path id="XMLID_51_" class="st6" d="M15.5,7.6c0.3,0,0.5-0.2,0.5-0.5l0,0c0-0.3-0.2-0.5-0.5-0.5h-4.2c-0.3,0-0.5,0.2-0.5,0.5
					l0,0c0,0.3,0.2,0.5,0.5,0.5H15.5z"/>
			</g>
		</g>
		<g id="XMLID_34_">
			<g id="XMLID_42_">
				<path id="XMLID_46_" class="st7" d="M6.9,1.1C6.8,1.4,7,1.7,7.2,1.8l0,0c0.3,0.1,0.5,0,0.6-0.3l1.6-3.9c0.1-0.3,0-0.5-0.3-0.6
					l0,0C8.9-3.1,8.7-3,8.6-2.8L6.9,1.1z"/>
				<path id="XMLID_43_" class="st8" d="M0.6,16.5c-0.1,0.3,0,0.5,0.3,0.6l0,0c0.3,0.1,0.5,0,0.6-0.3L3.1,13c0.1-0.3,0-0.5-0.3-0.6
					l0,0c-0.3-0.1-0.5,0-0.6,0.3L0.6,16.5z"/>
			</g>
			<g id="XMLID_35_">
				<path id="XMLID_39_" class="st9" d="M-0.9,5.1c0.3,0.1,0.5,0,0.6-0.3l0,0c0.1-0.3,0-0.5-0.3-0.6l-3.9-1.6
					c-0.3-0.1-0.5,0-0.6,0.3l0,0c-0.1,0.3,0,0.5,0.3,0.6L-0.9,5.1z"/>
				<path id="XMLID_36_" class="st10" d="M14.5,11.5c0.3,0.1,0.5,0,0.6-0.3l0,0c0.1-0.3,0-0.5-0.3-0.6L11,9c-0.3-0.1-0.5,0-0.6,0.3
					l0,0c-0.1,0.3,0,0.5,0.3,0.6L14.5,11.5z"/>
			</g>
		</g>
		<g id="XMLID_19_">
			<g id="XMLID_27_">
				<path id="XMLID_31_" class="st11" d="M9.1,2.3C8.9,2.5,8.9,2.8,9.1,3l0,0c0.2,0.2,0.5,0.2,0.7,0l3-3c0.2-0.2,0.2-0.5,0-0.7l0,0
					c-0.2-0.2-0.5-0.2-0.7,0L9.1,2.3z"/>
				<path id="XMLID_28_" class="st12" d="M-2.7,14.1c-0.2,0.2-0.2,0.5,0,0.7l0,0c0.2,0.2,0.5,0.2,0.7,0l3-3c0.2-0.2,0.2-0.5,0-0.7
					l0,0c-0.2-0.2-0.5-0.2-0.7,0L-2.7,14.1z"/>
			</g>
			<g id="XMLID_20_">
				<path id="XMLID_24_" class="st13" d="M0.3,3C0.5,3.2,0.8,3.2,1,3l0,0c0.2-0.2,0.2-0.5,0-0.7l-3-3c-0.2-0.2-0.5-0.2-0.7,0l0,0
					c-0.2,0.2-0.2,0.5,0,0.7L0.3,3z"/>
				<path id="XMLID_21_" class="st14" d="M12,14.8c0.2,0.2,0.5,0.2,0.7,0l0,0c0.2-0.2,0.2-0.5,0-0.7l-3-3c-0.2-0.2-0.5-0.2-0.7,0
					l0,0c-0.2,0.2-0.2,0.5,0,0.7L12,14.8z"/>
			</g>
		</g>
		<g id="XMLID_4_">
			<g id="XMLID_12_">
				<path id="XMLID_16_" class="st15" d="M10.6,4.2c-0.3,0.1-0.4,0.4-0.3,0.6l0,0c0.1,0.3,0.4,0.4,0.6,0.3l3.9-1.6
					c0.3-0.1,0.4-0.4,0.3-0.6l0,0c-0.1-0.3-0.4-0.4-0.6-0.3L10.6,4.2z"/>
				<path id="XMLID_13_" class="st16" d="M-4.8,10.6c-0.3,0.1-0.4,0.4-0.3,0.6l0,0c0.1,0.3,0.4,0.4,0.6,0.3l3.9-1.6
					c0.3-0.1,0.4-0.4,0.3-0.6l0,0C-0.4,9-0.7,8.9-0.9,9L-4.8,10.6z"/>
			</g>
			<g id="XMLID_5_">
				<path id="XMLID_9_" class="st17" d="M2.2,1.5c0.1,0.3,0.4,0.4,0.6,0.3l0,0c0.3-0.1,0.4-0.4,0.3-0.6L1.5-2.8C1.4-3,1.1-3.1,0.8-3
					l0,0C0.6-2.9,0.5-2.6,0.6-2.4L2.2,1.5z"/>
				<path id="XMLID_6_" class="st18" d="M8.6,16.9c0.1,0.3,0.4,0.4,0.6,0.3l0,0c0.3-0.1,0.4-0.4,0.3-0.6l-1.6-3.9
					c-0.1-0.3-0.4-0.4-0.6-0.3l0,0C7,12.5,6.8,12.7,6.9,13L8.6,16.9z"/>
			</g>
		</g>
	</g>
</g>
<g id="Layer_4">
	<g id="XMLID_2_" class="st0">
		<g class="st2">
			<g>
				<path class="st19" d="M5.1,0.5C5.1,0.8,5.3,1,5.6,1l0,0c0.3,0,0.5-0.2,0.5-0.5v-4.2c0-0.3-0.2-0.5-0.5-0.5l0,0
					C5.3-4.2,5.1-4,5.1-3.7V0.5z"/>
				<path class="st19" d="M5.1,17.1c0,0.3,0.2,0.5,0.5,0.5l0,0c0.3,0,0.5-0.2,0.5-0.5v-4.2c0-0.3-0.2-0.5-0.5-0.5l0,0
					c-0.3,0-0.5,0.2-0.5,0.5V17.1z"/>
			</g>
			<g>
				<path class="st19" d="M-0.6,7.2c0.3,0,0.5-0.2,0.5-0.5l0,0c0-0.3-0.2-0.5-0.5-0.5h-4.2c-0.3,0-0.5,0.2-0.5,0.5l0,0
					c0,0.3,0.2,0.5,0.5,0.5H-0.6z"/>
				<path class="st19" d="M16,7.2c0.3,0,0.5-0.2,0.5-0.5l0,0c0-0.3-0.2-0.5-0.5-0.5h-4.2c-0.3,0-0.5,0.2-0.5,0.5l0,0
					c0,0.3,0.2,0.5,0.5,0.5H16z"/>
			</g>
		</g>
		<g class="st2">
			<g>
				<path class="st19" d="M7.5,0.8C7.4,1,7.5,1.3,7.8,1.4l0,0c0.3,0.1,0.5,0,0.6-0.3L10-2.8c0.1-0.3,0-0.5-0.3-0.6l0,0
					c-0.3-0.1-0.5,0-0.6,0.3L7.5,0.8z"/>
				<path class="st19" d="M1.1,16.1c-0.1,0.3,0,0.5,0.3,0.6l0,0c0.3,0.1,0.5,0,0.6-0.3l1.6-3.9c0.1-0.3,0-0.5-0.3-0.6l0,0
					c-0.3-0.1-0.5,0-0.6,0.3L1.1,16.1z"/>
			</g>
			<g>
				<path class="st19" d="M-0.3,4.8c0.3,0.1,0.5,0,0.6-0.3l0,0C0.4,4.3,0.3,4,0,3.9l-3.9-1.6c-0.3-0.1-0.5,0-0.6,0.3l0,0
					c-0.1,0.3,0,0.5,0.3,0.6L-0.3,4.8z"/>
				<path class="st19" d="M15,11.1c0.3,0.1,0.5,0,0.6-0.3l0,0c0.1-0.3,0-0.5-0.3-0.6l-3.9-1.6c-0.3-0.1-0.5,0-0.6,0.3l0,0
					c-0.1,0.3,0,0.5,0.3,0.6L15,11.1z"/>
			</g>
		</g>
		<g class="st2">
			<g>
				<path class="st19" d="M9.6,2c-0.2,0.2-0.2,0.5,0,0.7l0,0c0.2,0.2,0.5,0.2,0.7,0l3-3c0.2-0.2,0.2-0.5,0-0.7l0,0
					c-0.2-0.2-0.5-0.2-0.7,0L9.6,2z"/>
				<path class="st19" d="M-2.1,13.7c-0.2,0.2-0.2,0.5,0,0.7l0,0c0.2,0.2,0.5,0.2,0.7,0l3-3c0.2-0.2,0.2-0.5,0-0.7l0,0
					c-0.2-0.2-0.5-0.2-0.7,0L-2.1,13.7z"/>
			</g>
			<g>
				<path class="st19" d="M0.8,2.7c0.2,0.2,0.5,0.2,0.7,0l0,0c0.2-0.2,0.2-0.5,0-0.7l-3-3c-0.2-0.2-0.5-0.2-0.7,0l0,0
					c-0.2,0.2-0.2,0.5,0,0.7L0.8,2.7z"/>
				<path class="st19" d="M12.6,14.4c0.2,0.2,0.5,0.2,0.7,0l0,0c0.2-0.2,0.2-0.5,0-0.7l-3-3c-0.2-0.2-0.5-0.2-0.7,0l0,0
					c-0.2,0.2-0.2,0.5,0,0.7L12.6,14.4z"/>
			</g>
		</g>
		<g class="st2">
			<g>
				<path class="st19" d="M11.1,3.9c-0.3,0.1-0.4,0.4-0.3,0.6l0,0c0.1,0.3,0.4,0.4,0.6,0.3l3.9-1.6c0.3-0.1,0.4-0.4,0.3-0.6l0,0
					c-0.1-0.3-0.4-0.4-0.6-0.3L11.1,3.9z"/>
				<path class="st19" d="M-4.2,10.2c-0.3,0.1-0.4,0.4-0.3,0.6l0,0c0.1,0.3,0.4,0.4,0.6,0.3L0,9.5c0.3-0.1,0.4-0.4,0.3-0.6l0,0
					C0.2,8.6-0.1,8.5-0.3,8.6L-4.2,10.2z"/>
			</g>
			<g>
				<path class="st19" d="M2.8,1.1c0.1,0.3,0.4,0.4,0.6,0.3l0,0C3.6,1.3,3.8,1,3.7,0.8L2.1-3.1C1.9-3.4,1.7-3.5,1.4-3.4l0,0
					C1.2-3.3,1-3,1.1-2.8L2.8,1.1z"/>
				<path class="st19" d="M9.1,16.5c0.1,0.3,0.4,0.4,0.6,0.3l0,0c0.3-0.1,0.4-0.4,0.3-0.6l-1.6-3.9C8.3,12,8,11.9,7.8,12l0,0
					c-0.3,0.1-0.4,0.4-0.3,0.6L9.1,16.5z"/>
			</g>
		</g>
	</g>
	<g id="XMLID_8_" class="st0">
		<g id="XMLID_11_" class="st2">
			
				<rect id="XMLID_14_" x="-8.8" y="4.3" transform="matrix(0.7071 -0.7071 0.7071 0.7071 -2.6857 5.3437)" class="st20" width="27.8" height="3.2"/>
		</g>
		
			<rect id="XMLID_10_" x="-8.5" y="4.3" transform="matrix(-0.7071 -0.7071 0.7071 -0.7071 5.0551 13.9215)" class="st21" width="27.8" height="3.2"/>
	</g>
	<g id="XMLID_7_" class="st0">
		<circle class="st22" cx="5.1" cy="6.7" r="10"/>
		
			<rect x="-4.9" y="5.6" transform="matrix(-0.7071 0.7071 -0.7071 -0.7071 13.4348 7.8331)" class="st21" width="20.1" height="2.2"/>
		<path class="st21" d="M12.8,14.4c4.3-4.3,4.3-11.2,0-15.5S1.6-5.3-2.6-1c-4.3,4.3-4.3,11.2,0,15.5C1.6,18.7,8.6,18.7,12.8,14.4z
			 M-1.4,0.2c3.6-3.6,9.4-3.6,12.9,0c3.6,3.6,3.6,9.4,0,12.9c-3.6,3.6-9.4,3.6-12.9,0S-4.9,3.8-1.4,0.2z"/>
	</g>
	<path id="XMLID_15_" class="st23" d="M11.4-3.4C7.5,1.4,4.5,6.7,1.9,12.3c-1-1.4-2.1-2.8-3.1-4.3c-1-1.3-5.1,0.2-3.9,1.8
		c1.8,2.4,3.6,4.9,5.4,7.3c0.8,1.1,3.5,0.4,4-0.7C7,9.7,10.3,3.2,14.9-2.5C16.5-4.5,12.4-4.7,11.4-3.4z"/>
	<path id="XMLID_101_" class="st24" d="M11.4-3.2C7.5,1.6,4.5,6.9,1.9,12.5c-1-1.4-2.1-2.8-3.1-4.3c-1-1.3-5.1,0.2-3.9,1.8
		c1.8,2.4,3.6,4.9,5.4,7.3c0.8,1.1,3.5,0.4,4-0.7C7,9.9,10.3,3.4,14.9-2.3C16.5-4.3,12.4-4.5,11.4-3.2z"/>
	<g id="XMLID_104_" class="st0">
		<path id="XMLID_107_" class="st21" d="M17,16.8H-5.9c-0.4,0-0.7-0.2-0.9-0.5c-0.2-0.3-0.2-0.7,0-1L4.7-4.5C4.9-4.8,5.2-5,5.6-5
			c0.4,0,0.7,0.2,0.9,0.5l11.5,19.8c0.2,0.3,0.2,0.7,0,1C17.7,16.6,17.4,16.8,17,16.8z M-4.1,14.8h19.4L5.6-1.9L-4.1,14.8z"/>
		<circle id="XMLID_106_" class="st21" cx="5.6" cy="12.7" r="0.8"/>
		<path id="XMLID_105_" class="st21" d="M6.6,2.7c0-0.5-0.4-0.9-1-0.9c-0.5,0-1,0.4-1,0.9c0,0,0,0,0,0c0,0,0,0,0,0l0.4,7.6
			c0,0.3,0.3,0.6,0.6,0.6c0.3,0,0.6-0.3,0.6-0.6L6.6,2.7C6.6,2.8,6.6,2.8,6.6,2.7C6.6,2.7,6.6,2.7,6.6,2.7z"/>
	</g>
	<g id="XMLID_110_" class="st0">
		<g class="st2">
			<circle id="XMLID_121_" class="st20" cx="5.3" cy="6.9" r="10.9"/>
		</g>
		<g class="st2">
			
				<rect x="-2.5" y="6.3" transform="matrix(0.7071 -0.7071 0.7071 0.7071 -3.3311 5.7497)" class="st25" width="15.6" height="1.2"/>
			
				<rect x="-2.5" y="6.3" transform="matrix(-0.7071 -0.7071 0.7071 -0.7071 4.1289 15.5019)" class="st25" width="15.6" height="1.2"/>
		</g>
	</g>
	<g id="XMLID_103_" class="st0">
		<path class="st26" d="M15.4-0.2l-0.7-0.5c-0.4-0.3-1.1-0.2-1.4,0.3L13,0c0.4,0.2,0.7,0.5,1.1,0.8c0.4,0.3,0.8,0.6,1.1,0.9l0.3-0.4
			C15.9,0.8,15.8,0.2,15.4-0.2z M12.6,0.5L6,9.3c0,0,0,0,0,0L5.9,9.5c0,0-0.1,0.1-0.1,0.2l-0.3,2.3c0,0.1,0,0.2,0.1,0.3
			c0.1,0,0.1,0.1,0.2,0c0,0,0,0,0.1,0l2.1-1c0,0,0.1-0.1,0.1-0.1l6.7-9c-0.3-0.3-0.7-0.6-1.1-0.9C13.3,1,13,0.7,12.6,0.5z"/>
		<path class="st26" d="M12.1,0.1C12.1,0.1,12.1,0.1,12.1,0.1l0-2.7c0-1-0.8-1.8-1.8-1.8H-3.6c-1,0-1.8,0.8-1.8,1.8v17.7
			c0,1,0.8,1.8,1.8,1.8h13.9c1,0,1.8-0.8,1.8-1.8V7l-1.5,2v6.1c0,0.2-0.1,0.3-0.3,0.3H-3.6c-0.2,0-0.3-0.1-0.3-0.3V-2.6
			c0-0.2,0.1-0.3,0.3-0.3h13.9c0.2,0,0.3,0.1,0.3,0.3v4.7L12.1,0.1z M-0.9,11.2c-0.4,0-0.7,0.3-0.7,0.7c0,0.4,0.3,0.7,0.7,0.7h4.4
			c0.4,0,0.7-0.3,0.7-0.7c0-0.4-0.3-0.7-0.7-0.7H-0.9z M6.6,7.4h-7.5c-0.4,0-0.7,0.3-0.7,0.7c0,0.4,0.3,0.7,0.7,0.7h6.4L6.6,7.4z
			 M8.3,4.4C8.3,4,8,3.7,7.6,3.7h-8.5c-0.4,0-0.7,0.3-0.7,0.7s0.3,0.7,0.7,0.7h8.5C8,5.1,8.3,4.8,8.3,4.4z M7.6-0.1h-8.5
			c-0.4,0-0.7,0.3-0.7,0.7s0.3,0.7,0.7,0.7h8.5C8,1.3,8.3,1,8.3,0.6S8-0.1,7.6-0.1z"/>
	</g>
	<g id="XMLID_139_" class="st0">
		<path class="st27" d="M8.2,1.1c0.3,0,0.5,0.1,0.7,0.3c0,0,0,0,0,0c1.5,1.5,2.2,3.2,2.2,5.3c0,2.1-0.7,3.8-2.2,5.3l0,0
			c0,0-0.1,0.1-0.1,0.1l0,0c-0.2,0.2-0.4,0.3-0.7,0.3c-0.3,0-0.5-0.1-0.7-0.3c-0.2-0.2-0.3-0.4-0.3-0.7c0-0.3,0.1-0.5,0.3-0.7
			c0,0,0,0,0.1-0.1c1.1-1.1,1.6-2.4,1.6-4c0-1.5-0.5-2.9-1.6-4c0,0,0,0,0,0C7.4,2.6,7.3,2.3,7.3,2.1c0-0.3,0.1-0.5,0.3-0.7
			C7.8,1.2,8,1.1,8.2,1.1z M4.2-4.6L4.2-4.6c0.1-0.1,0.1-0.1,0.2-0.1c0.6,0,0.9,0.3,0.9,0.9v21.1c0,0.6-0.3,0.9-0.9,0.9
			c0,0-0.1,0-0.1,0c0,0,0,0,0,0c0,0-0.1,0-0.1-0.1l-7.6-6.3h-4.1c-0.6,0-0.9-0.3-0.9-0.9V2.8c0-0.6,0.3-0.9,0.9-0.9h4.1L4.2-4.6z
			 M10-0.7c0.2-0.2,0.4-0.3,0.7-0.3c0.3,0,0.5,0.1,0.7,0.3c2,2.1,3,4.5,3,7.4c0,2.9-1,5.4-3.1,7.5c-0.2,0.2-0.4,0.3-0.7,0.3
			c-0.3,0-0.5-0.1-0.7-0.3c-0.2-0.2-0.3-0.4-0.3-0.7c0-0.3,0.1-0.5,0.3-0.7c1.7-1.7,2.5-3.8,2.5-6.2c0-2.4-0.8-4.4-2.5-6.1
			C9.8,0.5,9.7,0.2,9.7,0C9.7-0.3,9.8-0.5,10-0.7L10-0.7z M18,6.6C18,6.6,18,6.7,18,6.6v0.2c0,3.9-1.4,7.3-4,10
			c-0.2,0.2-0.4,0.3-0.7,0.3c-0.3,0-0.5-0.1-0.7-0.3h0c-0.2-0.2-0.3-0.4-0.3-0.7c0-0.3,0.1-0.5,0.3-0.7v0c2.3-2.4,3.5-5.3,3.5-8.7
			c0-3.3-1.1-6.2-3.4-8.5c-0.2-0.2-0.3-0.4-0.3-0.7c0-0.3,0.1-0.5,0.3-0.7c0.2-0.2,0.4-0.3,0.7-0.3c0.3,0,0.5,0.1,0.7,0.3h0
			C16.6-0.4,17.9,2.8,18,6.6z"/>
	</g>
	<polygon id="XMLID_140_" class="st28" points="11.7,6.4 -1.3,-2.1 -1.3,14.9 	"/>
	<path class="st29" d="M11.3,0.8l-0.8-0.6C10-0.2,9.3,0,8.9,0.5L8.6,1C9,1.3,9.4,1.6,9.9,1.9c0.5,0.3,0.9,0.7,1.3,1l0.3-0.5
		C11.9,1.9,11.8,1.2,11.3,0.8z M8.1,1.6L0.6,11.7c0,0,0,0,0,0l-0.1,0.2c0,0.1-0.1,0.1-0.1,0.2L0,14.6c0,0.1,0,0.2,0.1,0.3
		C0.2,15,0.3,15,0.4,15c0,0,0.1,0,0.1,0l2.4-1.1c0.1,0,0.1-0.1,0.1-0.1l7.7-10.3c-0.4-0.3-0.8-0.7-1.3-1C9,2.1,8.6,1.8,8.1,1.6z"/>
</g>
</svg>
