<?xml version="1.0" encoding="utf-8"?>
<!-- Generator: Adobe Illustrator 19.0.0, SVG Export Plug-In . SVG Version: 6.00 Build 0)  -->
<svg version="1.1" id="Layer_1" xmlns="http://www.w3.org/2000/svg" xmlns:xlink="http://www.w3.org/1999/xlink" x="0px" y="0px"
	 width="23.5px" height="29.6px" viewBox="0 0 23.5 29.6" style="enable-background:new 0 0 23.5 29.6;" xml:space="preserve">
<style type="text/css">
	.st0{fill:none;stroke:#31333E;stroke-width:3;stroke-miterlimit:10;}
	.st1{fill:#FFFFFF;}
	.st2{fill:#31333E;}
</style>
<g>
	<path class="st0" d="M13.3,23.5H4.8c-1.8,0-3.3-1.5-3.3-3.3V4.8C1.5,3,3,1.5,4.8,1.5h8.5c1.8,0,3.3,1.5,3.3,3.3v15.4
		C16.7,22,15.2,23.5,13.3,23.5z"/>
	<path class="st1" d="M20.6,29.6H10.3c-1.6,0-2.8-1.3-2.8-2.8V9.3c0-1.6,1.3-2.8,2.8-2.8h10.3c1.6,0,2.8,1.3,2.8,2.8v17.5
		C23.5,28.4,22.2,29.6,20.6,29.6z"/>
	<path class="st2" d="M19.8,29.1h-8.7c-1.8,0-3.3-1.5-3.3-3.3V10.3C7.9,8.5,9.4,7,11.1,7h8.7c1.8,0,3.3,1.5,3.3,3.3v15.5
		C23.1,27.6,21.6,29.1,19.8,29.1z"/>
</g>
</svg>
