<?xml version="1.0" encoding="utf-8"?>
<!-- Generator: Adobe Illustrator 19.0.0, SVG Export Plug-In . SVG Version: 6.00 Build 0)  -->
<svg version="1.1" id="Layer_1" xmlns="http://www.w3.org/2000/svg" xmlns:xlink="http://www.w3.org/1999/xlink" x="0px" y="0px"
	 width="20px" height="11px" viewBox="-2 7.1 20 11" style="enable-background:new -2 7.1 20 11;" xml:space="preserve">
<style type="text/css">
	.st0{fill:#AAAAAA;}
</style>
<g id="XMLID_2_">
	<path id="XMLID_59_" class="st0" d="M-1.7,7.5c0.3-0.3,0.9-0.3,1.2,0L8,16l8.5-8.5c0.3-0.3,0.9-0.3,1.2,0c0.3,0.3,0.3,0.9,0,1.2
		l-9.1,9.1C8.4,18,8.2,18.1,7.9,18c-0.2,0-0.5-0.1-0.7-0.2l-8.9-9.1C-2.1,8.3-2.1,7.8-1.7,7.5z"/>
	<path id="XMLID_58_" class="st0" d="M17.1,7.2c-0.2,0-0.4,0.1-0.6,0.3L8,16l-8.5-8.5c-0.2-0.2-0.4-0.3-0.6-0.3s-0.5,0.1-0.6,0.3
		C-2,7.8-2,8.4-1.7,8.7l9.1,9.1C7.6,18,7.8,18,8,18c0,0,0,0,0.1,0c0,0,0,0,0.1,0c0.2,0,0.4-0.1,0.6-0.2l9.1-9.1
		c0.3-0.3,0.3-0.9,0-1.2C17.6,7.3,17.4,7.2,17.1,7.2L17.1,7.2z"/>
</g>
</svg>
