<?xml version="1.0" encoding="utf-8"?>
<!-- Generator: Adobe Illustrator 24.0.0, SVG Export Plug-In . SVG Version: 6.00 Build 0)  -->
<svg version="1.1" id="Layer_1" xmlns="http://www.w3.org/2000/svg" xmlns:xlink="http://www.w3.org/1999/xlink" x="0px" y="0px"
	 viewBox="0 0 200 75" style="enable-background:new 0 0 200 75;" xml:space="preserve">
<style type="text/css">
	.st0{fill:#FFC40A;}
	.st1{fill:#FFFFFF;}
</style>
<title>Asset 12</title>
<path class="st0" d="M0,61.6C0,69,4.8,75,10.8,75h178.3c6,0,10.8-6,10.8-13.4V13.4C200,6,195.1,0,189.2,0H10.8C4.8,0,0,6,0,13.4
	V61.6z"/>
<path class="st1" d="M14.1,42.2c0.4,0.5,1.1,0.9,1.8,1.1c0.7,0.2,1.5,0.4,2.2,0.4c0.4,0,0.9-0.1,1.3-0.1c0.4-0.1,0.8-0.3,1.2-0.4
	c0.4-0.2,0.7-0.4,0.9-0.7c0.2-0.3,0.3-0.7,0.3-1c0.1-0.5-0.2-0.9-0.7-1.2c-0.5-0.3-1.1-0.5-1.7-0.7c-0.7-0.2-1.4-0.4-2.2-0.5
	c-0.8-0.2-1.5-0.4-2.2-0.7c-0.7-0.3-1.3-0.8-1.7-1.3c-0.5-0.7-0.7-1.4-0.7-2.1c0-0.4,0.1-0.9,0.4-1.3c0.2-0.5,0.6-0.9,1.1-1.3
	c0.6-0.4,1.2-0.7,2-1c0.9-0.3,1.9-0.4,2.9-0.4c1,0,2,0.1,2.9,0.3c1,0.2,1.8,0.7,2.4,1.3l-2.1,1.4c-0.3-0.4-0.8-0.7-1.4-0.9
	c-0.6-0.2-1.3-0.3-2-0.3c-0.6,0-1.2,0.1-1.8,0.2c-0.4,0.1-0.8,0.3-1.1,0.5c-0.3,0.2-0.5,0.4-0.6,0.7c-0.1,0.2-0.2,0.5-0.2,0.7
	c0,0.5,0.2,1,0.7,1.3c0.5,0.3,1.1,0.6,1.7,0.8c0.7,0.2,1.5,0.4,2.2,0.5c0.8,0.1,1.5,0.4,2.2,0.7c0.7,0.3,1.3,0.7,1.7,1.1
	c0.5,0.6,0.7,1.3,0.7,2c0,1.2-0.6,2.4-1.9,3.2c-0.6,0.4-1.3,0.7-2.1,0.8c-0.8,0.2-1.7,0.3-2.6,0.3c-1.2,0-2.4-0.1-3.5-0.5
	c-1-0.3-1.9-0.8-2.6-1.5L14.1,42.2z"/>
<path class="st1" d="M32.3,32.7h-5.2v-1.8h12.6v1.8h-5.2v12.7h-2.2V32.7z"/>
<path class="st1" d="M46.1,30.9h1.6l5.4,14.6h-2l-1.3-3.6h-6l-1.3,3.6h-2L46.1,30.9z M49.2,40.1l-2.4-6.7h0l-2.4,6.7H49.2z"/>
<path class="st1" d="M56.9,30.9h2.9v12.7h9.7v1.8H56.9V30.9z"/>
<path class="st1" d="M72.5,30.9h2.9v12.7h9.7v1.8H72.5V30.9z"/>
<path class="st1" d="M89.9,30.9H102v1.8h-9.6v4.3h8.9v1.8h-8.9v4.7h10.1v1.8H89.9V30.9z"/>
<path class="st1" d="M106.7,30.9h5.1c0.9,0,1.8,0.1,2.7,0.4c0.7,0.2,1.4,0.5,2,1c0.5,0.4,1,0.8,1.4,1.3c0.4,0.5,0.7,1,0.9,1.6
	c0.2,0.5,0.4,1.1,0.5,1.6c0.1,0.5,0.1,1,0.1,1.5c0,0.9-0.2,1.8-0.5,2.7c-0.3,0.9-0.9,1.7-1.5,2.3c-0.7,0.7-1.5,1.3-2.5,1.6
	c-1.1,0.4-2.2,0.6-3.4,0.6h-4.7V30.9z M108.7,43.6h2.5c0.8,0,1.6-0.1,2.3-0.3c0.7-0.2,1.4-0.6,1.9-1c0.6-0.5,1-1,1.3-1.7
	c0.3-0.7,0.5-1.6,0.5-2.4c0-0.6-0.1-1.1-0.2-1.6c-0.2-0.6-0.4-1.3-0.8-1.8c-0.5-0.6-1-1.1-1.7-1.4c-0.9-0.4-1.9-0.6-2.8-0.6h-2.9
	L108.7,43.6z"/>
<g id="Layer_4">
	<path class="st1" d="M186.1,53.4h-34.8c-0.6,0-1.1-0.4-1.4-0.9c-0.3-0.6-0.3-1.2,0-1.8l17.4-35.9c0.3-0.8,1.2-1.1,1.9-0.8
		c0.3,0.1,0.6,0.4,0.8,0.8l17.4,35.7c0.3,0.6,0.3,1.2,0,1.8C187.3,52.9,186.7,53.3,186.1,53.4z M154.1,49.6h29.3l-14.7-30.1
		L154.1,49.6z"/>
	<ellipse class="st1" cx="168.7" cy="45.8" rx="1.2" ry="1.4"/>
	<path class="st1" d="M170.2,27.8c0.1-0.8-0.6-1.6-1.4-1.6c0,0-0.1,0-0.1,0c-0.9,0.1-1.5,0.8-1.5,1.6l0,0l0.6,13.7
		c-0.1,0.5,0.2,1,0.7,1.1c0.5,0.1,1-0.2,1.1-0.7c0-0.1,0-0.2,0-0.3L170.2,27.8L170.2,27.8z"/>
</g>
</svg>
