<?xml version="1.0" encoding="utf-8"?>
<!-- Generator: Adobe Illustrator 19.0.0, SVG Export Plug-In . SVG Version: 6.00 Build 0)  -->
<svg version="1.1" id="Layer_1" xmlns="http://www.w3.org/2000/svg" xmlns:xlink="http://www.w3.org/1999/xlink" x="0px" y="0px"
	 width="29.8px" height="29.8px" viewBox="0 0 29.8 29.8" style="enable-background:new 0 0 29.8 29.8;" xml:space="preserve">
<style type="text/css">
	.st0{fill:#5A863B;}
	.st1{fill:#FFFFFF;}
	.st2{opacity:0.85;fill:#FFFFFF;}
	.st3{opacity:0.45;fill:#FFFFFF;}
	.st4{opacity:0.15;fill:#FFFFFF;}
	.st5{opacity:0.95;fill:#FFFFFF;}
	.st6{opacity:0.55;fill:#FFFFFF;}
	.st7{opacity:0.25;fill:#FFFFFF;}
	.st8{opacity:0.975;fill:#FFFFFF;}
	.st9{opacity:0.65;fill:#FFFFFF;}
	.st10{opacity:0.35;fill:#FFFFFF;}
	.st11{opacity:0.99;fill:#FFFFFF;}
	.st12{opacity:0.75;fill:#FFFFFF;}
</style>
<g>
	<path id="XMLID_1_" class="st0" d="M22.1,29.8H7.7c-4.2,0-7.7-3.4-7.7-7.7V7.7C0,3.4,3.4,0,7.7,0h14.4c4.2,0,7.7,3.4,7.7,7.7v14.4
		C29.8,26.3,26.3,29.8,22.1,29.8z"/>
	<g>
		<path class="st1" d="M14.8,8.7c0,0.3-0.2,0.5-0.5,0.5l0,0c-0.3,0-0.5-0.2-0.5-0.5V4.4c0-0.3,0.2-0.5,0.5-0.5l0,0
			c0.3,0,0.5,0.2,0.5,0.5V8.7z"/>
		<path class="st2" d="M14.8,25.7c0,0.3-0.2,0.5-0.5,0.5l0,0c-0.3,0-0.5-0.2-0.5-0.5v-4.3c0-0.3,0.2-0.5,0.5-0.5l0,0
			c0.3,0,0.5,0.2,0.5,0.5V25.7z"/>
		<path class="st1" d="M20.6,15.5c-0.3,0-0.5-0.2-0.5-0.5l0,0c0-0.3,0.2-0.5,0.5-0.5h4.3c0.3,0,0.5,0.2,0.5,0.5l0,0
			c0,0.3-0.2,0.5-0.5,0.5H20.6z"/>
		<path class="st3" d="M3.6,15.5c-0.3,0-0.5-0.2-0.5-0.5l0,0c0-0.3,0.2-0.5,0.5-0.5h4.3c0.3,0,0.5,0.2,0.5,0.5l0,0
			c0,0.3-0.2,0.5-0.5,0.5H3.6z"/>
		<path class="st4" d="M12.3,9c0.1,0.3,0,0.6-0.3,0.7l0,0c-0.3,0.1-0.6,0-0.7-0.3l-1.6-4c-0.1-0.3,0-0.6,0.3-0.7l0,0
			c0.3-0.1,0.6,0,0.7,0.3L12.3,9z"/>
		<path class="st5" d="M18.8,24.7c0.1,0.3,0,0.6-0.3,0.7l0,0c-0.3,0.1-0.6,0-0.7-0.3l-1.6-4c-0.1-0.3,0-0.6,0.3-0.7l0,0
			c0.3-0.1,0.6,0,0.7,0.3L18.8,24.7z"/>
		<path class="st1" d="M20.3,13c-0.3,0.1-0.6,0-0.7-0.3l0,0c-0.1-0.3,0-0.6,0.3-0.7l4-1.6c0.3-0.1,0.6,0,0.7,0.3l0,0
			c0.1,0.3,0,0.6-0.3,0.7L20.3,13z"/>
		<path class="st6" d="M4.6,19.6c-0.3,0.1-0.6,0-0.7-0.3l0,0c-0.1-0.3,0-0.6,0.3-0.7l4-1.6c0.3-0.1,0.6,0,0.7,0.3l0,0
			c0.1,0.3,0,0.6-0.3,0.7L4.6,19.6z"/>
		<path class="st7" d="M10.1,10.2c0.2,0.2,0.2,0.5,0,0.7l0,0c-0.2,0.2-0.5,0.2-0.7,0l-3-3c-0.2-0.2-0.2-0.5,0-0.7l0,0
			c0.2-0.2,0.5-0.2,0.7,0L10.1,10.2z"/>
		<path class="st8" d="M22.1,22.2c0.2,0.2,0.2,0.5,0,0.7l0,0c-0.2,0.2-0.5,0.2-0.7,0l-3-3c-0.2-0.2-0.2-0.5,0-0.7l0,0
			c0.2-0.2,0.5-0.2,0.7,0L22.1,22.2z"/>
		<path class="st1" d="M19.1,10.9c-0.2,0.2-0.5,0.2-0.7,0l0,0c-0.2-0.2-0.2-0.5,0-0.7l3-3c0.2-0.2,0.5-0.2,0.7,0l0,0
			c0.2,0.2,0.2,0.5,0,0.7L19.1,10.9z"/>
		<path class="st9" d="M7.1,22.9c-0.2,0.2-0.5,0.2-0.7,0l0,0c-0.2-0.2-0.2-0.5,0-0.7l3-3c0.2-0.2,0.5-0.2,0.7,0l0,0
			c0.2,0.2,0.2,0.5,0,0.7L7.1,22.9z"/>
		<path class="st10" d="M8.6,12.1c0.3,0.1,0.4,0.4,0.3,0.7l0,0C8.7,13,8.4,13.2,8.2,13l-4-1.6C4,11.3,3.8,11,3.9,10.7l0,0
			c0.1-0.3,0.4-0.4,0.7-0.3L8.6,12.1z"/>
		<path class="st11" d="M24.3,18.6c0.3,0.1,0.4,0.4,0.3,0.7l0,0c-0.1,0.3-0.4,0.4-0.7,0.3l-4-1.6c-0.3-0.1-0.4-0.4-0.3-0.7l0,0
			c0.1-0.3,0.4-0.4,0.7-0.3L24.3,18.6z"/>
		<path class="st1" d="M17.1,9.3c-0.1,0.3-0.4,0.4-0.7,0.3l0,0c-0.3-0.1-0.4-0.4-0.3-0.7l1.6-4c0.1-0.3,0.4-0.4,0.7-0.3l0,0
			c0.3,0.1,0.4,0.4,0.3,0.7L17.1,9.3z"/>
		<path id="XMLID_2_" class="st12" d="M10.6,25c-0.1,0.3-0.4,0.4-0.7,0.3l0,0c-0.3-0.1-0.4-0.4-0.3-0.7l1.6-4
			c0.1-0.3,0.4-0.4,0.7-0.3l0,0c0.3,0.1,0.4,0.4,0.3,0.7L10.6,25z"/>
	</g>
</g>
</svg>
