<?xml version="1.0" encoding="utf-8"?>
<!-- Generator: Adobe Illustrator 19.0.0, SVG Export Plug-In . SVG Version: 6.00 Build 0)  -->
<svg version="1.1" xmlns="http://www.w3.org/2000/svg" xmlns:xlink="http://www.w3.org/1999/xlink" x="0px" y="0px" width="25px"
	 height="25px" viewBox="0 0 25 25" style="enable-background:new 0 0 25 25;" xml:space="preserve">
<style type="text/css">
	.st0{display:none;}
	.st1{display:inline;stroke:#000000;stroke-miterlimit:10;}
	.st2{display:inline;}
	.st3{fill:#9E0B0F;}
	.st4{fill:#9E0B0F;}
	.st5{fill:#9E0B0F;}
	.st6{fill:#9E0B0F;}
	.st7{fill:#9E0B0F;}
	.st8{fill:#9E0B0F;}
	.st9{fill:#9E0B0F;}
	.st10{fill:#9E0B0F;}
	.st11{fill:#9E0B0F;}
	.st12{fill:#9E0B0F;}
	.st13{fill:#9E0B0F;}
	.st14{fill:#9E0B0F;}
	.st15{fill:#9E0B0F;}
	.st16{fill:#9E0B0F;}
	.st17{fill:#9E0B0F;}
	.st18{fill:#9E0B0F;}
	.st19{fill:#9E0B0F;}
	.st20{fill:#9E0B0F;}
</style>
<g id="Layer_1" class="st0">
</g>
<g id="Layer_2" class="st0">
	<rect id="XMLID_1_" y="-0.4" class="st1" width="25.4" height="25.4"/>
</g>
<g id="Layer_3" class="st0">
	<g id="XMLID_3_" class="st2">
		<g id="XMLID_49_">
			<g id="XMLID_57_">
				<path id="XMLID_61_" class="st3" d="M11.5,6.9c0,0.3,0.2,0.5,0.5,0.5l0,0c0.3,0,0.5-0.2,0.5-0.5V2.6c0-0.3-0.2-0.5-0.5-0.5l0,0
					c-0.3,0-0.5,0.2-0.5,0.5V6.9z"/>
				<path id="XMLID_58_" class="st4" d="M11.5,23.5c0,0.3,0.2,0.5,0.5,0.5l0,0c0.3,0,0.5-0.2,0.5-0.5v-4.2c0-0.3-0.2-0.5-0.5-0.5
					l0,0c-0.3,0-0.5,0.2-0.5,0.5V23.5z"/>
			</g>
			<g id="XMLID_50_">
				<path id="XMLID_54_" class="st5" d="M5.7,13.6c0.3,0,0.5-0.2,0.5-0.5l0,0c0-0.3-0.2-0.5-0.5-0.5H1.5c-0.3,0-0.5,0.2-0.5,0.5l0,0
					c0,0.3,0.2,0.5,0.5,0.5H5.7z"/>
				<path id="XMLID_51_" class="st6" d="M22.4,13.6c0.3,0,0.5-0.2,0.5-0.5l0,0c0-0.3-0.2-0.5-0.5-0.5h-4.2c-0.3,0-0.5,0.2-0.5,0.5
					l0,0c0,0.3,0.2,0.5,0.5,0.5H22.4z"/>
			</g>
		</g>
		<g id="XMLID_34_">
			<g id="XMLID_42_">
				<path id="XMLID_46_" class="st7" d="M13.9,7.1c-0.1,0.3,0,0.5,0.3,0.6l0,0c0.3,0.1,0.5,0,0.6-0.3l1.6-3.9c0.1-0.3,0-0.5-0.3-0.6
					l0,0c-0.3-0.1-0.5,0-0.6,0.3L13.9,7.1z"/>
				<path id="XMLID_43_" class="st8" d="M7.5,22.5c-0.1,0.3,0,0.5,0.3,0.6l0,0c0.3,0.1,0.5,0,0.6-0.3L10,19c0.1-0.3,0-0.5-0.3-0.6
					l0,0c-0.3-0.1-0.5,0-0.6,0.3L7.5,22.5z"/>
			</g>
			<g id="XMLID_35_">
				<path id="XMLID_39_" class="st9" d="M6,11.1c0.3,0.1,0.5,0,0.6-0.3l0,0c0.1-0.3,0-0.5-0.3-0.6L2.5,8.6C2.3,8.5,2,8.6,1.9,8.9
					l0,0c-0.1,0.3,0,0.5,0.3,0.6L6,11.1z"/>
				<path id="XMLID_36_" class="st10" d="M21.4,17.5c0.3,0.1,0.5,0,0.6-0.3l0,0c0.1-0.3,0-0.5-0.3-0.6L17.9,15
					c-0.3-0.1-0.5,0-0.6,0.3l0,0c-0.1,0.3,0,0.5,0.3,0.6L21.4,17.5z"/>
			</g>
		</g>
		<g id="XMLID_19_">
			<g id="XMLID_27_">
				<path id="XMLID_31_" class="st11" d="M16,8.3c-0.2,0.2-0.2,0.5,0,0.7l0,0c0.2,0.2,0.5,0.2,0.7,0l3-3c0.2-0.2,0.2-0.5,0-0.7l0,0
					c-0.2-0.2-0.5-0.2-0.7,0L16,8.3z"/>
				<path id="XMLID_28_" class="st12" d="M4.2,20.1c-0.2,0.2-0.2,0.5,0,0.7l0,0c0.2,0.2,0.5,0.2,0.7,0l3-3c0.2-0.2,0.2-0.5,0-0.7
					l0,0c-0.2-0.2-0.5-0.2-0.7,0L4.2,20.1z"/>
			</g>
			<g id="XMLID_20_">
				<path id="XMLID_24_" class="st13" d="M7.2,9c0.2,0.2,0.5,0.2,0.7,0l0,0c0.2-0.2,0.2-0.5,0-0.7l-3-3c-0.2-0.2-0.5-0.2-0.7,0l0,0
					C4,5.5,4,5.9,4.2,6L7.2,9z"/>
				<path id="XMLID_21_" class="st14" d="M19,20.8c0.2,0.2,0.5,0.2,0.7,0l0,0c0.2-0.2,0.2-0.5,0-0.7l-3-3c-0.2-0.2-0.5-0.2-0.7,0
					l0,0c-0.2,0.2-0.2,0.5,0,0.7L19,20.8z"/>
			</g>
		</g>
		<g id="XMLID_4_">
			<g id="XMLID_12_">
				<path id="XMLID_16_" class="st15" d="M17.5,10.2c-0.3,0.1-0.4,0.4-0.3,0.6l0,0c0.1,0.3,0.4,0.4,0.6,0.3l3.9-1.6
					C22,9.4,22.2,9.1,22,8.9l0,0c-0.1-0.3-0.4-0.4-0.6-0.3L17.5,10.2z"/>
				<path id="XMLID_13_" class="st16" d="M2.1,16.6c-0.3,0.1-0.4,0.4-0.3,0.6l0,0c0.1,0.3,0.4,0.4,0.6,0.3l3.9-1.6
					c0.3-0.1,0.4-0.4,0.3-0.6l0,0C6.6,15,6.3,14.9,6,15L2.1,16.6z"/>
			</g>
			<g id="XMLID_5_">
				<path id="XMLID_9_" class="st17" d="M9.1,7.5c0.1,0.3,0.4,0.4,0.6,0.3l0,0C10,7.7,10.1,7.4,10,7.1L8.4,3.2C8.3,3,8,2.9,7.8,3
					l0,0C7.5,3.1,7.4,3.4,7.5,3.6L9.1,7.5z"/>
				<path id="XMLID_6_" class="st18" d="M15.5,22.9c0.1,0.3,0.4,0.4,0.6,0.3l0,0c0.3-0.1,0.4-0.4,0.3-0.6l-1.6-3.9
					c-0.1-0.3-0.4-0.4-0.6-0.3l0,0c-0.3,0.1-0.4,0.4-0.3,0.6L15.5,22.9z"/>
			</g>
		</g>
	</g>
</g>
<g id="Layer_4">
	<g id="XMLID_2_" class="st0">
		<g class="st2">
			<g>
				<path class="st19" d="M12,6.5C12,6.8,12.2,7,12.5,7l0,0C12.8,7,13,6.8,13,6.5V2.3c0-0.3-0.2-0.5-0.5-0.5l0,0
					C12.2,1.8,12,2,12,2.3V6.5z"/>
				<path class="st19" d="M12,23.1c0,0.3,0.2,0.5,0.5,0.5l0,0c0.3,0,0.5-0.2,0.5-0.5v-4.2c0-0.3-0.2-0.5-0.5-0.5l0,0
					c-0.3,0-0.5,0.2-0.5,0.5V23.1z"/>
			</g>
			<g>
				<path class="st19" d="M6.3,13.2c0.3,0,0.5-0.2,0.5-0.5l0,0c0-0.3-0.2-0.5-0.5-0.5H2.1c-0.3,0-0.5,0.2-0.5,0.5l0,0
					c0,0.3,0.2,0.5,0.5,0.5H6.3z"/>
				<path class="st19" d="M23,13.2c0.3,0,0.5-0.2,0.5-0.5l0,0c0-0.3-0.2-0.5-0.5-0.5h-4.2c-0.3,0-0.5,0.2-0.5,0.5l0,0
					c0,0.3,0.2,0.5,0.5,0.5H23z"/>
			</g>
		</g>
		<g class="st2">
			<g>
				<path class="st19" d="M14.4,6.8c-0.1,0.3,0,0.5,0.3,0.6l0,0c0.3,0.1,0.5,0,0.6-0.3L17,3.3c0.1-0.3,0-0.5-0.3-0.6l0,0
					c-0.3-0.1-0.5,0-0.6,0.3L14.4,6.8z"/>
				<path class="st19" d="M8.1,22.2c-0.1,0.3,0,0.5,0.3,0.6l0,0c0.3,0.1,0.5,0,0.6-0.3l1.6-3.9c0.1-0.3,0-0.5-0.3-0.6l0,0
					c-0.3-0.1-0.5,0-0.6,0.3L8.1,22.2z"/>
			</g>
			<g>
				<path class="st19" d="M6.6,10.8c0.3,0.1,0.5,0,0.6-0.3l0,0c0.1-0.3,0-0.5-0.3-0.6L3.1,8.3c-0.3-0.1-0.5,0-0.6,0.3l0,0
					c-0.1,0.3,0,0.5,0.3,0.6L6.6,10.8z"/>
				<path class="st19" d="M22,17.2c0.3,0.1,0.5,0,0.6-0.3l0,0c0.1-0.3,0-0.5-0.3-0.6l-3.9-1.6c-0.3-0.1-0.5,0-0.6,0.3l0,0
					c-0.1,0.3,0,0.5,0.3,0.6L22,17.2z"/>
			</g>
		</g>
		<g class="st2">
			<g>
				<path class="st19" d="M16.6,8c-0.2,0.2-0.2,0.5,0,0.7l0,0c0.2,0.2,0.5,0.2,0.7,0l3-3c0.2-0.2,0.2-0.5,0-0.7l0,0
					c-0.2-0.2-0.5-0.2-0.7,0L16.6,8z"/>
				<path class="st19" d="M4.8,19.7c-0.2,0.2-0.2,0.5,0,0.7l0,0c0.2,0.2,0.5,0.2,0.7,0l3-3c0.2-0.2,0.2-0.5,0-0.7l0,0
					c-0.2-0.2-0.5-0.2-0.7,0L4.8,19.7z"/>
			</g>
			<g>
				<path class="st19" d="M7.8,8.7c0.2,0.2,0.5,0.2,0.7,0l0,0c0.2-0.2,0.2-0.5,0-0.7l-3-3C5.3,4.8,5,4.8,4.8,5l0,0
					c-0.2,0.2-0.2,0.5,0,0.7L7.8,8.7z"/>
				<path class="st19" d="M19.5,20.4c0.2,0.2,0.5,0.2,0.7,0l0,0c0.2-0.2,0.2-0.5,0-0.7l-3-3c-0.2-0.2-0.5-0.2-0.7,0l0,0
					c-0.2,0.2-0.2,0.5,0,0.7L19.5,20.4z"/>
			</g>
		</g>
		<g class="st2">
			<g>
				<path class="st19" d="M18.1,9.9c-0.3,0.1-0.4,0.4-0.3,0.6l0,0c0.1,0.3,0.4,0.4,0.6,0.3l3.9-1.6c0.3-0.1,0.4-0.4,0.3-0.6l0,0
					c-0.1-0.3-0.4-0.4-0.6-0.3L18.1,9.9z"/>
				<path class="st19" d="M2.7,16.2c-0.3,0.1-0.4,0.4-0.3,0.6l0,0c0.1,0.3,0.4,0.4,0.6,0.3L7,15.5c0.3-0.1,0.4-0.4,0.3-0.6l0,0
					c-0.1-0.3-0.4-0.4-0.6-0.3L2.7,16.2z"/>
			</g>
			<g>
				<path class="st19" d="M9.7,7.2c0.1,0.3,0.4,0.4,0.6,0.3l0,0c0.3-0.1,0.4-0.4,0.3-0.6L9,2.9C8.9,2.6,8.6,2.5,8.3,2.6l0,0
					C8.1,2.7,8,3,8.1,3.3L9.7,7.2z"/>
				<path class="st19" d="M16.1,22.5c0.1,0.3,0.4,0.4,0.6,0.3l0,0c0.3-0.1,0.4-0.4,0.3-0.6l-1.6-3.9C15.3,18,15,17.9,14.7,18l0,0
					c-0.3,0.1-0.4,0.4-0.3,0.6L16.1,22.5z"/>
			</g>
		</g>
	</g>
	<path class="st20" d="M19.9,11.2h-1V8.4c0-3.7-3-6.6-6.6-6.6c-3.7,0-6.6,3-6.6,6.6v2.8h-1C4.3,11.2,4,11.6,4,12v10.9
		c0,0.4,0.3,0.8,0.8,0.8h15.2c0.4,0,0.8-0.3,0.8-0.8V12C20.7,11.6,20.4,11.2,19.9,11.2z M13.6,20.7h-2.5l0.4-3.7
		c-0.6-0.3-0.9-0.9-0.9-1.6c0-1,0.8-1.8,1.8-1.8c1,0,1.8,0.8,1.8,1.8c0,0.7-0.4,1.3-0.9,1.6L13.6,20.7z M16.5,11.2H8.2V8.4
		c0-2.3,1.9-4.2,4.2-4.2c2.3,0,4.2,1.9,4.2,4.2V11.2z"/>
</g>
</svg>
