<?xml version="1.0" encoding="utf-8"?>
<!-- Generator: Adobe Illustrator 19.0.0, SVG Export Plug-In . SVG Version: 6.00 Build 0)  -->
<svg version="1.1" id="Layer_1" xmlns="http://www.w3.org/2000/svg" xmlns:xlink="http://www.w3.org/1999/xlink" x="0px" y="0px"
	 width="11.7px" height="15px" viewBox="0 0 11.7 15" style="enable-background:new 0 0 11.7 15;" xml:space="preserve">
<style type="text/css">
	.st0{fill:#AAAAAA;}
</style>
<path class="st0" d="M11.3,0.8l-0.8-0.6C10-0.2,9.3,0,8.9,0.5L8.6,1C9,1.3,9.4,1.6,9.9,1.9c0.5,0.3,0.9,0.7,1.3,1l0.3-0.5
	C11.9,1.9,11.8,1.2,11.3,0.8z M8.1,1.6L0.6,11.7c0,0,0,0,0,0l-0.1,0.2c0,0.1-0.1,0.1-0.1,0.2L0,14.6c0,0.1,0,0.2,0.1,0.3
	C0.2,15,0.3,15,0.4,15c0,0,0.1,0,0.1,0l2.4-1.1c0.1,0,0.1-0.1,0.1-0.1l7.7-10.3c-0.4-0.3-0.8-0.7-1.3-1C9,2.1,8.6,1.8,8.1,1.6z"/>
</svg>
