<?xml version="1.0" encoding="utf-8"?>
<!-- Generator: Adobe Illustrator 19.0.0, SVG Export Plug-In . SVG Version: 6.00 Build 0)  -->
<svg version="1.1" id="Layer_1" xmlns="http://www.w3.org/2000/svg" xmlns:xlink="http://www.w3.org/1999/xlink" x="0px" y="0px"
	 width="25px" height="25px" viewBox="0 0 25 25" style="enable-background:new 0 0 25 25;" xml:space="preserve">
<style type="text/css">
	.st0{fill:#616161;}
</style>
<path id="XMLID_134_" class="st0" d="M12.5,0C5.6,0,0,5.6,0,12.5S5.6,25,12.5,25S25,19.4,25,12.5S19.4,0,12.5,0z M7,14
	c-0.8,0-1.5-0.7-1.5-1.5S6.2,11,7,11c0.8,0,1.5,0.7,1.5,1.5S7.8,14,7,14z M12.5,14c-0.8,0-1.5-0.7-1.5-1.5s0.7-1.5,1.5-1.5
	s1.5,0.7,1.5,1.5S13.3,14,12.5,14z M18,14c-0.8,0-1.5-0.7-1.5-1.5S17.2,11,18,11s1.5,0.7,1.5,1.5S18.8,14,18,14z"/>
</svg>
