<?xml version="1.0" encoding="utf-8"?>
<!-- Generator: Adobe Illustrator 19.0.0, SVG Export Plug-In . SVG Version: 6.00 Build 0)  -->
<svg version="1.1" id="Layer_1" xmlns="http://www.w3.org/2000/svg" xmlns:xlink="http://www.w3.org/1999/xlink" x="0px" y="0px"
	 width="40px" height="40px" viewBox="0 0 40 40" style="enable-background:new 0 0 40 40;" xml:space="preserve">
<style type="text/css">
	.st0{fill:#F3A821;}
	.st1{fill:#FFFFFF;}
</style>
<g id="XMLID_2_">
	<path id="XMLID_17_" class="st0" d="M28,40H12C5.4,40,0,34.6,0,28V12C0,5.4,5.4,0,12,0h16c6.6,0,12,5.4,12,12v16
		C40,34.6,34.6,40,28,40z"/>
	<g id="XMLID_3_">
		<path id="XMLID_14_" class="st1" d="M20.1,4.7c-8.3,0-15,6.7-15,15c0,8.3,6.7,15,15,15c8.3,0,15-6.7,15-15
			C35.1,11.4,28.4,4.7,20.1,4.7z M20.1,33c-7.3,0-13.3-6-13.3-13.3c0-7.3,6-13.3,13.3-13.3c7.3,0,13.3,6,13.3,13.3
			C33.4,27.1,27.4,33,20.1,33z"/>
		<g id="XMLID_4_">
			<path id="XMLID_11_" class="st1" d="M12.9,17.7c-1.1,0-2.1,0.9-2.1,2.1c0,1.1,0.9,2.1,2.1,2.1c1.1,0,2.1-0.9,2.1-2.1
				C15,18.6,14.1,17.7,12.9,17.7z M12.9,20.4c-0.4,0-0.7-0.3-0.7-0.7c0-0.4,0.3-0.7,0.7-0.7c0.4,0,0.7,0.3,0.7,0.7
				C13.7,20.1,13.3,20.4,12.9,20.4z"/>
			<path id="XMLID_8_" class="st1" d="M20.1,17.7c-1.1,0-2.1,0.9-2.1,2.1c0,1.1,0.9,2.1,2.1,2.1c1.1,0,2.1-0.9,2.1-2.1
				C22.1,18.6,21.2,17.7,20.1,17.7z M20.1,20.4c-0.4,0-0.7-0.3-0.7-0.7c0-0.4,0.3-0.7,0.7-0.7c0.4,0,0.7,0.3,0.7,0.7
				C20.8,20.1,20.5,20.4,20.1,20.4z"/>
			<path id="XMLID_5_" class="st1" d="M27.2,17.7c-1.1,0-2.1,0.9-2.1,2.1c0,1.1,0.9,2.1,2.1,2.1c1.1,0,2.1-0.9,2.1-2.1
				C29.3,18.6,28.4,17.7,27.2,17.7z M27.2,20.4c-0.4,0-0.7-0.3-0.7-0.7c0-0.4,0.3-0.7,0.7-0.7c0.4,0,0.7,0.3,0.7,0.7
				C28,20.1,27.6,20.4,27.2,20.4z"/>
		</g>
	</g>
</g>
</svg>
