<?xml version="1.0" encoding="utf-8"?>
<!-- Generator: Adobe Illustrator 19.0.0, SVG Export Plug-In . SVG Version: 6.00 Build 0)  -->
<svg version="1.1" id="Layer_1" xmlns="http://www.w3.org/2000/svg" xmlns:xlink="http://www.w3.org/1999/xlink" x="0px" y="0px"
	 width="52.5px" height="63.1px" viewBox="0 0 52.5 63.1" style="enable-background:new 0 0 52.5 63.1;" xml:space="preserve">
<style type="text/css">
	.st0{opacity:0.75;fill:#E3A42D;stroke:#616161;stroke-width:0.5;stroke-miterlimit:10;}
	.st1{fill:#F3F3F3;stroke:#616161;stroke-width:0.5;stroke-miterlimit:10;}
	.st2{fill:#E3A42D;stroke:#616161;stroke-width:0.5;stroke-miterlimit:10;}
</style>
<g id="XMLID_16_">
	<polygon id="XMLID_50_" class="st0" points="0.2,15.3 0.2,45.3 26.2,60.3 52.2,45.3 52.2,15.3 26.2,0.3 	"/>
	<polygon id="XMLID_49_" class="st1" points="4.4,18 4.4,43 26,55.5 47.7,43 47.7,18 26,5.5 	"/>
	<g id="XMLID_123_">
		<path id="XMLID_124_" class="st2" d="M16.1,38.2l11-9.9c0.6-0.5,1.1-1.1,1.7-1.7c0.6-0.6,0.8-1.4,0.8-2.2c0-1-0.3-1.7-1-2.3
			c-0.7-0.5-1.5-0.8-2.4-0.8c-1.1,0-2,0.3-2.6,1c-0.6,0.7-1,1.5-1.1,2.6l-6-0.4c0.1-1.5,0.4-2.7,0.9-3.8c0.5-1.1,1.2-2,2.1-2.7
			c0.9-0.7,1.9-1.3,3.1-1.6c1.2-0.4,2.5-0.5,3.9-0.5c1.3,0,2.5,0.2,3.6,0.5c1.1,0.4,2.1,0.9,2.9,1.6c0.8,0.7,1.5,1.6,1.9,2.7
			s0.7,2.3,0.7,3.7c0,0.9-0.1,1.7-0.3,2.5c-0.2,0.7-0.4,1.4-0.8,2c-0.3,0.6-0.7,1.2-1.2,1.7c-0.5,0.5-0.9,1-1.5,1.5l-8.6,7.4h12.6
			v5.3H16.1V38.2z"/>
	</g>
</g>
</svg>
