<?xml version="1.0" encoding="utf-8"?>
<!-- Generator: Adobe Illustrator 19.0.0, SVG Export Plug-In . SVG Version: 6.00 Build 0)  -->
<svg version="1.1" id="Layer_1" xmlns="http://www.w3.org/2000/svg" xmlns:xlink="http://www.w3.org/1999/xlink" x="0px" y="0px"
	 width="35.8px" height="30px" viewBox="0 0 35.8 30" style="enable-background:new 0 0 35.8 30;" xml:space="preserve">
<style type="text/css">
	.st0{fill:#616161;}
</style>
<g id="XMLID_55_">
	<path id="XMLID_82_" class="st0" d="M34.5,0H1.2C0.5,0,0,0.5,0,1.2v27.6C0,29.5,0.5,30,1.2,30h33.3c0.7,0,1.2-0.5,1.2-1.2V1.2
		C35.8,0.5,35.2,0,34.5,0z M24.1,2.1c0-0.2,0.1-0.3,0.3-0.3h3.1c0.2,0,0.3,0.1,0.3,0.3v2.4c0,0.2-0.1,0.3-0.3,0.3h-3.1
		c-0.2,0-0.3-0.1-0.3-0.3V2.1z M18.7,2.1c0-0.2,0.1-0.3,0.3-0.3h3.1c0.2,0,0.3,0.1,0.3,0.3v2.4c0,0.2-0.1,0.3-0.3,0.3H19
		c-0.2,0-0.3-0.1-0.3-0.3V2.1z M13.3,2.1c0-0.2,0.1-0.3,0.3-0.3h3.1c0.2,0,0.3,0.1,0.3,0.3v2.4c0,0.2-0.1,0.3-0.3,0.3h-3.1
		c-0.2,0-0.3-0.1-0.3-0.3V2.1z M7.9,2.1c0-0.2,0.1-0.3,0.3-0.3h3.1c0.2,0,0.3,0.1,0.3,0.3v2.4c0,0.2-0.1,0.3-0.3,0.3H8.2
		C8,4.8,7.9,4.7,7.9,4.5V2.1z M2.5,2.1c0-0.2,0.1-0.3,0.3-0.3h3.1c0.2,0,0.3,0.1,0.3,0.3v2.4c0,0.2-0.1,0.3-0.3,0.3H2.8
		c-0.2,0-0.3-0.1-0.3-0.3V2.1z M6.2,27.9c0,0.2-0.1,0.3-0.3,0.3H2.8c-0.2,0-0.3-0.1-0.3-0.3v-2.4c0-0.2,0.1-0.3,0.3-0.3h3.1
		c0.2,0,0.3,0.1,0.3,0.3V27.9z M11.6,27.9c0,0.2-0.1,0.3-0.3,0.3H8.2c-0.2,0-0.3-0.1-0.3-0.3v-2.4c0-0.2,0.1-0.3,0.3-0.3h3.1
		c0.2,0,0.3,0.1,0.3,0.3V27.9z M17,27.9c0,0.2-0.1,0.3-0.3,0.3h-3.1c-0.2,0-0.3-0.1-0.3-0.3v-2.4c0-0.2,0.1-0.3,0.3-0.3h3.1
		c0.2,0,0.3,0.1,0.3,0.3V27.9z M22.5,27.9c0,0.2-0.1,0.3-0.3,0.3H19c-0.2,0-0.3-0.1-0.3-0.3v-2.4c0-0.2,0.1-0.3,0.3-0.3h3.1
		c0.2,0,0.3,0.1,0.3,0.3V27.9z M27.9,27.9c0,0.2-0.1,0.3-0.3,0.3h-3.1c-0.2,0-0.3-0.1-0.3-0.3v-2.4c0-0.2,0.1-0.3,0.3-0.3h3.1
		c0.2,0,0.3,0.1,0.3,0.3V27.9z M33.3,27.9c0,0.2-0.1,0.3-0.3,0.3h-3.1c-0.2,0-0.3-0.1-0.3-0.3v-2.4c0-0.2,0.1-0.3,0.3-0.3H33
		c0.2,0,0.3,0.1,0.3,0.3V27.9z M33.3,23.4H2.5V6.6h30.9V23.4z M33.3,4.5c0,0.2-0.1,0.3-0.3,0.3h-3.1c-0.2,0-0.3-0.1-0.3-0.3V2.1
		c0-0.2,0.1-0.3,0.3-0.3H33c0.2,0,0.3,0.1,0.3,0.3V4.5z"/>
	<path id="XMLID_56_" class="st0" d="M17.9,8.9c-3.4,0-6.1,2.7-6.1,6.1s2.7,6.1,6.1,6.1S24,18.4,24,15S21.2,8.9,17.9,8.9z
		 M21.6,15.3l-5.4,3.1c-0.3,0.2-0.6,0-0.6-0.3v-6.2c0-0.4,0.3-0.5,0.6-0.3l5.4,3.1C22,14.9,22,15.1,21.6,15.3z"/>
</g>
</svg>
