<?xml version="1.0" encoding="utf-8"?>
<!-- Generator: Adobe Illustrator 24.0.0, SVG Export Plug-In . SVG Version: 6.00 Build 0)  -->
<svg version="1.1" id="Layer_1" xmlns="http://www.w3.org/2000/svg" xmlns:xlink="http://www.w3.org/1999/xlink" x="0px" y="0px"
	 viewBox="0 0 200 75" style="enable-background:new 0 0 200 75;" xml:space="preserve">
<style type="text/css">
	.st0{fill:#6EBE44;}
	.st1{fill:#FFFFFF;}
</style>
<title>Asset 10</title>
<path class="st0" d="M0,61.6C0,69,4.8,75,10.8,75h178.3c6,0,10.8-6,10.8-13.4V13.4C200,6,195.1,0,189.2,0H10.8C4.8,0,0,6,0,13.4
	V61.6z"/>
<path class="st1" d="M21.5,34c-0.4-0.5-0.9-0.9-1.5-1.2c-0.6-0.3-1.2-0.4-1.9-0.4c-1.5,0-2.8,0.6-3.8,1.6c-0.5,0.5-0.8,1.1-1.1,1.8
	c-0.3,0.7-0.4,1.5-0.4,2.2c0,0.7,0.1,1.4,0.4,2.1c0.2,0.6,0.6,1.2,1,1.7c0.5,0.5,1,0.9,1.7,1.2c0.7,0.3,1.5,0.4,2.2,0.4
	c0.7,0,1.5-0.2,2.1-0.5c0.6-0.3,1.2-0.8,1.6-1.4l1.6,1.2c-0.2,0.2-0.4,0.4-0.6,0.6c-0.3,0.3-0.7,0.6-1.1,0.8c-0.5,0.3-1,0.5-1.6,0.7
	c-0.7,0.2-1.4,0.3-2.1,0.3c-1,0-2.1-0.2-3-0.6c-1.7-0.8-3.1-2.2-3.7-4c-0.3-0.8-0.5-1.7-0.5-2.6c0-1,0.2-2,0.5-3
	c0.3-0.9,0.8-1.7,1.5-2.4c0.7-0.7,1.4-1.2,2.3-1.5c0.9-0.4,2-0.6,3-0.5c0.9,0,1.9,0.2,2.7,0.5c0.9,0.3,1.6,0.9,2.2,1.6L21.5,34z"/>
<path class="st1" d="M31.4,45.3c-0.9,0-1.7-0.2-2.6-0.6c-0.7-0.4-1.4-0.9-2-1.6c-0.6-0.7-1-1.5-1.3-2.3c-0.6-1.9-0.6-3.9,0-5.8
	c0.3-0.9,0.7-1.6,1.3-2.3c0.6-0.6,1.2-1.2,2-1.5c1.6-0.7,3.5-0.7,5.1,0c0.7,0.4,1.4,0.9,2,1.5c0.6,0.7,1,1.5,1.3,2.3
	c0.6,1.9,0.6,3.9,0,5.8c-0.3,0.8-0.7,1.6-1.3,2.3c-0.6,0.7-1.2,1.2-2,1.5C33.2,45.1,32.3,45.3,31.4,45.3z M31.4,43.5
	c0.6,0,1.3-0.1,1.9-0.4c0.5-0.3,1-0.7,1.4-1.2c0.4-0.5,0.7-1.1,0.9-1.8c0.4-1.4,0.4-2.9,0-4.3c-0.2-0.6-0.5-1.2-0.9-1.7
	c-0.4-0.5-0.9-0.9-1.4-1.2c-0.6-0.3-1.2-0.5-1.9-0.4c-1.2,0-2.4,0.5-3.3,1.6c-0.4,0.5-0.7,1.1-0.9,1.7c-0.4,1.4-0.4,2.9,0,4.3
	c0.2,0.7,0.5,1.3,0.9,1.8C29,42.9,30.2,43.5,31.4,43.5L31.4,43.5z"/>
<path class="st1" d="M40,30.7h2.4l3.8,11h0.1l3.8-11h2.4v14.6h-1.6v-12l0,0l-4.1,12h-1.1l-4.1-12l0,0v12H40L40,30.7z"/>
<path class="st1" d="M56.9,30.7h6.6c1,0,2,0.1,3,0.4c0.7,0.2,1.3,0.5,1.8,1c0.4,0.4,0.8,0.8,0.9,1.3c0.4,0.9,0.4,1.9,0,2.8
	c-0.2,0.5-0.5,0.9-0.9,1.3c-0.5,0.4-1.1,0.8-1.8,1c-0.9,0.3-2,0.4-3,0.4h-4.1v6.4h-2.6V30.7z M59.4,37.1h3.3c0.5,0,1,0,1.5-0.1
	c0.5-0.1,0.9-0.2,1.3-0.3c0.4-0.2,0.7-0.4,0.9-0.7c0.5-0.8,0.5-1.6,0-2.4c-0.2-0.3-0.5-0.5-0.9-0.7c-0.4-0.2-0.8-0.3-1.3-0.3
	c-0.5-0.1-1-0.1-1.5-0.1h-3.3V37.1z"/>
<path class="st1" d="M71.8,30.7h2.9v12.8h9.7v1.8H71.8V30.7z"/>
<path class="st1" d="M87.3,30.7h12.1v1.9h-9.6v4.4h8.9v1.9h-8.9v4.7h10v1.8H87.3V30.7z"/>
<path class="st1" d="M107.5,32.5h-5.2v-1.8h12.6v1.8h-5.2v12.7h-2.2V32.5z"/>
<path class="st1" d="M117.4,30.7h12.1v1.9h-9.6v4.4h8.9v1.9h-8.9v4.7h10v1.8h-12.6V30.7z"/>
<path class="st1" d="M133.6,30.7h5c0.9,0,1.8,0.1,2.7,0.4c0.7,0.2,1.4,0.5,2,0.9c0.5,0.4,1,0.8,1.4,1.3c0.4,0.5,0.7,1,0.9,1.6
	c0.2,0.5,0.4,1.1,0.5,1.6c0.1,0.5,0.1,1,0.1,1.5c0,0.9-0.2,1.8-0.5,2.7c-0.3,0.9-0.9,1.7-1.5,2.3c-0.7,0.7-1.5,1.3-2.4,1.6
	c-1.1,0.4-2.2,0.6-3.4,0.6h-4.7L133.6,30.7z M135.5,43.4h2.5c0.8,0,1.6-0.1,2.4-0.3c0.7-0.2,1.4-0.6,1.9-1c0.6-0.5,1-1,1.3-1.7
	c0.3-0.7,0.5-1.6,0.5-2.4c0-0.6-0.1-1.1-0.2-1.6c-0.2-0.7-0.4-1.3-0.8-1.8c-0.5-0.6-1-1.1-1.7-1.4c-0.9-0.4-1.9-0.6-2.9-0.6h-2.9
	V43.4z"/>
<circle class="st1" cx="172.6" cy="36.3" r="18.9"/>
<circle class="st0" cx="172.6" cy="36.3" r="17.1"/>
<path class="st1" d="M180.2,27c-4.3,4.3-8,9.1-10.9,14.4c-1.2-1.3-2.4-2.6-3.6-3.9s-5.8,0.2-4.5,1.6l6.2,6.7c1,1,4,0.3,4.6-0.7
	c3.3-6,7-12.1,12.3-17.2C186.1,26,181.4,25.9,180.2,27z"/>
</svg>
