<?xml version="1.0" encoding="utf-8"?>
<!-- Generator: Adobe Illustrator 19.0.0, SVG Export Plug-In . SVG Version: 6.00 Build 0)  -->
<svg version="1.1" id="Layer_1" xmlns="http://www.w3.org/2000/svg" xmlns:xlink="http://www.w3.org/1999/xlink" x="0px" y="0px"
	 viewBox="0 0 18.8 31.8" style="enable-background:new 0 0 18.8 31.8;" xml:space="preserve">
<style type="text/css">
	.st0{display:none;}
	.st1{display:inline;fill:#AAAAAA;}
	.st2{fill:#AAAAAA;}
</style>
<g id="XMLID_2_" class="st0">
	<path id="XMLID_155_" class="st1" d="M18.1,30.9c0.5-0.6,0.4-1.4-0.1-1.9L4,16.5l12.5-14c0.5-0.6,0.4-1.4-0.1-1.9
		c-0.6-0.5-1.4-0.4-1.9,0.1L1.2,15.6c-0.3,0.3-0.4,0.7-0.3,1.1c0,0.4,0.1,0.8,0.4,1L16.2,31C16.8,31.5,17.6,31.4,18.1,30.9z"/>
	<path id="XMLID_154_" class="st1" d="M15.6,0.2c-0.4,0-0.7,0.2-1,0.4L1.2,15.6c-0.3,0.3-0.4,0.7-0.3,1.1c0,0.4,0.1,0.8,0.4,1
		L16.2,31c0.3,0.2,0.6,0.3,0.9,0.3c0.4,0,0.7-0.2,1-0.4c0.5-0.6,0.4-1.4-0.1-1.9L4,16.5l12.5-14c0.5-0.6,0.4-1.4-0.1-1.9
		C16.2,0.3,15.9,0.2,15.6,0.2L15.6,0.2z"/>
</g>
<g id="XMLID_11_">
	<path id="XMLID_157_" class="st2" d="M17.5,31c0.5-0.5,0.5-1.4-0.1-1.9L3.7,16.3L16.5,2.6C17.1,2,17,1.2,16.5,0.7
		c-0.5-0.5-1.4-0.5-1.9,0.1L0.9,15.3c-0.3,0.3-0.4,0.7-0.4,1.1c0,0.4,0.1,0.8,0.4,1l14.6,13.7C16.1,31.6,16.9,31.6,17.5,31z"/>
	<path id="XMLID_156_" class="st2" d="M15.6,0.3c-0.4,0-0.7,0.1-1,0.4L0.9,15.3c-0.3,0.3-0.4,0.7-0.4,1.1c0,0.4,0.1,0.8,0.4,1
		l14.6,13.7c0.3,0.2,0.6,0.4,0.9,0.4c0.4,0,0.7-0.1,1-0.4c0.5-0.5,0.5-1.4-0.1-1.9L3.7,16.3L16.5,2.6C17.1,2,17,1.2,16.5,0.7
		C16.2,0.4,15.9,0.3,15.6,0.3L15.6,0.3z"/>
</g>
</svg>
