<?xml version="1.0" encoding="utf-8"?>
<!-- Generator: Adobe Illustrator 19.0.0, SVG Export Plug-In . SVG Version: 6.00 Build 0)  -->
<svg version="1.1" id="Layer_1" xmlns="http://www.w3.org/2000/svg" xmlns:xlink="http://www.w3.org/1999/xlink" x="0px" y="0px"
	 viewBox="0 0 36 36" style="enable-background:new 0 0 36 36;" xml:space="preserve">
<style type="text/css">
	.st0{fill:#404040;}
</style>
<path id="XMLID_28_" class="st0" d="M26.9,9.1L26,4.7l3.8-3.8c-2.5-0.6-5.2,0-7.1,2C20.6,5,20,8.1,20.9,10.7L1.4,30.2
	c-1.2,1.2-1.2,3.1,0,4.2l0.4,0.4C3,36,4.9,36,6.1,34.8l19.6-19.6c2.6,0.9,5.6,0.3,7.6-1.8c1.9-1.9,2.6-4.6,2-7.1l-3.8,3.8L26.9,9.1z
	 M5.3,33.5c-0.7,0.7-1.9,0.7-2.6,0c-0.7-0.7-0.7-1.9,0-2.6c0.7-0.7,1.9-0.7,2.6,0C6,31.6,6,32.8,5.3,33.5z"/>
</svg>
