<svg height="512pt" viewBox="0 0 512 512" width="512pt" xmlns="http://www.w3.org/2000/svg"><path d="m176 223.902344h32v96h-32zm0 0" fill="#7c4dff"/><path d="m240 159.902344h32v160h-32zm0 0" fill="#fdd835"/><path d="m304 191.902344h32v128h-32zm0 0" fill="#64b5f6"/><path d="m176 271.902344h32v48h-32zm0 0" fill="#651fff"/><path d="m240 271.902344h32v48h-32zm0 0" fill="#fbc02d"/><path d="m304 271.902344h32v48h-32zm0 0" fill="#42a5f5"/><path d="m357.535156 131.742188-10.976562-7.566407c-18.542969-12.800781-39.214844-21.359375-61.46875-25.472656l-13.089844-2.429687v-96.273438l18.113281 2.414062c43.886719 5.875 85.710938 23.203126 120.992188 50.128907l14.527343 11.105469zm0 0" fill="#7c4dff"/><path d="m448.257812 425.535156-68.097656-68.09375 7.566406-10.976562c18.496094-26.785156 28.273438-58.097656 28.273438-90.5625 0-32.460938-9.777344-63.773438-28.273438-90.574219l-7.566406-10.960937 68.097656-68.09375 11.101563 14.527343c34.433594 45.085938 52.640625 98.71875 52.640625 155.101563 0 56.386718-18.207031 110-52.640625 155.105468zm0 0" fill="#64b5f6"/><path d="m256 511.902344c-141.152344 0-256-114.847656-256-256 0-127.597656 95.390625-236.574219 221.886719-253.488282l18.113281-2.414062v96.273438l-13.089844 2.414062c-75.855468 14.015625-130.910156 80.128906-130.910156 157.214844 0 88.226562 71.777344 160 160 160 32.464844 0 63.777344-9.773438 90.574219-28.269532l10.976562-7.570312 68.097657 68.097656-14.527344 11.105469c-45.121094 34.429687-98.753906 52.636719-155.121094 52.636719zm0 0" fill="#fdd835"/><path d="m352 335.902344h-192c-8.832031 0-16-7.167969-16-16 0-8.832032 7.167969-16 16-16h192c8.832031 0 16 7.167968 16 16 0 8.832031-7.167969 16-16 16zm0 0" fill="#ef5350"/></svg>