<?xml version="1.0" encoding="utf-8"?>
<!-- Generator: Adobe Illustrator 19.0.0, SVG Export Plug-In . SVG Version: 6.00 Build 0)  -->
<svg version="1.1" id="Layer_1" xmlns="http://www.w3.org/2000/svg" xmlns:xlink="http://www.w3.org/1999/xlink" x="0px" y="0px"
	 viewBox="0 0 36 36" style="enable-background:new 0 0 36 36;" xml:space="preserve">
<style type="text/css">
	.st0{fill:#404040;}
</style>
<g id="XMLID_29_">
	<path id="XMLID_63_" class="st0" d="M8.2,1L0,5.7v9.5L8.2,20l8.2-4.8V5.7L8.2,1z M1.2,14.1c-0.1,0-0.2-0.1-0.2-0.2V7.1
		C0.9,7,1,6.9,1.2,6.9h0.5C1.8,6.9,2,7,2,7.1v6.7c0,0.1-0.1,0.2-0.2,0.2H1.2z M8.3,18L8,18.5c-0.1,0.1-0.2,0.2-0.3,0.1l-5.8-3.4
		c-0.1-0.1-0.2-0.2-0.1-0.3l0.3-0.5c0.1-0.1,0.2-0.2,0.3-0.1l5.8,3.4C8.3,17.8,8.4,17.9,8.3,18z"/>
	<path id="XMLID_59_" class="st0" d="M26.8,1l-8.2,4.8v9.5l8.2,4.8l8.2-4.8V5.7L26.8,1z M19.7,14.1c-0.1,0-0.2-0.1-0.2-0.2V7.1
		c0-0.1,0.1-0.2,0.2-0.2h0.5c0.1,0,0.2,0.1,0.2,0.2v6.7c0,0.1-0.1,0.2-0.2,0.2H19.7z M26.8,18l-0.3,0.5c-0.1,0.1-0.2,0.2-0.3,0.1
		l-5.8-3.4c-0.1-0.1-0.2-0.2-0.1-0.3l0.3-0.5c0.1-0.1,0.2-0.2,0.3-0.1l5.8,3.4C26.9,17.8,26.9,17.9,26.8,18z"/>
	<path id="XMLID_30_" class="st0" d="M17.5,16.4l-8.2,4.8v9.5l8.2,4.8l8.2-4.8v-9.5L17.5,16.4z M10.4,29.5c-0.1,0-0.2-0.1-0.2-0.2
		v-6.7c0-0.1,0.1-0.2,0.2-0.2H11c0.1,0,0.2,0.1,0.2,0.2v6.7c0,0.1-0.1,0.2-0.2,0.2H10.4z M17.6,33.5l-0.3,0.5
		C17.2,34,17.1,34.1,17,34l-5.8-3.4c-0.1-0.1-0.2-0.2-0.1-0.3l0.3-0.5c0.1-0.1,0.2-0.2,0.3-0.1l5.8,3.4
		C17.6,33.2,17.6,33.3,17.6,33.5z"/>
</g>
</svg>
