<?xml version="1.0" encoding="utf-8"?>
<!-- Generator: Adobe Illustrator 19.0.0, SVG Export Plug-In . SVG Version: 6.00 Build 0)  -->
<svg version="1.1" id="Layer_1" xmlns="http://www.w3.org/2000/svg" xmlns:xlink="http://www.w3.org/1999/xlink" x="0px" y="0px"
	 viewBox="0 0 32 31" style="enable-background:new 0 0 32 31;" xml:space="preserve">
<style type="text/css">
	.st0{fill:#404040;}
</style>
<g id="XMLID_29_">
	<path id="XMLID_36_" class="st0" d="M30.9,6.6l-1-0.7c-0.6-0.5-1.5-0.3-2,0.4l-0.4,0.6C28,7.2,28.5,7.5,29,7.9
		c0.6,0.4,1.1,0.8,1.6,1.3l0.4-0.6C31.6,8,31.5,7,30.9,6.6z M26.9,7.5l-9.4,12.5c0,0,0,0,0,0l-0.2,0.2c0,0.1-0.1,0.1-0.1,0.2
		l-0.4,3.3c0,0.1,0,0.3,0.1,0.4c0.1,0.1,0.2,0.1,0.3,0.1c0,0,0.1,0,0.1,0l3-1.4c0.1,0,0.1-0.1,0.2-0.1l9.6-12.8
		c-0.5-0.4-1-0.8-1.6-1.3C28,8.2,27.4,7.9,26.9,7.5z"/>
	<path id="XMLID_30_" class="st0" d="M26.2,7C26.2,6.9,26.2,6.9,26.2,7l0-3.8c0-1.4-1.1-2.5-2.5-2.5H3.9c-1.4,0-2.5,1.1-2.5,2.5
		v25.2c0,1.4,1.1,2.5,2.5,2.5h19.7c1.4,0,2.5-1.1,2.5-2.5V16.8L24,19.6v8.7c0,0.2-0.2,0.4-0.4,0.4H3.9c-0.2,0-0.4-0.2-0.4-0.4V3.2
		c0-0.2,0.2-0.4,0.4-0.4h19.7c0.2,0,0.4,0.2,0.4,0.4v6.6L26.2,7z M7.7,22.7c-0.6,0-1,0.5-1,1c0,0.6,0.5,1,1,1H14c0.6,0,1-0.5,1-1
		c0-0.6-0.5-1-1-1H7.7z M18.4,17.4H7.7c-0.6,0-1,0.5-1,1c0,0.6,0.5,1,1,1h9.1L18.4,17.4z M20.9,13c0-0.6-0.5-1-1-1H7.7
		c-0.6,0-1,0.5-1,1s0.5,1,1,1h12.1C20.4,14.1,20.9,13.6,20.9,13z M19.8,6.6H7.7c-0.6,0-1,0.5-1,1s0.5,1,1,1h12.1c0.6,0,1-0.5,1-1
		S20.4,6.6,19.8,6.6z"/>
</g>
</svg>
