<?xml version="1.0" encoding="utf-8"?>
<!-- Generator: Adobe Illustrator 19.0.0, SVG Export Plug-In . SVG Version: 6.00 Build 0)  -->
<svg version="1.1" id="Layer_1" xmlns="http://www.w3.org/2000/svg" xmlns:xlink="http://www.w3.org/1999/xlink" x="0px" y="0px"
	 width="16px" height="16px" viewBox="0 0 16 16" style="enable-background:new 0 0 16 16;" xml:space="preserve">
<style type="text/css">
	.st0{fill:#F3F3F3;}
	.st1{fill:#2E303A;}
</style>
<g>
	<path id="XMLID_15_" class="st0" d="M8,15.3C4,15.3,0.8,12,0.8,8C0.8,4,4,0.8,8,0.8c4,0,7.3,3.3,7.3,7.3C15.3,12,12,15.3,8,15.3z"
		/>
	<path id="XMLID_12_" class="st1" d="M8,1.5c3.6,0,6.5,2.9,6.5,6.5s-2.9,6.5-6.5,6.5S1.5,11.6,1.5,8S4.4,1.5,8,1.5 M8,0
		C3.6,0,0,3.6,0,8s3.6,8,8,8s8-3.6,8-8S12.4,0,8,0L8,0z"/>
</g>
</svg>
