<?xml version="1.0" encoding="utf-8"?>
<!-- Generator: Adobe Illustrator 19.0.0, SVG Export Plug-In . SVG Version: 6.00 Build 0)  -->
<svg version="1.1" id="Layer_1" xmlns="http://www.w3.org/2000/svg" xmlns:xlink="http://www.w3.org/1999/xlink" x="0px" y="0px"
	 width="44.7px" height="51.1px" viewBox="0 0 44.7 51.1" style="enable-background:new 0 0 44.7 51.1;" xml:space="preserve">
<style type="text/css">
	.st0{fill:#E3A42D;stroke:#2E303A;stroke-miterlimit:10;}
	.st1{fill:#F3F3F3;stroke:#2E303A;stroke-width:0.75;stroke-miterlimit:10;}
	.st2{fill:#E3A42D;stroke:#2E303A;stroke-width:0.5;stroke-miterlimit:10;}
</style>
<g>
	<polygon class="st0" points="0.9,12.7 0.5,37.7 22,50.6 43.8,38.4 44.2,13.4 22.7,0.6 	"/>
	<polygon class="st1" points="4.3,15 4,35.9 21.9,46.6 40.1,36.4 40.4,15.6 22.5,4.9 	"/>
	<g id="XMLID_2_">
		<path id="XMLID_3_" class="st2" d="M13.8,32.1L23,24c0.5-0.4,0.9-0.9,1.4-1.4c0.5-0.5,0.7-1.1,0.7-1.9c0-0.8-0.3-1.4-0.8-1.9
			c-0.6-0.5-1.2-0.7-2-0.7c-0.9,0-1.7,0.3-2.2,0.8c-0.5,0.6-0.8,1.3-0.9,2.1l-5-0.4c0.1-1.2,0.4-2.3,0.8-3.2
			c0.5-0.9,1.1-1.6,1.8-2.2c0.7-0.6,1.6-1,2.6-1.3c1-0.3,2.1-0.4,3.2-0.4c1.1,0,2.1,0.2,3,0.5s1.7,0.8,2.4,1.4
			c0.7,0.6,1.2,1.3,1.6,2.2c0.4,0.9,0.6,1.9,0.5,3.1c0,0.8-0.1,1.4-0.3,2c-0.2,0.6-0.4,1.2-0.7,1.7c-0.3,0.5-0.6,1-1,1.4
			c-0.4,0.4-0.8,0.8-1.3,1.2l-7.3,6.1l10.5,0.2l-0.1,4.4l-16.5-0.3L13.8,32.1z"/>
	</g>
</g>
</svg>
