<?xml version="1.0" encoding="utf-8"?>
<!-- Generator: Adobe Illustrator 24.0.0, SVG Export Plug-In . SVG Version: 6.00 Build 0)  -->
<svg version="1.1" id="Layer_1" xmlns="http://www.w3.org/2000/svg" xmlns:xlink="http://www.w3.org/1999/xlink" x="0px" y="0px"
	 viewBox="0 0 1228 237" style="enable-background:new 0 0 1228 237;" xml:space="preserve">
<style type="text/css">
	.st0{fill:#FFFFFF;stroke:#000000;stroke-miterlimit:10;}
	.st1{fill:none;}
</style>
<title>STT</title>
<path class="st0" d="M495.7,58.8c1.1,5,4.7,7.2,10.5,7.2s8.2-2.3,8.2-5.9c0-4-2.4-5.8-10.9-7.8c-13.5-3.2-16.9-8.1-16.9-14.8
	c0-8.7,6.5-14.5,18.2-14.5c13.2,0,18.4,7.1,19.1,14.3h-10.8c-0.5-3.1-2.2-6.4-8.6-6.4c-4.4,0-7,1.8-7,5.3s2.1,4.9,10.1,6.7
	c14.4,3.4,17.6,8.8,17.6,15.8c0,9.1-6.9,15.3-20,15.3c-12.6,0-19.2-6.2-20.4-15.3L495.7,58.8L495.7,58.8z"/>
<path class="st0" d="M544.1,32.5H529v-8.8h40.8v8.8h-15v40.8h-10.7L544.1,32.5z"/>
<path class="st0" d="M586.4,32.5h-15.1v-8.8h40.9v8.8h-15v40.8h-10.7V32.5H586.4z"/>
<path class="st0" d="M31.3,171c1.1,5,4.7,7.2,10.5,7.2s8.2-2.3,8.2-5.9c0-4-2.4-5.8-10.9-7.8c-13.5-3.2-16.9-8.1-16.9-14.8
	c0-8.7,6.5-14.5,18.2-14.5c13.2,0,18.4,7.1,19.1,14.3H48.7c-0.5-3.1-2.2-6.4-8.6-6.4c-4.4,0-7,1.8-7,5.3s2.1,4.9,10.1,6.7
	c14.4,3.4,17.6,8.8,17.6,15.8c0,9.1-6.9,15.3-20,15.3c-12.6,0-19.2-6.2-20.4-15.3h10.9L31.3,171z"/>
<path class="st0" d="M103.1,166.8c0,11.3-6.7,19.6-18.6,19.6c-11.6,0-18.3-8.2-18.3-19.4c0-11.5,7-19.6,18.8-19.6
	C96,147.4,103.1,155.2,103.1,166.8z M76.7,166.9c0,7.2,3.1,11.4,8.1,11.4s7.9-4.3,7.9-11.4c0-7.8-2.9-11.5-8-11.5
	C79.9,155.5,76.7,159,76.7,166.9z"/>
<path class="st0" d="M110.3,157.7c0-3.2,0-6.6-0.1-9.4h10c0.2,1,0.3,3.6,0.4,4.7c1.3-2.3,4.3-5.6,10.8-5.6c7.5,0,12.4,5.1,12.4,14.4
	v23.7h-10.3v-22.6c0-4.2-1.4-7.2-5.9-7.2s-6.9,2.4-6.9,9v20.8h-10.3L110.3,157.7L110.3,157.7z"/>
<path class="st0" d="M159.7,148.3c3.8,12.9,7.2,24.3,7.8,27.8h0.1c0.8-3.8,3-12.1,7.4-27.8h10.3l-12.5,38.3
	c-3.6,10.7-6.5,13.9-15.5,13.9c-0.9,0-3-0.1-4.8-0.3v-8.3c0.9,0.1,1.8,0.2,2.7,0.2c3.8,0,5.7-1.3,7.1-5.4l-13.6-38.4H159.7z"/>
<path class="st0" d="M218.9,144.7h-15.1v-8.8h40.9v8.8h-15v40.8H219L218.9,144.7L218.9,144.7z"/>
<path class="st0" d="M258.2,169.1c0,4.7,2.3,9.2,7.5,9.2c4.3,0,5.5-1.7,6.5-4h10.3c-1.3,4.6-5.4,12.1-17.1,12.1
	c-12.3,0-17.6-9.2-17.6-19c0-11.7,6-20,18-20c12.8,0,17.2,9.3,17.2,18.6c0,1,0,2.1-0.1,3.1L258.2,169.1z M272.6,162.8
	c-0.1-4.3-1.8-8-6.8-8s-6.9,3.4-7.3,8H272.6z"/>
<path class="st0" d="M322.2,173.5c-1.3,6.2-5.7,12.9-16.8,12.9c-11.6,0-17.6-8-17.6-19.2c0-11,6.7-19.8,18.1-19.8
	c12.6,0,16.1,9,16.3,13.2h-10.1c-0.6-3-2.4-5.2-6.4-5.2c-4.7,0-7.4,4.1-7.4,11.4c0,7.9,2.8,11.6,7.3,11.6c3.5,0,5.4-2.1,6.4-4.9
	H322.2z"/>
<path class="st0" d="M339.1,133v19.7c1.6-2.4,4.7-5.3,10.7-5.3c7,0,12.5,4.1,12.5,14.2v23.9H352v-22.4c0-4.8-1.7-7.4-6-7.4
	c-5.7,0-6.9,4.3-6.9,10v19.8h-10.3v-52.6L339.1,133L339.1,133z"/>
<path class="st0" d="M371.6,157.7c0-3.2,0-6.6-0.1-9.4h10c0.2,1,0.3,3.6,0.4,4.7c1.3-2.3,4.3-5.6,10.8-5.6c7.5,0,12.4,5.1,12.4,14.4
	v23.7h-10.3v-22.6c0-4.2-1.4-7.2-5.9-7.2s-6.9,2.4-6.9,9v20.8h-10.3v-27.8H371.6z"/>
<path class="st0" d="M448.9,166.8c0,11.3-6.7,19.6-18.6,19.6c-11.6,0-18.3-8.2-18.3-19.4c0-11.5,7-19.6,18.8-19.6
	C441.8,147.4,448.9,155.2,448.9,166.8z M422.5,166.9c0,7.2,3.1,11.4,8.1,11.4s7.9-4.3,7.9-11.4c0-7.8-2.9-11.5-8-11.5
	C425.7,155.5,422.5,159,422.5,166.9z"/>
<path class="st0" d="M456,185.6V133h10.3v52.6H456z"/>
<path class="st0" d="M510.3,166.8c0,11.3-6.7,19.6-18.6,19.6c-11.6,0-18.3-8.2-18.3-19.4c0-11.5,7-19.6,18.8-19.6
	C503.2,147.4,510.3,155.2,510.3,166.8z M483.9,166.9c0,7.2,3.1,11.4,8.1,11.4s7.9-4.3,7.9-11.4c0-7.8-2.9-11.5-8-11.5
	C487,155.5,483.9,159,483.9,166.9L483.9,166.9z"/>
<path class="st0" d="M551.3,181c0,12-4.4,19.5-18.5,19.5c-13.6,0-16.3-7.6-16.6-11.8h10.5c0.7,2.6,2.6,4.3,6.6,4.3
	c6.7,0,8-4.1,8-11.4v-1.8c-1.9,3.2-5,5.2-10.5,5.2c-9.8,0-15.4-8-15.4-18.1c0-11.7,7-19.6,16.3-19.6c6.4,0,9.1,3,9.6,4.8
	c0.1-1,0.3-3.3,0.4-3.9h9.8c-0.1,3.3-0.1,7.1-0.1,10.7L551.3,181L551.3,181z M525.8,166.6c0,6.4,3.2,10.2,7.8,10.2
	c6.2,0,7.9-4.3,7.9-10.5s-1.1-10.6-7.7-10.6C529.3,155.7,525.8,159.1,525.8,166.6z"/>
<path class="st0" d="M567.2,148.3c3.8,12.9,7.2,24.3,7.8,27.8h0.1c0.8-3.8,3-12.1,7.4-27.8h10.3l-12.5,38.3
	c-3.6,10.7-6.5,13.9-15.5,13.9c-0.9,0-3-0.1-4.8-0.3v-8.3c0.9,0.1,1.8,0.2,2.7,0.2c3.8,0,5.7-1.3,7.1-5.4l-13.6-38.4H567.2z"/>
<path class="st0" d="M634.8,133.1c-5.9,7.9-11.2,19-11.2,32.1c0.1,11.9,4,23.5,11.2,33h-9.9c-7-9.6-10.7-21.2-10.6-33.1
	c0-14,5-24,10.6-32H634.8z"/>
<path class="st0" d="M653.2,144.7h-15.1v-8.8H679v8.8h-15v40.8h-10.7L653.2,144.7L653.2,144.7z"/>
<path class="st0" d="M694.7,133v19.7c1.6-2.4,4.7-5.3,10.7-5.3c7,0,12.5,4.1,12.5,14.2v23.9h-10.3v-22.4c0-4.8-1.7-7.4-6-7.4
	c-5.7,0-6.9,4.3-6.9,10v19.8h-10.3v-52.6L694.7,133L694.7,133z"/>
<path class="st0" d="M758.1,175.9c0,3.2,0.2,6.4,0.5,9.6h-9.9c-0.3-1.2-0.5-2.4-0.5-3.6c-1.4,2.1-3.9,4.5-10.5,4.5
	c-9,0-12.8-5.9-12.8-11.7c0-8.5,6.8-12.4,17.7-12.4h5.3V160c0-2.6-1-5.3-5.7-5.3c-4.4,0-5.3,1.9-5.8,4.5h-9.8
	c0.6-6.6,4.7-12,16-11.9c10,0.1,15.4,4,15.4,12.8L758.1,175.9L758.1,175.9z M748,168.6h-4.2c-6.2,0-8.5,1.9-8.5,5.5
	c0,2.7,1.7,5,5.4,5c6.6,0,7.4-4.6,7.4-9.5v-1H748z"/>
<path class="st0" d="M767.4,133h10.3v9.2h-10.3V133z M767.4,148.3h10.3v37.3h-10.3V148.3z"/>
<path class="st0" d="M787,185.6V133h10.3v52.6H787z"/>
<path class="st0" d="M837.5,175.9c0,3.2,0.2,6.4,0.5,9.6h-9.9c-0.3-1.2-0.5-2.4-0.5-3.6c-1.4,2.1-3.9,4.5-10.5,4.5
	c-9,0-12.8-5.9-12.8-11.7c0-8.5,6.8-12.4,17.7-12.4h5.3V160c0-2.6-1-5.3-5.7-5.3c-4.4,0-5.3,1.9-5.8,4.5H806c0.6-6.6,4.7-12,16-11.9
	c10,0.1,15.4,4,15.4,12.8v15.8L837.5,175.9z M827.4,168.6h-4.2c-6.2,0-8.5,1.9-8.5,5.5c0,2.7,1.7,5,5.4,5c6.6,0,7.4-4.6,7.4-9.5v-1
	H827.4z"/>
<path class="st0" d="M846.9,157.7c0-3.2,0-6.6-0.1-9.4h10c0.2,1,0.3,3.6,0.4,4.7c1.3-2.3,4.3-5.6,10.8-5.6c7.5,0,12.4,5.1,12.4,14.4
	v23.7h-10.3v-22.6c0-4.2-1.4-7.2-5.9-7.2s-6.9,2.4-6.9,9v20.8H847L846.9,157.7L846.9,157.7z"/>
<path class="st0" d="M923.7,133v42.3c0,3.4,0,6.8,0.1,10.2h-9.9c-0.2-1.1-0.4-3-0.5-3.9c-1.8,2.9-5,4.8-10.6,4.8
	c-9.4,0-15.4-7.6-15.4-19.2s6.4-19.8,16.9-19.8c5.4,0,8.2,1.9,9.1,3.6v-18H923.7z M898,167c0,7.3,2.8,11.2,7.9,11.2
	c7.1,0,7.9-5.9,7.9-11.3c0-6.4-0.9-11.2-7.6-11.2C900.7,155.7,898,159.9,898,167z"/>
<path class="st0" d="M930.8,198.2c5.9-7.9,11.2-19,11.2-32.1c-0.1-11.9-4-23.5-11.2-33h9.9c7,9.6,10.7,21.2,10.6,33.1
	c0,14-5,24-10.6,32H930.8z"/>
<path class="st0" d="M1020.5,170.3c-2,9.3-9,16-21.4,16c-15.7,0-23.2-11.1-23.2-25.3c0-13.6,7.7-25.8,23.7-25.8
	c13.2,0,19.6,7.8,20.8,16.1h-10.6c-1-3.8-3.7-7.6-10.4-7.6c-8.9,0-12.3,8-12.3,17c0,8.4,3,17.2,12.6,17.2c7,0,9.2-4.7,10.2-7.6
	L1020.5,170.3z"/>
<path class="st0" d="M1063.1,166.8c0,11.3-6.7,19.6-18.6,19.6c-11.6,0-18.3-8.2-18.3-19.4c0-11.5,7-19.6,18.8-19.6
	C1056,147.4,1063.1,155.2,1063.1,166.8z M1036.7,166.9c0,7.2,3.1,11.4,8.1,11.4s7.9-4.3,7.9-11.4c0-7.8-2.9-11.5-8-11.5
	C1039.8,155.5,1036.7,159,1036.7,166.9z"/>
<path class="st0" d="M1069,185.6V173h11.1v12.6H1069z"/>
<path class="st0" d="M1084,193.9c3-6.6,4.8-13.7,5.3-21h10.6c-0.8,7.1-3.1,15.1-7.9,21H1084z"/>
<path class="st0" d="M1109,135.9h10.7v40.8h24.7l-1.2,8.8H1109V135.9z"/>
<path class="st0" d="M1146.3,148.3h5.7v-10.1h10.3v10.1h7.3v7.8h-7.3v18.4c0,2.8,0.9,3.9,3.9,3.9c0.8,0,1.5,0,2.3-0.1v7.1
	c-2.3,0.6-4.6,0.8-6.9,0.7c-7.3,0-9.7-3.9-9.7-10.4v-19.6h-5.7L1146.3,148.3L1146.3,148.3z"/>
<path class="st0" d="M1210.3,133v42.3c0,3.4,0,6.8,0.1,10.2h-9.9c-0.2-1.1-0.4-3-0.5-3.9c-1.8,2.9-5,4.8-10.6,4.8
	c-9.4,0-15.4-7.6-15.4-19.2s6.4-19.8,16.9-19.8c5.4,0,8.2,1.9,9.1,3.6v-18H1210.3z M1184.5,167c0,7.3,2.8,11.2,7.9,11.2
	c7.1,0,7.9-5.9,7.9-11.3c0-6.4-0.9-11.2-7.6-11.2C1187.3,155.7,1184.5,159.9,1184.5,167L1184.5,167z"/>
<rect class="st1" width="1228" height="237"/>
</svg>
