<?xml version="1.0" encoding="utf-8"?>
<!-- Generator: Adobe Illustrator 19.0.0, SVG Export Plug-In . SVG Version: 6.00 Build 0)  -->
<svg version="1.1" id="Layer_1" xmlns="http://www.w3.org/2000/svg" xmlns:xlink="http://www.w3.org/1999/xlink" x="0px" y="0px"
	 viewBox="0 0 25.7 25.5" style="enable-background:new 0 0 25.7 25.5;" xml:space="preserve">
<style type="text/css">
	.st0{fill:#363534;}
	.st1{fill:#404040;}
</style>
<g id="XMLID_2_">
	<g id="XMLID_12_">
		<path id="XMLID_21_" class="st0" d="M12.8,1.3c6.3,0,11.5,5.2,11.5,11.5c0,1.6-0.3,3.2-1,4.6c-2.1-2.6-6.2-4.2-10.8-4.2
			c-4.3,0-8.3,1.5-10.4,3.9c-0.5-1.3-0.8-2.8-0.8-4.2C1.3,6.4,6.5,1.3,12.8,1.3 M12.8,0.3C5.9,0.3,0.3,5.9,0.3,12.8
			c0,2.2,0.6,4.3,1.6,6.2c1.5-2.8,5.7-4.8,10.6-4.8c5.2,0,9.5,2.2,10.9,5.2c1.2-1.9,1.9-4.2,1.9-6.6C25.3,5.9,19.7,0.3,12.8,0.3
			L12.8,0.3z"/>
	</g>
	<g id="XMLID_8_">
		<path id="XMLID_20_" class="st1" d="M12.8,25.3c4.5,0,8.4-2.3,10.6-5.9c-1.3-3-5.7-5.2-10.9-5.2c-4.9,0-9.1,2-10.6,4.8
			C4.1,22.7,8.1,25.3,12.8,25.3z"/>
	</g>
	<g id="XMLID_3_">
		<circle id="XMLID_18_" class="st1" cx="12.7" cy="8" r="4.4"/>
	</g>
</g>
</svg>
